<?xml version="1.0" standalone="no"?>
<!DOCTYPE svg PUBLIC "-//W3C//DTD SVG 1.1//EN" "http://www.w3.org/Graphics/SVG/1.1/DTD/svg11.dtd" >
<svg>
<metadata>
Created by FontForge 20090914 at Thu Feb  9 22:53:45 2017
 By www-data
Justo St &#194;&#169; (Southype). 2016. All Rights Reserved www.southype.com free for personal use
</metadata>
<defs>
<font id="JustoSt" horiz-adv-x="1284" >
  <font-face 
    font-family="Justo St"
    font-weight="400"
    font-stretch="normal"
    units-per-em="2048"
    panose-1="2 0 5 0 0 0 0 0 0 0"
    ascent="1638"
    descent="-410"
    x-height="1968"
    cap-height="1984"
    bbox="-0.00390625 -409.999 1984 2596"
    underline-thickness="150"
    underline-position="-142"
    unicode-range="U+0020-U+F002"
  />
<missing-glyph horiz-adv-x="1024" 
 />
    <glyph glyph-name=".notdef" horiz-adv-x="1024" 
 />
    <glyph glyph-name="space" unicode=" " horiz-adv-x="800" 
 />
    <glyph glyph-name="space" unicode="&#xa0;" horiz-adv-x="800" 
 />
    <glyph glyph-name="exclam" unicode="!" horiz-adv-x="672" 
 />
    <glyph glyph-name="quotedbl" unicode="&#x22;" horiz-adv-x="672" 
 />
    <glyph glyph-name="numbersign" unicode="#" horiz-adv-x="1336" 
 />
    <glyph glyph-name="dollar" unicode="$" horiz-adv-x="1014" 
 />
    <glyph glyph-name="percent" unicode="%" horiz-adv-x="1610" 
 />
    <glyph glyph-name="ampersand" unicode="&#x26;" horiz-adv-x="1683" 
 />
    <glyph glyph-name="quotesingle" unicode="'" horiz-adv-x="346" 
 />
    <glyph glyph-name="parenleft" unicode="(" horiz-adv-x="758" 
 />
    <glyph glyph-name="parenright" unicode=")" horiz-adv-x="758" 
 />
    <glyph glyph-name="asterisk" unicode="*" horiz-adv-x="1024" 
 />
    <glyph glyph-name="plus" unicode="+" horiz-adv-x="1014" 
 />
    <glyph glyph-name="comma" unicode="," horiz-adv-x="844" 
d="M464 559c102.667 0 185.333 -52 248 -156c21.333 -44 32 -85.333 32 -124c0 -102 -52 -184.667 -156 -248c-44 -21.333 -85.333 -32 -124 -32c-124 0 -214.667 70.667 -272 212c-2.66699 37.333 -5.33398 57.333 -8.00098 60l4 8c0 2.66699 -1.33301 4 -4 4
c0 91.333 46.667 170 140 236c50.667 26.667 97.334 40 140.001 40zM231.999 47h4c70.667 -58.667 140 -88 208 -88h24v-4l-304 -304c-5.33301 2 -60 56.667 -164 164z" />
    <glyph glyph-name="hyphen" unicode="-" horiz-adv-x="670" 
 />
    <glyph glyph-name="hyphen" unicode="&#xad;" horiz-adv-x="670" 
 />
    <glyph glyph-name="period" unicode="." horiz-adv-x="660" 
d="M280 560c102.667 0 185.333 -52 248 -156c21.333 -44 32 -85.333 32 -124c0 -102 -52 -184.667 -156 -248c-44 -21.333 -85.333 -32 -124 -32c-124 0 -214.667 70.667 -272 212c-2.66699 37.333 -5.33398 57.333 -8.00098 60l4 8c0 2.66699 -1.33301 4 -4 4
c0 91.333 46.667 170 140 236c50.667 26.667 97.334 40 140.001 40z" />
    <glyph glyph-name="slash" unicode="/" horiz-adv-x="569" 
 />
    <glyph glyph-name="zero" unicode="0" 
d="M820 1984c138.667 0 253.332 -84 343.999 -252c13.333 -44.667 20 -78 20 -100v-584c0 -5.33301 -2.66699 -8 -8 -8h-372c-5.33301 0 -8 2.66699 -8 8v140h-12c-45.333 -98.667 -70.666 -148 -75.999 -148h-168l-8 4c178.667 350 268 530 268 540v8
c0 5.33301 -2.66699 8 -8 8h-400c-5.33301 -0.666992 -8 -3.33398 -8 -8.00098v-544c0 -5.33301 -2.66699 -8 -8 -8h-368c-5.33301 0 -8 2.66699 -8 8v500c0 128.667 16 207.334 48 236.001c80.667 133.333 194 200 340 200h432zM7.99805 944l367.997 0.00195312
c5.33301 -0.666992 8 -3.33398 8 -8.00098v-152c0.666992 -5.33301 3.33398 -8 8.00098 -8c57.333 111.333 88 167.333 92 168h168l8 -4c-21.333 -40 -113.333 -222.667 -276 -548l8 -4h400c5.33301 0 8 2.66699 8 8v540c0.666992 5.33301 3.33398 8 8.00098 8h368
c5.33301 -0.666992 8 -3.33398 8 -8.00098v-560c0 -132.667 -73.333 -244.667 -220 -336c-51.333 -26.667 -98 -40 -140 -40h-468c-100 -0 -193.333 53.333 -280 160c-50.667 72 -76 138.667 -76 200v576c0.666992 5.33301 3.33398 8 8.00098 8z" />
    <glyph glyph-name="one" unicode="1" horiz-adv-x="872" 
d="M384 1980h16c148 0 266.667 -88 356 -264c10.667 -43.333 16 -74 16 -92v-576c0 -5.33301 -2.66699 -8 -8 -8h-368c-5.33301 0 -8 2.66699 -8 8v344c0 5.33301 -2.66699 8 -8 8h-380v4c204 313.333 332 505.333 384 576zM396 944l367.999 0.000976562
c5.33301 -0.666992 8 -3.33398 8 -8.00098v-928c0 -5.33301 -2.66699 -8 -8 -8h-368c-5.33301 0 -8 2.66699 -8 8v928c0.666992 5.33301 3.33398 8 8.00098 8z" />
    <glyph glyph-name="two" unicode="2" 
d="M436 1984l387.999 0.00195312c120 0 228 -74.667 324 -224c24 -52.667 36 -96.667 36 -132v-448c-11.333 -93.333 -23.333 -140 -36 -140h-1060v4c42.667 58 117.334 103.333 224.001 136c18 2.66699 32.667 4 44 4h436c5.33301 0 8 2.66699 8 8v400
c0 5.33301 -2.66699 8 -8 8h-400c-5.33301 -0.666992 -8 -3.33398 -8 -8.00098v-168l-4 -8l-380 196c0 143.333 82.667 260.666 248 351.999c27.333 13.333 90 20 188 20zM35.999 944.002h1056v-4c-92.667 -93.333 -187.334 -140 -284.001 -140h-416
c-5.33301 -0.666992 -8 -3.33398 -8 -8.00098v-400c0.666992 -5.33301 3.33398 -8 8.00098 -8h400c5.33301 0 8 2.66699 8 8v176l4 8c250 -123.333 376.667 -188.666 380 -195.999v-4c0 -108 -54.667 -209.333 -164 -304c-47.333 -45.333 -136.666 -68 -267.999 -68
c-61.333 0 -194.666 -1.33301 -399.999 -4c-92 0 -186.667 56 -284 168c-45.333 68.667 -68 134 -68 196v436c8 96 20 144 36 144z" />
    <glyph glyph-name="three" unicode="3" horiz-adv-x="1272" 
d="M12 1984h795.998c138.667 0 253.334 -84 344.001 -252c13.333 -44.667 20 -78 20 -100v-428c-27.333 -78.667 -54 -133.334 -80 -164.001h-616c-3.33301 0 -28.666 46.667 -75.999 140l8 4h372c5.33301 0 8 2.66699 8 8v400c0 5.33301 -2.66699 8 -8 8h-584
c-3.33301 0.666992 -67.333 127.334 -192 380.001zM527.998 944l563.998 -0.000976562c10.667 0 37.334 -50.667 80.001 -152v-412c0 -129.333 -70.667 -241.333 -212 -336c-52.667 -29.333 -100.667 -44 -144 -44h-204c-94.667 0 -234.667 1.33301 -420 4
c-106 212.667 -170 339.334 -192 380.001l8 4h772c5.33301 0 8 2.66699 8 8v396c0 5.33301 -2.66699 8 -8 8h-184c-3.33301 0 -28.666 46.667 -75.999 140z" />
    <glyph glyph-name="four" unicode="4" 
d="M1180 1980l3.99707 -7.99805v-920c0 -5.33301 -2.66699 -8 -8 -8h-1140c-11.333 0 -23.333 41.333 -36 124v612c0.666992 3.33301 127.334 68.666 380.001 195.999l4 -8v-776c0.666992 -5.33301 3.33398 -8 8.00098 -8h400c5.33301 0 8 2.66699 8 8v592
c0.666992 3.33301 127.334 68.666 380.001 195.999zM95.9971 948.002l1080 0.000976562c5.33301 -0.666992 8 -3.33398 8 -8.00098v-932c0 -5.33301 -2.66699 -8 -8 -8h-368c-5.33301 0 -8 2.66699 -8 8v784c0 5.33301 -2.66699 8 -8 8h-408
c-112.667 0 -211.334 48 -296.001 144z" />
    <glyph glyph-name="five" unicode="5" 
d="M8 1984l811.998 0.000976562c134 0 243.333 -74.667 328 -224c24 -48 36 -96 36 -144c-16.667 -16.667 -111.334 -66 -284.001 -148l-96 -52l-4 8v168c0 5.33301 -2.66699 8 -8 8h-400c-5.33301 -0.666992 -8 -3.33398 -8 -8.00098v-400
c0.666992 -5.33301 3.33398 -8 8.00098 -8h388l12 -8h4l12 8c104.667 0 199.334 -45.333 284.001 -136v-8h-1084c-5.33301 0 -8 2.66699 -8 8v928c0.666992 5.33301 3.33398 8 8.00098 8zM7.99805 944.001h1140c10 0 22 -42.667 36 -128v-436c0 -130 -70.667 -242 -212 -336
c-54 -29.333 -102 -44 -144 -44h-456c-143.333 0 -258 81.333 -344 244c-18.667 47.333 -28 91.333 -28 132v4c0 12 126.667 77.333 380 196l4 -8v-176c0.666992 -5.33301 3.33398 -8 8.00098 -8h400c5.33301 0 8 2.66699 8 8v400c0 5.33301 -2.66699 8 -8 8h-784
c-5.33301 0 -8 2.66699 -8 8v128c0.666992 5.33301 3.33398 8 8.00098 8z" />
    <glyph glyph-name="six" unicode="6" 
d="M984 1984c6.66699 -8 69.332 -134.667 187.999 -380l-8 -4h-772c-5.33301 -0.666992 -8 -3.33398 -8 -8.00098v-404c0.666992 -5.33301 3.33398 -8 8.00098 -8h380c130.667 0 234.667 -45.333 312 -136v-4h-1076c-5.33301 0 -8 2.66699 -8 8v500
c0 128.667 16 207.334 48 236.001c80.667 133.333 194 200 340 200h596zM7.99805 944l1136 -0.000976562c8.66699 0 22 -40 40 -120v-444c0 -129.333 -70.667 -241.333 -212 -336c-54 -29.333 -102 -44 -144 -44h-456c-159.333 0 -279.333 93.333 -360 280
c-8 38.667 -12 65.334 -12 80.001v576c0.666992 5.33301 3.33398 8 8.00098 8zM387.997 783.999l-0.000976562 -387.999c0.666992 -5.33301 3.33398 -8 8.00098 -8h392c5.33301 0 8 2.66699 8 8v388c0 5.33301 -2.66699 8 -8 8h-392
c-5.33301 -0.666992 -8 -3.33398 -8 -8.00098z" />
    <glyph glyph-name="seven" unicode="7" horiz-adv-x="1272" 
d="M192 1984l620 -0.000976562c120 0 228 -74.667 324 -224c24 -52.667 36 -96.667 36 -132v-580c0 -5.33301 -2.66699 -8 -8 -8h-368c-5.33301 0 -8 2.66699 -8 8v544c0 5.33301 -2.66699 8 -8 8h-772l-8 4c124.667 252.667 188.667 379.334 192 380.001zM796 943.999
l367.999 0.000976562c5.33301 -0.666992 8 -3.33398 8 -8.00098v-928c0 -5.33301 -2.66699 -8 -8 -8h-368c-5.33301 0 -8 2.66699 -8 8v928c0.666992 5.33301 3.33398 8 8.00098 8z" />
    <glyph glyph-name="eight" unicode="8" 
d="M820 1984c138.667 0 253.334 -84 344.001 -252c13.333 -44.667 20 -78 20 -100v-428c-27.333 -78.667 -54 -133.334 -80 -164.001h-1024c-32.667 29.333 -59.334 85.333 -80.001 168v340c0 128.667 16 207.334 48 236.001c80.667 133.333 194 200 340 200h432zM388 1588
l-0.000976562 -387.999c0.666992 -5.33301 3.33398 -8 8.00098 -8h284l12 -8h96c5.33301 0 8 2.66699 8 8v396c0 5.33301 -2.66699 8 -8 8h-392c-5.33301 -0.666992 -8 -3.33398 -8 -8.00098zM79.999 944.001l1024 -0.000976562c10.667 0 37.334 -50.667 80.001 -152v-412
c0 -129.333 -70.667 -241.333 -212 -336c-52.667 -29.333 -100.667 -44 -144 -44h-456c-143.333 0 -259.333 82.667 -348 248c-16 40.667 -24 79.334 -24 116.001v412c24.667 90.667 51.334 146.667 80.001 168zM391.997 800l-4.00098 -8v-396
c0.666992 -5.33301 3.33398 -8 8.00098 -8h392c5.33301 0 8 2.66699 8 8v388c0 5.33301 -2.66699 8 -8 8h-384z" />
    <glyph glyph-name="nine" unicode="9" 
d="M820 1984c138.667 0 253.332 -84.001 343.999 -252.001c13.333 -44.667 20 -78 20 -100v-584c0 -5.33301 -2.66699 -8 -8 -8h-1136c-13.333 0 -26.666 45.333 -39.999 136v372c0 128.667 16 207.334 48 236.001c80.667 133.333 194 200 340 200h432zM387.998 1588
l-0.000976562 -387.999c0.666992 -5.33301 3.33398 -8 8.00098 -8h392c5.33301 0 8 2.66699 8 8v388c0 5.33301 -2.66699 8 -8 8h-392c-5.33301 -0.666992 -8 -3.33398 -8 -8.00098zM99.9971 944h1076c5.33301 -0.666992 8 -3.33398 8 -8.00098v-556
c0 -129.333 -70.667 -241.333 -212 -336c-54 -29.333 -102 -44 -144 -44h-808l-8 4c124.667 252.667 188.667 379.334 192 380.001h588c5.33301 0 8 2.66699 8 8v404c0 5.33301 -2.66699 8 -8 8h-384c-123.333 0 -226 45.333 -308 136v4z" />
    <glyph glyph-name="colon" unicode=":" horiz-adv-x="660" 
d="M280 560c102.667 0 185.333 -52 248 -156c21.333 -44 32 -85.333 32 -124c0 -102 -52 -184.667 -156 -248c-44 -21.333 -85.333 -32 -124 -32c-124 0 -214.667 70.667 -272 212c-2.66699 37.333 -5.33398 57.333 -8.00098 60l4 8c0 2.66699 -1.33301 4 -4 4
c0 91.333 46.667 170 140 236c50.667 26.667 97.334 40 140.001 40zM279.999 1424c102.667 0 185.333 -52 248 -156c21.333 -44 32 -85.333 32 -124c0 -102 -52 -184.667 -156 -248c-44 -21.333 -85.333 -32 -124 -32c-124 0 -214.667 70.667 -272 212
c-2.66699 37.333 -5.33398 57.333 -8.00098 60l4 8c0 2.66699 -1.33301 4 -4 4c0 91.333 46.667 170 140 236c50.667 26.667 97.334 40 140.001 40z" />
    <glyph glyph-name="semicolon" unicode=";" horiz-adv-x="844" 
d="M464 559c102.667 0 185.333 -52 248 -156c21.333 -44 32 -85.333 32 -124c0 -102 -52 -184.667 -156 -248c-44 -21.333 -85.333 -32 -124 -32c-124 0 -214.667 70.667 -272 212c-2.66699 37.333 -5.33398 57.333 -8.00098 60l4 8c0 2.66699 -1.33301 4 -4 4
c0 91.333 46.667 170 140 236c50.667 26.667 97.334 40 140.001 40zM231.999 47h4c70.667 -58.667 140 -88 208 -88h24v-4l-304 -304c-5.33301 2 -60 56.667 -164 164zM456.999 1434c102.667 0 185.333 -52 248 -156c21.333 -44 32 -85.333 32 -124
c0 -102 -52 -184.667 -156 -248c-44 -21.333 -85.333 -32 -124 -32c-124 0 -214.667 70.667 -272 212c-2.66699 37.333 -5.33398 57.333 -8.00098 60l4 8c0 2.66699 -1.33301 4 -4 4c0 91.333 46.667 170 140 236c50.667 26.667 97.334 40 140.001 40z" />
    <glyph glyph-name="semicolon" unicode="&#x37e;" horiz-adv-x="844" 
d="M464 559c102.667 0 185.333 -52 248 -156c21.333 -44 32 -85.333 32 -124c0 -102 -52 -184.667 -156 -248c-44 -21.333 -85.333 -32 -124 -32c-124 0 -214.667 70.667 -272 212c-2.66699 37.333 -5.33398 57.333 -8.00098 60l4 8c0 2.66699 -1.33301 4 -4 4
c0 91.333 46.667 170 140 236c50.667 26.667 97.334 40 140.001 40zM231.999 47h4c70.667 -58.667 140 -88 208 -88h24v-4l-304 -304c-5.33301 2 -60 56.667 -164 164zM456.999 1434c102.667 0 185.333 -52 248 -156c21.333 -44 32 -85.333 32 -124
c0 -102 -52 -184.667 -156 -248c-44 -21.333 -85.333 -32 -124 -32c-124 0 -214.667 70.667 -272 212c-2.66699 37.333 -5.33398 57.333 -8.00098 60l4 8c0 2.66699 -1.33301 4 -4 4c0 91.333 46.667 170 140 236c50.667 26.667 97.334 40 140.001 40z" />
    <glyph glyph-name="less" unicode="&#x3c;" horiz-adv-x="1014" 
 />
    <glyph glyph-name="equal" unicode="=" horiz-adv-x="1014" 
 />
    <glyph glyph-name="greater" unicode="&#x3e;" horiz-adv-x="1014" 
 />
    <glyph glyph-name="question" unicode="?" horiz-adv-x="748" 
 />
    <glyph glyph-name="at" unicode="@" horiz-adv-x="2019" 
 />
    <glyph glyph-name="A" unicode="A" horiz-adv-x="1280" 
d="M780 1984c8 0 26.667 -88 56 -264c2.66699 -6.66699 48 -230.667 136 -672l-8 -4h-744l-8 4c120 604 182.667 916 188 936h380zM572 940l0.000976562 -4c0 -14 -9.33301 -62 -28 -144c10 -5.33301 20.667 -8 32 -8h52c4 0 8 4 12 12l-28 140l8 4h368
c8 0 26.667 -88 56 -264c2.66699 -6.66699 48 -230.667 136 -672l-8 -4h-368c-5.33301 0 -21.333 64 -48 192c-25.333 138.667 -41.333 208 -48 208h-232c-6.66699 0 -33.334 -120 -80.001 -360c-6 -26.667 -11.333 -40 -16 -40h-372l-8 4l192 936h380z" />
    <glyph glyph-name="B" unicode="B" 
d="M8 1984h811.998c138.667 0 253.334 -84 344.001 -252c13.333 -44.667 20 -78 20 -100v-424c-30.667 -94 -56 -148.667 -76 -164h-1100c-5.33301 0 -8 2.66699 -8 8v924c0.666992 5.33301 3.33398 8 8.00098 8zM387.998 1588l-0.000976562 -391.999
c0.666992 -5.33301 3.33398 -8 8.00098 -8h392c5.33301 0 8 2.66699 8 8v392c0 5.33301 -2.66699 8 -8 8h-392c-5.33301 -0.666992 -8 -3.33398 -8 -8.00098zM7.99707 940.001h1100c23.333 -26 48.666 -78 75.999 -156v-404c0 -128.667 -70.667 -240.667 -212 -336
c-54 -29.333 -102 -44 -144 -44h-820c-5.33301 0 -8 2.66699 -8 8v924c0.666992 5.33301 3.33398 8 8.00098 8zM387.997 788.001l-0.000976562 -391.999c0.666992 -5.33301 3.33398 -8 8.00098 -8h392c5.33301 0 8 2.66699 8 8v392c0 5.33301 -2.66699 8 -8 8h-392
c-5.33301 -0.666992 -8 -3.33398 -8 -8.00098z" />
    <glyph glyph-name="C" unicode="C" 
d="M820 1984c141.333 0 256.001 -85.333 344.001 -256c13.333 -39.333 20 -71.333 20 -96v-228c-0.666992 -3.33301 -127.334 -67.333 -380.001 -192l-4 8v372c0 5.33301 -2.66699 8 -8 8h-400c-5.33301 -0.666992 -8 -3.33398 -8 -8.00098v-540
c0 -5.33301 -2.66699 -8 -8 -8h-368c-5.33301 0 -8 2.66699 -8 8v496c0 128.667 16 207.334 48 236.001c80.667 133.333 194 200 340 200h432zM8.00098 940l367.997 0.000976562c5.33301 -0.666992 8 -3.33398 8 -8.00098v-540c0.666992 -5.33301 3.33398 -8 8.00098 -8h400
c5.33301 0 8 2.66699 8 8v372l4 8c252.667 -124.667 379.334 -188.667 380.001 -192v-204c0 -132.667 -73.333 -244.667 -220 -336c-51.333 -26.667 -98 -40 -140 -40h-12c-8 -0 -12 13.333 -12 40h-12c-1.33301 -26.667 -5.33301 -40 -12 -40h-408
c-150.667 -0 -268 89.333 -352 268c-10.667 43.333 -16 74 -16 92v572c0.666992 5.33301 3.33398 8 8.00098 8z" />
    <glyph glyph-name="D" unicode="D" 
d="M8 1984l811.999 0.000976562c141.333 0 256 -85.333 344 -256c13.333 -39.333 20 -71.333 20 -96v-580c0 -5.33301 -2.66699 -8 -8 -8h-368c-5.33301 0 -8 2.66699 -8 8v540c0 5.33301 -2.66699 8 -8 8h-400c-5.33301 -0.666992 -8 -3.33398 -8 -8.00098v-540
c0 -5.33301 -2.66699 -8 -8 -8h-368c-5.33301 0 -8 2.66699 -8 8v924c0.666992 5.33301 3.33398 8 8.00098 8zM7.99902 940.001l367.997 0.00195312c5.33301 -0.666992 8 -3.33398 8 -8.00098v-540c0.666992 -5.33301 3.33398 -8 8.00098 -8h400c5.33301 0 8 2.66699 8 8
v540c0.666992 5.33301 3.33398 8 8.00098 8h368c5.33301 -0.666992 8 -3.33398 8 -8.00098v-552c0 -129.333 -70.667 -241.333 -212 -336c-54 -29.333 -102 -44 -144 -44h-820c-5.33301 0 -8 2.66699 -8 8v924c0.666992 5.33301 3.33398 8 8.00098 8z" />
    <glyph glyph-name="E" unicode="E" 
d="M8 1984l1168 0.000976562c5.33301 -0.666992 8 -3.33398 8 -8.00098v-368c0 -5.33301 -2.66699 -8 -8 -8h-784c-5.33301 -0.666992 -8 -3.33398 -8 -8.00098v-400c0.666992 -5.33301 3.33398 -8 8.00098 -8h772l8 -4c-43.333 -89.333 -67.333 -134.666 -72 -135.999
h-1092c-5.33301 0 -8 2.66699 -8 8v924c0.666992 5.33301 3.33398 8 8.00098 8zM7.99805 940.001l1036 0.000976562l8 -4c-43.333 -89.333 -67.333 -134.666 -72 -135.999h-588c-5.33301 -0.666992 -8 -3.33398 -8 -8.00098v-400c0.666992 -5.33301 3.33398 -8 8.00098 -8
h784c5.33301 -0.666992 8 -3.33398 8 -8.00098v-368c0 -5.33301 -2.66699 -8 -8 -8h-1168c-5.33301 0 -8 2.66699 -8 8v924c0.666992 5.33301 3.33398 8 8.00098 8z" />
    <glyph glyph-name="F" unicode="F" 
d="M8 1984l1168 0.000976562c5.33301 -0.666992 8 -3.33398 8 -8.00098v-368c0 -5.33301 -2.66699 -8 -8 -8h-784c-5.33301 -0.666992 -8 -3.33398 -8 -8.00098v-400c0.666992 -5.33301 3.33398 -8 8.00098 -8h772l8 -4c-43.333 -89.333 -67.333 -134.666 -72 -135.999
h-1092c-5.33301 0 -8 2.66699 -8 8v924c0.666992 5.33301 3.33398 8 8.00098 8zM7.99805 940.001h1036l8 -4c-43.333 -89.333 -67.333 -134.666 -72 -135.999h-588c-5.33301 -0.666992 -8 -3.33398 -8 -8.00098v-784c0 -5.33301 -2.66699 -8 -8 -8h-368
c-5.33301 0 -8 2.66699 -8 8v924c0.666992 5.33301 3.33398 8 8.00098 8z" />
    <glyph glyph-name="G" unicode="G" 
d="M820 1984c141.333 0 256 -85.333 344 -256c13.333 -39.333 20 -71.333 20 -96v-216l-4 -8c-202 102.667 -334 166.667 -396 192h-392c-5.33301 -0.666992 -8 -3.33398 -8 -8.00098v-540c0 -5.33301 -2.66699 -8 -8 -8h-368c-5.33301 0 -8 2.66699 -8 8v496
c0 128.667 16 207.334 48 236.001c80.667 133.333 194 200 340 200h432zM8 940l367.997 0.00195312c5.33301 -0.666992 8 -3.33398 8 -8.00098v-540c0.666992 -5.33301 3.33398 -8 8.00098 -8h400c5.33301 0 8 2.66699 8 8v180c0.666992 13.333 3.33398 20 8.00098 20
l-172 344l8 4h532c5.33301 -0.666992 8 -3.33398 8 -8.00098v-924c0 -5.33301 -2.66699 -8 -8 -8h-808c-140.667 0 -252.667 78.667 -336 236c-21.333 42.667 -32 88 -32 136v560c0.666992 5.33301 3.33398 8 8.00098 8z" />
    <glyph glyph-name="H" unicode="H" 
d="M4 1960c252.667 -124.667 379.331 -188.667 379.998 -192v-588c0.666992 -5.33301 3.33398 -8 8.00098 -8h400c5.33301 0 8 2.66699 8 8v584c0.666992 3.33301 127.334 67.333 380.001 192l4 -8v-908c0 -5.33301 -2.66699 -8 -8 -8h-1168c-5.33301 0 -8 2.66699 -8 8v912
zM7.99707 928l1168 0.00195312c5.33301 -0.666992 8 -3.33398 8 -8.00098v-912l-4 -8c-252.667 124.667 -379.334 188.667 -380.001 192v588c0 5.33301 -2.66699 8 -8 8h-400c-5.33301 -0.666992 -8 -3.33398 -8 -8.00098v-584
c-0.666992 -3.33301 -127.334 -67.333 -380.001 -192l-4 8v908c0.666992 5.33301 3.33398 8 8.00098 8z" />
    <glyph glyph-name="I" unicode="I" horiz-adv-x="884" 
d="M8 1984l767.999 0.00195312c5.33301 -0.666992 8 -3.33398 8 -8.00098v-368c0 -5.33301 -2.66699 -8 -8 -8h-184c-5.33301 -0.666992 -8 -3.33398 -8 -8.00098v-540c0 -5.33301 -2.66699 -8 -8 -8h-368c-5.33301 0 -8 2.66699 -8 8v540c0 5.33301 -2.66699 8 -8 8h-184
c-5.33301 0 -8 2.66699 -8 8v368c0.666992 5.33301 3.33398 8 8.00098 8zM207.999 940.002l367.997 0.00195312c5.33301 -0.666992 8 -3.33398 8 -8.00098v-540c0.666992 -5.33301 3.33398 -8 8.00098 -8h184c5.33301 -0.666992 8 -3.33398 8 -8.00098v-368
c0 -5.33301 -2.66699 -8 -8 -8h-768c-5.33301 0 -8 2.66699 -8 8v368c0.666992 5.33301 3.33398 8 8.00098 8h184c5.33301 0 8 2.66699 8 8v540c0.666992 5.33301 3.33398 8 8.00098 8z" />
    <glyph glyph-name="J" unicode="J" 
d="M420 1984h756c5.33301 -0.666992 8 -3.33398 8 -8.00098v-924c0 -5.33301 -2.66699 -8 -8 -8h-368c-5.33301 0 -8 2.66699 -8 8v540c0 5.33301 -2.66699 8 -8 8h-188c-3.33301 0.666992 -67.333 127.334 -192 380.001zM808 940l367.997 0.00195312
c5.33301 -0.666992 8 -3.33398 8 -8.00098v-552c0 -129.333 -70.667 -241.333 -212 -336c-54 -29.333 -102 -44 -144 -44h-460c-140.667 0 -256.667 85.333 -348 256c-13.333 45.333 -20 78.666 -20 99.999v224c0.666992 3.33301 127.334 67.333 380.001 192l4 -8v-372
c0.666992 -5.33301 3.33398 -8 8.00098 -8h400c5.33301 0 8 2.66699 8 8v540c0.666992 5.33301 3.33398 8 8.00098 8z" />
    <glyph glyph-name="K" unicode="K" horiz-adv-x="1280" 
d="M804 1984l368 0.000976562c5.33301 -0.666992 8 -3.33398 8 -8.00098l-376 -928l-8 -4h-364c-5.33301 0 -8 2.66699 -8 8l372 928zM4 1968c252.667 -124.667 379.333 -188.667 380 -192v-724c0 -5.33301 -2.66699 -8 -8 -8h-368c-5.33301 0 -8 2.66699 -8 8v908z
M7.99902 940.001l368 0.000976562c5.33301 -0.666992 8 -3.33398 8 -8.00098v-728c-0.666992 -3.33301 -127.334 -67.333 -380.001 -192l-4 8v912c0.666992 5.33301 3.33398 8 8.00098 8zM431.999 940.002h364c8.66699 -1.33301 40.667 -76 96 -224l288 -712l-8 -4h-368
c-8 0 -66.667 142.667 -176 428c-2.66699 0.666992 -70.667 170 -204 508z" />
    <glyph glyph-name="L" unicode="L" 
d="M4 1972c252.667 -124.667 379.333 -188.667 380 -192v-728c0 -5.33301 -2.66699 -8 -8 -8h-368c-5.33301 0 -8 2.66699 -8 8v912zM7.99902 940l367.998 0.00195312c5.33301 -0.666992 8 -3.33398 8 -8.00098v-540c0.666992 -5.33301 3.33398 -8 8.00098 -8h784
c5.33301 -0.666992 8 -3.33398 8 -8.00098v-368c0 -5.33301 -2.66699 -8 -8 -8h-1168c-5.33301 0 -8 2.66699 -8 8v924c0.666992 5.33301 3.33398 8 8.00098 8z" />
    <glyph glyph-name="M" unicode="M" horiz-adv-x="1684" 
d="M8 1984h371.998c12.667 -15.333 36.667 -90 72 -224c130.667 -424.667 201.334 -662 212.001 -712h-656c-5.33301 0 -8 2.66699 -8 8v920c0.666992 5.33301 3.33398 8 8.00098 8zM1576 1984c5.33301 -0.666992 8 -3.33301 8 -8v-920c0 -5.33301 -2.66699 -8 -8 -8h-656v4
c176 598 269.333 908.667 280 932h376zM7.99805 944.001l684.001 0.000976562c11.333 -13.333 42 -108 92 -284h8c10 13.333 42 108 96 284h688c5.33301 -0.666992 8 -3.33398 8 -8.00098v-912l-4 -8c-237.333 116 -365.333 180 -384 192v452h-12
c-122.667 -417.333 -189.334 -637.333 -200.001 -660h-380c-6 0.666992 -38 96.667 -96 288l-112 372h-12v-452c-0.666992 -3.33301 -127.334 -67.333 -380.001 -192l-4 8v912c0.666992 5.33301 3.33398 8 8.00098 8z" />
    <glyph glyph-name="N" unicode="N" horiz-adv-x="1084" 
d="M8 1984l371.999 0.000976562c12 -13.333 46.667 -124 104 -332c18.667 -50 52 -159.333 100 -328h12v460c2.66699 5.33301 130.667 70.666 384 195.999l4 -8v-916c0 -5.33301 -2.66699 -8 -8 -8h-968c-5.33301 0 -8 2.66699 -8 8v920
c0.666992 5.33301 3.33398 8 8.00098 8zM7.99902 944.001l968 0.000976562c5.33301 -0.666992 8 -3.33398 8 -8.00098v-928c0 -5.33301 -2.66699 -8 -8 -8h-372c-6 0.666992 -39.333 100.667 -100 300l-108 360h-12v-452c-0.666992 -3.33301 -127.334 -67.333 -380.001 -192
l-4 8v912c0.666992 5.33301 3.33398 8 8.00098 8z" />
    <glyph glyph-name="O" unicode="O" 
d="M820 1984c141.333 0 256 -85.332 344 -255.999c13.333 -39.333 20 -71.333 20 -96v-576c0 -5.33301 -2.66699 -8 -8 -8h-368c-5.33301 0 -8 2.66699 -8 8v536c0 5.33301 -2.66699 8 -8 8h-400c-5.33301 -0.666992 -8 -3.33398 -8 -8.00098v-536
c0 -5.33301 -2.66699 -8 -8 -8h-368c-5.33301 0 -8 2.66699 -8 8v492c0 130 16 208.667 48 236c80.667 133.333 194 200 340 200h432zM8 944.001l367.997 0.00195312c5.33301 -0.666992 8 -3.33398 8 -8.00098v-544c0.666992 -5.33301 3.33398 -8 8.00098 -8h400
c5.33301 0 8 2.66699 8 8v544c0.666992 5.33301 3.33398 8 8.00098 8h368c5.33301 -0.666992 8 -3.33398 8 -8.00098v-560c0 -132.667 -73.333 -244.667 -220 -336c-51.333 -26.667 -98 -40 -140 -40h-452c-144.667 0 -258 78.667 -340 236c-21.333 40.667 -32 86 -32 136
v564c0.666992 5.33301 3.33398 8 8.00098 8z" />
    <glyph glyph-name="P" unicode="P" 
d="M8 1968h811.999c141.333 0 256 -85.333 344 -256c13.333 -39.333 20 -71.333 20 -96v-440c0 -42 -9.33301 -90 -28 -144h-1148c-5.33301 0 -8 2.66699 -8 8v920c0.666992 5.33301 3.33398 8 8.00098 8zM387.999 1572l-0.000976562 -391.999
c0.666992 -5.33301 3.33398 -8 8.00098 -8h392c5.33301 0 8 2.66699 8 8v392c0 5.33301 -2.66699 8 -8 8h-392c-5.33301 -0.666992 -8 -3.33398 -8 -8.00098zM7.99805 928.001l1084 0.000976562v-4c-92.667 -93.333 -187.334 -140 -284.001 -140h-416
c-5.33301 -0.666992 -8 -3.33398 -8 -8.00098v-584c-4 -5.33301 -130.667 -69.333 -380 -192l-4 8v912c0.666992 5.33301 3.33398 8 8.00098 8z" />
    <glyph glyph-name="Q" unicode="Q" 
d="M820 1962c141.333 0 256 -85.332 344 -255.999c13.333 -39.333 20 -71.333 20 -96v-580c0 -5.33301 -2.66699 -8 -8 -8h-368c-5.33301 0 -8 2.66699 -8 8v540c0 5.33301 -2.66699 8 -8 8h-400c-5.33301 -0.666992 -8 -3.33398 -8 -8.00098v-540
c0 -5.33301 -2.66699 -8 -8 -8h-368c-5.33301 0 -8 2.66699 -8 8v496c0 130 16 208.667 48 236c80.667 133.333 194 200 340 200h432zM8 918.001l367.999 0.00195312c5.33301 -0.666992 8 -3.33398 8 -8.00098v-540c0.666992 -5.33301 3.33398 -8 8.00098 -8h400
c5.33301 0 8 2.66699 8 8v540c0.666992 5.33301 3.33398 8 8.00098 8h368c5.33301 -0.666992 8 -3.33398 8 -8.00098v-556c0 -132.667 -73.333 -244.667 -220 -336c-51.333 -26.667 -98 -40 -140 -40h-40v-196c-0.666992 -3.33301 -127.334 -67.333 -380.001 -192l-4 8v372
c0 5.33301 -2.66699 8 -8 8h-20c-142.667 0 -257.334 80 -344.001 240c-18.667 48 -28 88 -28 120v572c0.666992 5.33301 3.33398 8 8.00098 8z" />
    <glyph glyph-name="R" unicode="R" 
d="M8 1984h811.999c141.333 0 256 -85.333 344 -256c13.333 -39.333 20 -71.333 20 -96v-440c0 -42 -9.33301 -90 -28 -144h-1148c-5.33301 0 -8 2.66699 -8 8v920c0.666992 5.33301 3.33398 8 8.00098 8zM387.999 1588l-0.000976562 -391.999
c0.666992 -5.33301 3.33398 -8 8.00098 -8h392c5.33301 0 8 2.66699 8 8v392c0 5.33301 -2.66699 8 -8 8h-392c-5.33301 -0.666992 -8 -3.33398 -8 -8.00098zM7.99805 944.001h1084v-4c-93.333 -96 -194.666 -144 -303.999 -144v-4c0 -10 130.667 -272.667 392 -788l-8 -4
h-372c-69.333 127.333 -204 391.333 -404 792h-12v-584c-0.666992 -3.33301 -127.334 -67.333 -380.001 -192l-4 8v912c0.666992 5.33301 3.33398 8 8.00098 8z" />
    <glyph glyph-name="S" unicode="S" 
d="M428 1984l388 0.000976562c128 0 238.667 -73.333 332 -220c24 -50.667 36 -100 36 -148c-8 -12.667 -98.667 -62 -272 -148c-4.66699 0 -40.667 -17.333 -108 -52l-4 8v168c0 5.33301 -2.66699 8 -8 8h-400c-5.33301 -0.666992 -8 -3.33398 -8 -8.00098v-400
c0.666992 -5.33301 3.33398 -8 8.00098 -8h384c8 0 12 -13.333 12 -40h12c0 26.667 5.33301 40 16 40c98.667 0 188 -44 268 -132v-4h-1052c-10.667 0 -21.334 42.667 -32.001 128v416c0 177.333 94.667 305.333 284 384c39.333 5.33301 87.333 8 144 8zM92 944.001h1056
c10 0 22 -42.667 36 -128v-436c0 -130 -70.667 -242 -212 -336c-54 -29.333 -102 -44 -144 -44h-456c-143.333 0 -258 81.333 -344 244c-18.667 47.333 -28 91.333 -28 132v4c3.33301 12.667 130 78 380 196l4 -8v-176c0.666992 -5.33301 3.33398 -8 8.00098 -8h400
c5.33301 0 8 2.66699 8 8v400c0 5.33301 -2.66699 8 -8 8h-420c-90 0 -182 42.667 -276 128z" />
    <glyph glyph-name="T" unicode="T" 
d="M8 1984l1168 0.00195312c5.33301 -0.666992 8 -3.33398 8 -8.00098v-368c0 -5.33301 -2.66699 -8 -8 -8h-384c-5.33301 -0.666992 -8 -3.33398 -8 -8.00098v-540c0 -5.33301 -2.66699 -8 -8 -8h-368c-5.33301 0 -8 2.66699 -8 8v540c0 5.33301 -2.66699 8 -8 8h-384
c-5.33301 0 -8 2.66699 -8 8v368c0.666992 5.33301 3.33398 8 8.00098 8zM407.999 940.002l367.999 0.000976562c5.33301 -0.666992 8 -3.33398 8 -8.00098v-924c0 -5.33301 -2.66699 -8 -8 -8h-368c-5.33301 0 -8 2.66699 -8 8v924c0.666992 5.33301 3.33398 8 8.00098 8z
" />
    <glyph glyph-name="U" unicode="U" 
d="M1180 1976l3.99902 -7.99902v-916c0 -5.33301 -2.66699 -8 -8 -8h-368c-5.33301 0 -8 2.66699 -8 8v728c0.666992 3.33301 127.334 68.666 380.001 195.999zM3.99902 1968c252.667 -124.667 379.333 -188.667 380 -192v-724c0 -5.33301 -2.66699 -8 -8 -8h-368
c-5.33301 0 -8 2.66699 -8 8v908zM7.99805 940.001l367.997 0.00195312c5.33301 -0.666992 8 -3.33398 8 -8.00098v-540c0.666992 -5.33301 3.33398 -8 8.00098 -8h400c5.33301 0 8 2.66699 8 8v540c0.666992 5.33301 3.33398 8 8.00098 8h368
c5.33301 -0.666992 8 -3.33398 8 -8.00098v-552c-10 -89.333 -27.333 -152 -52 -188c-94 -128 -199.333 -192 -316 -192h-452c-125.333 0 -232 69.333 -320 208c-29.333 59.333 -44 110 -44 152v572c0.666992 5.33301 3.33398 8 8.00098 8z" />
    <glyph glyph-name="V" unicode="V" 
d="M8 1984h371.999c8 0 26.667 -88 56 -264c2.66699 -6.66699 48 -230.667 136 -672l-8 -4h-368c-7.33301 0 -24.666 80 -51.999 240c-5.33301 17.333 -53.333 249.333 -144 696zM1176 1984l8 -4l-192 -936h-372l-8 4l188 936h376zM215.999 940h751.999l8 -4l-192 -936h-380
c-7.33301 0 -24.666 78.667 -51.999 236l-144 700z" />
    <glyph glyph-name="W" unicode="W" horiz-adv-x="2084" 
d="M8 1984h371.999c8 0 26.667 -88 56 -264c2.66699 -6.66699 48 -230.667 136 -672l-8 -4h-368c-7.33301 0 -24.666 80 -51.999 240c-5.33301 17.333 -53.333 249.333 -144 696zM1180 1984c8 0 26.667 -88 56 -264c2.66699 -6.66699 48 -230.667 136 -672l-8 -4h-744l-8 4
c120 604 182.667 916 188 936h380zM1976 1984l8 -4l-192 -936h-372l-8 4l188 936h376zM215.999 940h751.999l8 -4l-192 -936h-380c-7.33301 0 -24.666 78.667 -51.999 236l-144 700zM1016 940h751.999l8 -4l-192 -936h-380c-7.33301 0 -24.666 78.667 -51.999 236l-144 700z
" />
    <glyph glyph-name="X" unicode="X" horiz-adv-x="1276" 
d="M8 1984h368c10.667 -5.33301 50.667 -100 120 -284c42.667 -99.333 70.667 -168.666 84 -207.999h12c101.333 254 169.333 418 204 492h372c5.33301 -0.666992 8 -3.33398 8 -8.00098l-376 -928l-8 -4h-408c-8 0 -40 74.667 -96 224l-288 712zM384 940h408
c8.66699 -1.33301 40.667 -76 96 -224l288 -712l-8 -4h-368c-10.667 5.33301 -50.667 100 -120 284c-37.333 86 -65.333 155.333 -84 208h-12c-120 -298.667 -188 -462.667 -204 -492h-372c-5.33301 0 -8 2.66699 -8 8l376 928z" />
    <glyph glyph-name="Y" unicode="Y" horiz-adv-x="1276" 
d="M8 1968h368c10.667 -5.33301 50.667 -100 120 -284c42.667 -99.333 70.667 -168.666 84 -207.999h12c101.333 254 169.333 418 204 492h372c5.33301 -0.666992 8 -3.33398 8 -8.00098l-376 -928l-8 -4h-408c-8 0 -40 74.667 -96 224l-288 712zM404 924l368 0.000976562
c5.33301 -0.666992 8 -3.33398 8 -8.00098v-724c-0.666992 -3.33301 -127.334 -67.333 -380.001 -192l-4 8v908c0.666992 5.33301 3.33398 8 8.00098 8z" />
    <glyph glyph-name="Z" unicode="Z" horiz-adv-x="1288" 
d="M20 1980l1160 -0.000976562c5.33301 -0.666992 8 -3.33398 8 -8.00098v-372c0 -10.667 -68 -114.667 -204 -312c-106.667 -161.333 -162.667 -242.666 -168 -243.999h-376v4l352 536v12h-588c-3.33301 0.666992 -67.333 127.334 -192 380.001zM372 939.999h372v-4
c-6 -11.333 -124.667 -190 -356 -536v-12h592c4.66699 -3.33301 68.667 -131.333 192 -384l-8 -4h-1156c-5.33301 0 -8 2.66699 -8 8v372c0 10 52 91.333 156 244c139.333 208.667 211.333 314 216 316z" />
    <glyph glyph-name="bracketleft" unicode="[" horiz-adv-x="758" 
 />
    <glyph glyph-name="backslash" unicode="\" horiz-adv-x="569" 
 />
    <glyph glyph-name="bracketright" unicode="]" horiz-adv-x="758" 
 />
    <glyph glyph-name="asciicircum" unicode="^" horiz-adv-x="1014" 
 />
    <glyph glyph-name="underscore" unicode="_" horiz-adv-x="1024" 
 />
    <glyph glyph-name="grave" unicode="`" horiz-adv-x="628" 
d="M164 2186l364 -364c-2 -5.33301 -56.667 -60 -164 -164l-364 364c2 5.33301 56.667 60 164 164z" />
    <glyph glyph-name="a" unicode="a" horiz-adv-x="1280" 
d="M780 1984c8 0 26.667 -88 56 -264c2.66699 -6.66699 48 -230.667 136 -672l-8 -4h-744l-8 4c120 604 182.667 916 188 936h380zM572 940l0.000976562 -4c0 -14 -9.33301 -62 -28 -144c10 -5.33301 20.667 -8 32 -8h52c4 0 8 4 12 12l-28 140l8 4h368
c8 0 26.667 -88 56 -264c2.66699 -6.66699 48 -230.667 136 -672l-8 -4h-368c-5.33301 0 -21.333 64 -48 192c-25.333 138.667 -41.333 208 -48 208h-232c-6.66699 0 -33.334 -120 -80.001 -360c-6 -26.667 -11.333 -40 -16 -40h-372l-8 4l192 936h380z" />
    <glyph glyph-name="b" unicode="b" 
d="M8 1984h811.998c138.667 0 253.334 -84 344.001 -252c13.333 -44.667 20 -78 20 -100v-424c-30.667 -94 -56 -148.667 -76 -164h-1100c-5.33301 0 -8 2.66699 -8 8v924c0.666992 5.33301 3.33398 8 8.00098 8zM387.998 1588l-0.000976562 -391.999
c0.666992 -5.33301 3.33398 -8 8.00098 -8h392c5.33301 0 8 2.66699 8 8v392c0 5.33301 -2.66699 8 -8 8h-392c-5.33301 -0.666992 -8 -3.33398 -8 -8.00098zM7.99707 940.001h1100c23.333 -26 48.666 -78 75.999 -156v-404c0 -128.667 -70.667 -240.667 -212 -336
c-54 -29.333 -102 -44 -144 -44h-820c-5.33301 0 -8 2.66699 -8 8v924c0.666992 5.33301 3.33398 8 8.00098 8zM387.997 788.001l-0.000976562 -391.999c0.666992 -5.33301 3.33398 -8 8.00098 -8h392c5.33301 0 8 2.66699 8 8v392c0 5.33301 -2.66699 8 -8 8h-392
c-5.33301 -0.666992 -8 -3.33398 -8 -8.00098z" />
    <glyph glyph-name="c" unicode="c" 
d="M820 1984c141.333 0 256.001 -85.333 344.001 -256c13.333 -39.333 20 -71.333 20 -96v-228c-0.666992 -3.33301 -127.334 -67.333 -380.001 -192l-4 8v372c0 5.33301 -2.66699 8 -8 8h-400c-5.33301 -0.666992 -8 -3.33398 -8 -8.00098v-540
c0 -5.33301 -2.66699 -8 -8 -8h-368c-5.33301 0 -8 2.66699 -8 8v496c0 128.667 16 207.334 48 236.001c80.667 133.333 194 200 340 200h432zM8.00098 940l367.997 0.000976562c5.33301 -0.666992 8 -3.33398 8 -8.00098v-540c0.666992 -5.33301 3.33398 -8 8.00098 -8h400
c5.33301 0 8 2.66699 8 8v372l4 8c252.667 -124.667 379.334 -188.667 380.001 -192v-204c0 -132.667 -73.333 -244.667 -220 -336c-51.333 -26.667 -98 -40 -140 -40h-12c-8 -0 -12 13.333 -12 40h-12c-1.33301 -26.667 -5.33301 -40 -12 -40h-408
c-150.667 -0 -268 89.333 -352 268c-10.667 43.333 -16 74 -16 92v572c0.666992 5.33301 3.33398 8 8.00098 8z" />
    <glyph glyph-name="d" unicode="d" 
d="M8 1984l811.999 0.000976562c141.333 0 256 -85.333 344 -256c13.333 -39.333 20 -71.333 20 -96v-580c0 -5.33301 -2.66699 -8 -8 -8h-368c-5.33301 0 -8 2.66699 -8 8v540c0 5.33301 -2.66699 8 -8 8h-400c-5.33301 -0.666992 -8 -3.33398 -8 -8.00098v-540
c0 -5.33301 -2.66699 -8 -8 -8h-368c-5.33301 0 -8 2.66699 -8 8v924c0.666992 5.33301 3.33398 8 8.00098 8zM7.99902 940.001l367.997 0.00195312c5.33301 -0.666992 8 -3.33398 8 -8.00098v-540c0.666992 -5.33301 3.33398 -8 8.00098 -8h400c5.33301 0 8 2.66699 8 8
v540c0.666992 5.33301 3.33398 8 8.00098 8h368c5.33301 -0.666992 8 -3.33398 8 -8.00098v-552c0 -129.333 -70.667 -241.333 -212 -336c-54 -29.333 -102 -44 -144 -44h-820c-5.33301 0 -8 2.66699 -8 8v924c0.666992 5.33301 3.33398 8 8.00098 8z" />
    <glyph glyph-name="e" unicode="e" 
d="M8 1984l1168 0.000976562c5.33301 -0.666992 8 -3.33398 8 -8.00098v-368c0 -5.33301 -2.66699 -8 -8 -8h-784c-5.33301 -0.666992 -8 -3.33398 -8 -8.00098v-400c0.666992 -5.33301 3.33398 -8 8.00098 -8h772l8 -4c-43.333 -89.333 -67.333 -134.666 -72 -135.999
h-1092c-5.33301 0 -8 2.66699 -8 8v924c0.666992 5.33301 3.33398 8 8.00098 8zM7.99805 940.001l1036 0.000976562l8 -4c-43.333 -89.333 -67.333 -134.666 -72 -135.999h-588c-5.33301 -0.666992 -8 -3.33398 -8 -8.00098v-400c0.666992 -5.33301 3.33398 -8 8.00098 -8
h784c5.33301 -0.666992 8 -3.33398 8 -8.00098v-368c0 -5.33301 -2.66699 -8 -8 -8h-1168c-5.33301 0 -8 2.66699 -8 8v924c0.666992 5.33301 3.33398 8 8.00098 8z" />
    <glyph glyph-name="f" unicode="f" 
d="M8 1984l1168 0.000976562c5.33301 -0.666992 8 -3.33398 8 -8.00098v-368c0 -5.33301 -2.66699 -8 -8 -8h-784c-5.33301 -0.666992 -8 -3.33398 -8 -8.00098v-400c0.666992 -5.33301 3.33398 -8 8.00098 -8h772l8 -4c-43.333 -89.333 -67.333 -134.666 -72 -135.999
h-1092c-5.33301 0 -8 2.66699 -8 8v924c0.666992 5.33301 3.33398 8 8.00098 8zM7.99805 940.001h1036l8 -4c-43.333 -89.333 -67.333 -134.666 -72 -135.999h-588c-5.33301 -0.666992 -8 -3.33398 -8 -8.00098v-784c0 -5.33301 -2.66699 -8 -8 -8h-368
c-5.33301 0 -8 2.66699 -8 8v924c0.666992 5.33301 3.33398 8 8.00098 8z" />
    <glyph glyph-name="g" unicode="g" 
d="M820 1984c141.333 0 256 -85.333 344 -256c13.333 -39.333 20 -71.333 20 -96v-216l-4 -8c-202 102.667 -334 166.667 -396 192h-392c-5.33301 -0.666992 -8 -3.33398 -8 -8.00098v-540c0 -5.33301 -2.66699 -8 -8 -8h-368c-5.33301 0 -8 2.66699 -8 8v496
c0 128.667 16 207.334 48 236.001c80.667 133.333 194 200 340 200h432zM8 940l367.997 0.00195312c5.33301 -0.666992 8 -3.33398 8 -8.00098v-540c0.666992 -5.33301 3.33398 -8 8.00098 -8h400c5.33301 0 8 2.66699 8 8v180c0.666992 13.333 3.33398 20 8.00098 20
l-172 344l8 4h532c5.33301 -0.666992 8 -3.33398 8 -8.00098v-924c0 -5.33301 -2.66699 -8 -8 -8h-808c-140.667 0 -252.667 78.667 -336 236c-21.333 42.667 -32 88 -32 136v560c0.666992 5.33301 3.33398 8 8.00098 8z" />
    <glyph glyph-name="h" unicode="h" 
d="M4 1960c252.667 -124.667 379.331 -188.667 379.998 -192v-588c0.666992 -5.33301 3.33398 -8 8.00098 -8h400c5.33301 0 8 2.66699 8 8v584c0.666992 3.33301 127.334 67.333 380.001 192l4 -8v-908c0 -5.33301 -2.66699 -8 -8 -8h-1168c-5.33301 0 -8 2.66699 -8 8v912
zM7.99707 928l1168 0.00195312c5.33301 -0.666992 8 -3.33398 8 -8.00098v-912l-4 -8c-252.667 124.667 -379.334 188.667 -380.001 192v588c0 5.33301 -2.66699 8 -8 8h-400c-5.33301 -0.666992 -8 -3.33398 -8 -8.00098v-584
c-0.666992 -3.33301 -127.334 -67.333 -380.001 -192l-4 8v908c0.666992 5.33301 3.33398 8 8.00098 8z" />
    <glyph glyph-name="i" unicode="i" horiz-adv-x="884" 
d="M8 1984l767.999 0.00195312c5.33301 -0.666992 8 -3.33398 8 -8.00098v-368c0 -5.33301 -2.66699 -8 -8 -8h-184c-5.33301 -0.666992 -8 -3.33398 -8 -8.00098v-540c0 -5.33301 -2.66699 -8 -8 -8h-368c-5.33301 0 -8 2.66699 -8 8v540c0 5.33301 -2.66699 8 -8 8h-184
c-5.33301 0 -8 2.66699 -8 8v368c0.666992 5.33301 3.33398 8 8.00098 8zM207.999 940.002l367.997 0.00195312c5.33301 -0.666992 8 -3.33398 8 -8.00098v-540c0.666992 -5.33301 3.33398 -8 8.00098 -8h184c5.33301 -0.666992 8 -3.33398 8 -8.00098v-368
c0 -5.33301 -2.66699 -8 -8 -8h-768c-5.33301 0 -8 2.66699 -8 8v368c0.666992 5.33301 3.33398 8 8.00098 8h184c5.33301 0 8 2.66699 8 8v540c0.666992 5.33301 3.33398 8 8.00098 8z" />
    <glyph glyph-name="j" unicode="j" 
d="M420 1984h756c5.33301 -0.666992 8 -3.33398 8 -8.00098v-924c0 -5.33301 -2.66699 -8 -8 -8h-368c-5.33301 0 -8 2.66699 -8 8v540c0 5.33301 -2.66699 8 -8 8h-188c-3.33301 0.666992 -67.333 127.334 -192 380.001zM808 940l367.997 0.00195312
c5.33301 -0.666992 8 -3.33398 8 -8.00098v-552c0 -129.333 -70.667 -241.333 -212 -336c-54 -29.333 -102 -44 -144 -44h-460c-140.667 0 -256.667 85.333 -348 256c-13.333 45.333 -20 78.666 -20 99.999v224c0.666992 3.33301 127.334 67.333 380.001 192l4 -8v-372
c0.666992 -5.33301 3.33398 -8 8.00098 -8h400c5.33301 0 8 2.66699 8 8v540c0.666992 5.33301 3.33398 8 8.00098 8z" />
    <glyph glyph-name="k" unicode="k" horiz-adv-x="1280" 
d="M804 1984l368 0.000976562c5.33301 -0.666992 8 -3.33398 8 -8.00098l-376 -928l-8 -4h-364c-5.33301 0 -8 2.66699 -8 8l372 928zM4 1968c252.667 -124.667 379.333 -188.667 380 -192v-724c0 -5.33301 -2.66699 -8 -8 -8h-368c-5.33301 0 -8 2.66699 -8 8v908z
M7.99902 940.001l368 0.000976562c5.33301 -0.666992 8 -3.33398 8 -8.00098v-728c-0.666992 -3.33301 -127.334 -67.333 -380.001 -192l-4 8v912c0.666992 5.33301 3.33398 8 8.00098 8zM431.999 940.002h364c8.66699 -1.33301 40.667 -76 96 -224l288 -712l-8 -4h-368
c-8 0 -66.667 142.667 -176 428c-2.66699 0.666992 -70.667 170 -204 508z" />
    <glyph glyph-name="l" unicode="l" 
d="M4 1972c252.667 -124.667 379.333 -188.667 380 -192v-728c0 -5.33301 -2.66699 -8 -8 -8h-368c-5.33301 0 -8 2.66699 -8 8v912zM7.99902 940l367.998 0.00195312c5.33301 -0.666992 8 -3.33398 8 -8.00098v-540c0.666992 -5.33301 3.33398 -8 8.00098 -8h784
c5.33301 -0.666992 8 -3.33398 8 -8.00098v-368c0 -5.33301 -2.66699 -8 -8 -8h-1168c-5.33301 0 -8 2.66699 -8 8v924c0.666992 5.33301 3.33398 8 8.00098 8z" />
    <glyph glyph-name="m" unicode="m" horiz-adv-x="1684" 
d="M8 1984h371.998c12.667 -15.333 36.667 -90 72 -224c130.667 -424.667 201.334 -662 212.001 -712h-656c-5.33301 0 -8 2.66699 -8 8v920c0.666992 5.33301 3.33398 8 8.00098 8zM1576 1984c5.33301 -0.666992 8 -3.33301 8 -8v-920c0 -5.33301 -2.66699 -8 -8 -8h-656v4
c176 598 269.333 908.667 280 932h376zM7.99805 944.001l684.001 0.000976562c11.333 -13.333 42 -108 92 -284h8c10 13.333 42 108 96 284h688c5.33301 -0.666992 8 -3.33398 8 -8.00098v-912l-4 -8c-237.333 116 -365.333 180 -384 192v452h-12
c-122.667 -417.333 -189.334 -637.333 -200.001 -660h-380c-6 0.666992 -38 96.667 -96 288l-112 372h-12v-452c-0.666992 -3.33301 -127.334 -67.333 -380.001 -192l-4 8v912c0.666992 5.33301 3.33398 8 8.00098 8z" />
    <glyph glyph-name="n" unicode="n" horiz-adv-x="1084" 
d="M8 1984l371.999 0.000976562c12 -13.333 46.667 -124 104 -332c18.667 -50 52 -159.333 100 -328h12v460c2.66699 5.33301 130.667 70.666 384 195.999l4 -8v-916c0 -5.33301 -2.66699 -8 -8 -8h-968c-5.33301 0 -8 2.66699 -8 8v920
c0.666992 5.33301 3.33398 8 8.00098 8zM7.99902 944.001l968 0.000976562c5.33301 -0.666992 8 -3.33398 8 -8.00098v-928c0 -5.33301 -2.66699 -8 -8 -8h-372c-6 0.666992 -39.333 100.667 -100 300l-108 360h-12v-452c-0.666992 -3.33301 -127.334 -67.333 -380.001 -192
l-4 8v912c0.666992 5.33301 3.33398 8 8.00098 8z" />
    <glyph glyph-name="o" unicode="o" 
d="M820 1984c141.333 0 256 -85.332 344 -255.999c13.333 -39.333 20 -71.333 20 -96v-576c0 -5.33301 -2.66699 -8 -8 -8h-368c-5.33301 0 -8 2.66699 -8 8v536c0 5.33301 -2.66699 8 -8 8h-400c-5.33301 -0.666992 -8 -3.33398 -8 -8.00098v-536
c0 -5.33301 -2.66699 -8 -8 -8h-368c-5.33301 0 -8 2.66699 -8 8v492c0 130 16 208.667 48 236c80.667 133.333 194 200 340 200h432zM8 944.001l367.997 0.00195312c5.33301 -0.666992 8 -3.33398 8 -8.00098v-544c0.666992 -5.33301 3.33398 -8 8.00098 -8h400
c5.33301 0 8 2.66699 8 8v544c0.666992 5.33301 3.33398 8 8.00098 8h368c5.33301 -0.666992 8 -3.33398 8 -8.00098v-560c0 -132.667 -73.333 -244.667 -220 -336c-51.333 -26.667 -98 -40 -140 -40h-452c-144.667 0 -258 78.667 -340 236c-21.333 40.667 -32 86 -32 136
v564c0.666992 5.33301 3.33398 8 8.00098 8z" />
    <glyph glyph-name="p" unicode="p" 
d="M8 1968h811.999c141.333 0 256 -85.333 344 -256c13.333 -39.333 20 -71.333 20 -96v-440c0 -42 -9.33301 -90 -28 -144h-1148c-5.33301 0 -8 2.66699 -8 8v920c0.666992 5.33301 3.33398 8 8.00098 8zM387.999 1572l-0.000976562 -391.999
c0.666992 -5.33301 3.33398 -8 8.00098 -8h392c5.33301 0 8 2.66699 8 8v392c0 5.33301 -2.66699 8 -8 8h-392c-5.33301 -0.666992 -8 -3.33398 -8 -8.00098zM7.99805 928.001l1084 0.000976562v-4c-92.667 -93.333 -187.334 -140 -284.001 -140h-416
c-5.33301 -0.666992 -8 -3.33398 -8 -8.00098v-584c-4 -5.33301 -130.667 -69.333 -380 -192l-4 8v912c0.666992 5.33301 3.33398 8 8.00098 8z" />
    <glyph glyph-name="q" unicode="q" 
d="M820 1962c141.333 0 256 -85.332 344 -255.999c13.333 -39.333 20 -71.333 20 -96v-580c0 -5.33301 -2.66699 -8 -8 -8h-368c-5.33301 0 -8 2.66699 -8 8v540c0 5.33301 -2.66699 8 -8 8h-400c-5.33301 -0.666992 -8 -3.33398 -8 -8.00098v-540
c0 -5.33301 -2.66699 -8 -8 -8h-368c-5.33301 0 -8 2.66699 -8 8v496c0 130 16 208.667 48 236c80.667 133.333 194 200 340 200h432zM8 918.001l367.999 0.00195312c5.33301 -0.666992 8 -3.33398 8 -8.00098v-540c0.666992 -5.33301 3.33398 -8 8.00098 -8h400
c5.33301 0 8 2.66699 8 8v540c0.666992 5.33301 3.33398 8 8.00098 8h368c5.33301 -0.666992 8 -3.33398 8 -8.00098v-556c0 -132.667 -73.333 -244.667 -220 -336c-51.333 -26.667 -98 -40 -140 -40h-40v-196c-0.666992 -3.33301 -127.334 -67.333 -380.001 -192l-4 8v372
c0 5.33301 -2.66699 8 -8 8h-20c-142.667 0 -257.334 80 -344.001 240c-18.667 48 -28 88 -28 120v572c0.666992 5.33301 3.33398 8 8.00098 8z" />
    <glyph glyph-name="r" unicode="r" 
d="M8 1984h811.999c141.333 0 256 -85.333 344 -256c13.333 -39.333 20 -71.333 20 -96v-440c0 -42 -9.33301 -90 -28 -144h-1148c-5.33301 0 -8 2.66699 -8 8v920c0.666992 5.33301 3.33398 8 8.00098 8zM387.999 1588l-0.000976562 -391.999
c0.666992 -5.33301 3.33398 -8 8.00098 -8h392c5.33301 0 8 2.66699 8 8v392c0 5.33301 -2.66699 8 -8 8h-392c-5.33301 -0.666992 -8 -3.33398 -8 -8.00098zM7.99805 944.001h1084v-4c-93.333 -96 -194.666 -144 -303.999 -144v-4c0 -10 130.667 -272.667 392 -788l-8 -4
h-372c-69.333 127.333 -204 391.333 -404 792h-12v-584c-0.666992 -3.33301 -127.334 -67.333 -380.001 -192l-4 8v912c0.666992 5.33301 3.33398 8 8.00098 8z" />
    <glyph glyph-name="s" unicode="s" 
d="M428 1984l388 0.000976562c128 0 238.667 -73.333 332 -220c24 -50.667 36 -100 36 -148c-8 -12.667 -98.667 -62 -272 -148c-4.66699 0 -40.667 -17.333 -108 -52l-4 8v168c0 5.33301 -2.66699 8 -8 8h-400c-5.33301 -0.666992 -8 -3.33398 -8 -8.00098v-400
c0.666992 -5.33301 3.33398 -8 8.00098 -8h384c8 0 12 -13.333 12 -40h12c0 26.667 5.33301 40 16 40c98.667 0 188 -44 268 -132v-4h-1052c-10.667 0 -21.334 42.667 -32.001 128v416c0 177.333 94.667 305.333 284 384c39.333 5.33301 87.333 8 144 8zM92 944.001h1056
c10 0 22 -42.667 36 -128v-436c0 -130 -70.667 -242 -212 -336c-54 -29.333 -102 -44 -144 -44h-456c-143.333 0 -258 81.333 -344 244c-18.667 47.333 -28 91.333 -28 132v4c3.33301 12.667 130 78 380 196l4 -8v-176c0.666992 -5.33301 3.33398 -8 8.00098 -8h400
c5.33301 0 8 2.66699 8 8v400c0 5.33301 -2.66699 8 -8 8h-420c-90 0 -182 42.667 -276 128z" />
    <glyph glyph-name="t" unicode="t" 
d="M8 1984l1168 0.00195312c5.33301 -0.666992 8 -3.33398 8 -8.00098v-368c0 -5.33301 -2.66699 -8 -8 -8h-384c-5.33301 -0.666992 -8 -3.33398 -8 -8.00098v-540c0 -5.33301 -2.66699 -8 -8 -8h-368c-5.33301 0 -8 2.66699 -8 8v540c0 5.33301 -2.66699 8 -8 8h-384
c-5.33301 0 -8 2.66699 -8 8v368c0.666992 5.33301 3.33398 8 8.00098 8zM407.999 940.002l367.999 0.000976562c5.33301 -0.666992 8 -3.33398 8 -8.00098v-924c0 -5.33301 -2.66699 -8 -8 -8h-368c-5.33301 0 -8 2.66699 -8 8v924c0.666992 5.33301 3.33398 8 8.00098 8z
" />
    <glyph glyph-name="u" unicode="u" 
d="M1180 1976l3.99902 -7.99902v-916c0 -5.33301 -2.66699 -8 -8 -8h-368c-5.33301 0 -8 2.66699 -8 8v728c0.666992 3.33301 127.334 68.666 380.001 195.999zM3.99902 1968c252.667 -124.667 379.333 -188.667 380 -192v-724c0 -5.33301 -2.66699 -8 -8 -8h-368
c-5.33301 0 -8 2.66699 -8 8v908zM7.99805 940.001l367.997 0.00195312c5.33301 -0.666992 8 -3.33398 8 -8.00098v-540c0.666992 -5.33301 3.33398 -8 8.00098 -8h400c5.33301 0 8 2.66699 8 8v540c0.666992 5.33301 3.33398 8 8.00098 8h368
c5.33301 -0.666992 8 -3.33398 8 -8.00098v-552c-10 -89.333 -27.333 -152 -52 -188c-94 -128 -199.333 -192 -316 -192h-452c-125.333 0 -232 69.333 -320 208c-29.333 59.333 -44 110 -44 152v572c0.666992 5.33301 3.33398 8 8.00098 8z" />
    <glyph glyph-name="v" unicode="v" 
d="M8 1984h371.999c8 0 26.667 -88 56 -264c2.66699 -6.66699 48 -230.667 136 -672l-8 -4h-368c-7.33301 0 -24.666 80 -51.999 240c-5.33301 17.333 -53.333 249.333 -144 696zM1176 1984l8 -4l-192 -936h-372l-8 4l188 936h376zM215.999 940h751.999l8 -4l-192 -936h-380
c-7.33301 0 -24.666 78.667 -51.999 236l-144 700z" />
    <glyph glyph-name="w" unicode="w" horiz-adv-x="2084" 
d="M8 1984h371.999c8 0 26.667 -88 56 -264c2.66699 -6.66699 48 -230.667 136 -672l-8 -4h-368c-7.33301 0 -24.666 80 -51.999 240c-5.33301 17.333 -53.333 249.333 -144 696zM1180 1984c8 0 26.667 -88 56 -264c2.66699 -6.66699 48 -230.667 136 -672l-8 -4h-744l-8 4
c120 604 182.667 916 188 936h380zM1976 1984l8 -4l-192 -936h-372l-8 4l188 936h376zM215.999 940h751.999l8 -4l-192 -936h-380c-7.33301 0 -24.666 78.667 -51.999 236l-144 700zM1016 940h751.999l8 -4l-192 -936h-380c-7.33301 0 -24.666 78.667 -51.999 236l-144 700z
" />
    <glyph glyph-name="x" unicode="x" horiz-adv-x="1276" 
d="M8 1984h368c10.667 -5.33301 50.667 -100 120 -284c42.667 -99.333 70.667 -168.666 84 -207.999h12c101.333 254 169.333 418 204 492h372c5.33301 -0.666992 8 -3.33398 8 -8.00098l-376 -928l-8 -4h-408c-8 0 -40 74.667 -96 224l-288 712zM384 940h408
c8.66699 -1.33301 40.667 -76 96 -224l288 -712l-8 -4h-368c-10.667 5.33301 -50.667 100 -120 284c-37.333 86 -65.333 155.333 -84 208h-12c-120 -298.667 -188 -462.667 -204 -492h-372c-5.33301 0 -8 2.66699 -8 8l376 928z" />
    <glyph glyph-name="y" unicode="y" horiz-adv-x="1276" 
d="M8 1968h368c10.667 -5.33301 50.667 -100 120 -284c42.667 -99.333 70.667 -168.666 84 -207.999h12c101.333 254 169.333 418 204 492h372c5.33301 -0.666992 8 -3.33398 8 -8.00098l-376 -928l-8 -4h-408c-8 0 -40 74.667 -96 224l-288 712zM404 924l368 0.000976562
c5.33301 -0.666992 8 -3.33398 8 -8.00098v-724c-0.666992 -3.33301 -127.334 -67.333 -380.001 -192l-4 8v908c0.666992 5.33301 3.33398 8 8.00098 8z" />
    <glyph glyph-name="z" unicode="z" horiz-adv-x="1288" 
d="M20 1980l1160 -0.000976562c5.33301 -0.666992 8 -3.33398 8 -8.00098v-372c0 -10.667 -68 -114.667 -204 -312c-106.667 -161.333 -162.667 -242.666 -168 -243.999h-376v4l352 536v12h-588c-3.33301 0.666992 -67.333 127.334 -192 380.001zM372 939.999h372v-4
c-6 -11.333 -124.667 -190 -356 -536v-12h592c4.66699 -3.33301 68.667 -131.333 192 -384l-8 -4h-1156c-5.33301 0 -8 2.66699 -8 8v372c0 10 52 91.333 156 244c139.333 208.667 211.333 314 216 316z" />
    <glyph glyph-name="braceleft" unicode="{" horiz-adv-x="1014" 
 />
    <glyph glyph-name="bar" unicode="|" horiz-adv-x="1014" 
 />
    <glyph glyph-name="braceright" unicode="}" horiz-adv-x="1014" 
 />
    <glyph glyph-name="asciitilde" unicode="~" horiz-adv-x="1100" 
d="M200 1296l191.999 0.000976562c98 0 164.667 -46.667 200 -140c5.33301 -20 8 -38.667 8 -56v-4h200v192c0.666992 5.33301 3.33398 8 8.00098 8h184c5.33301 -0.666992 8 -3.33398 8 -8.00098v-196c0 -103.333 -60 -168.666 -180 -195.999h-224c-92 0 -156 52 -192 156
c-2.66699 18 -4 32.667 -4 44h-200v-192c0 -5.33301 -2.66699 -8 -8 -8h-184c-5.33301 0 -8 2.66699 -8 8v192c0 95.333 52 160.666 156 195.999c18 2.66699 32.667 4 44 4z" />
    <glyph glyph-name="exclamdown" unicode="&#xa1;" horiz-adv-x="672" 
 />
    <glyph glyph-name="cent" unicode="&#xa2;" horiz-adv-x="1139" 
 />
    <glyph glyph-name="sterling" unicode="&#xa3;" horiz-adv-x="1014" 
 />
    <glyph glyph-name="currency" unicode="&#xa4;" horiz-adv-x="1014" 
 />
    <glyph glyph-name="yen" unicode="&#xa5;" horiz-adv-x="1262" 
 />
    <glyph glyph-name="brokenbar" unicode="&#xa6;" horiz-adv-x="1014" 
 />
    <glyph glyph-name="section" unicode="&#xa7;" horiz-adv-x="1014" 
 />
    <glyph glyph-name="dieresis" unicode="&#xa8;" horiz-adv-x="906" 
d="M172 2010c88 0 148.002 -49.332 180.002 -147.999c0 -6.66699 1.33301 -17.334 4 -32.001c0 -84 -49.333 -142.667 -148 -176c-6.66699 0 -17.334 -1.33301 -32.001 -4c-84 0 -142.667 49.333 -176 148v44c0 77.333 48 132 144 164c15.333 0 24.666 1.33301 27.999 4z
M622.002 2010c88 0 148.002 -49.332 180.002 -147.999c0 -6.66699 1.33301 -17.334 4 -32.001c0 -84 -49.333 -142.667 -148 -176c-6.66699 0 -17.334 -1.33301 -32.001 -4c-84 0 -142.667 49.333 -176 148v44c0 77.333 48 132 144 164c15.333 0 24.666 1.33301 27.999 4z
" />
    <glyph glyph-name="copyright" unicode="&#xa9;" horiz-adv-x="1674" 
 />
    <glyph glyph-name="ordfeminine" unicode="&#xaa;" horiz-adv-x="648" 
 />
    <glyph glyph-name="guillemotleft" unicode="&#xab;" horiz-adv-x="944" 
 />
    <glyph glyph-name="logicalnot" unicode="&#xac;" horiz-adv-x="1014" 
 />
    <glyph glyph-name="registered" unicode="&#xae;" horiz-adv-x="1674" 
 />
    <glyph glyph-name="macron" unicode="&#xaf;" horiz-adv-x="670" 
 />
    <glyph glyph-name="degree" unicode="&#xb0;" horiz-adv-x="674" 
 />
    <glyph glyph-name="plusminus" unicode="&#xb1;" horiz-adv-x="1014" 
 />
    <glyph glyph-name="uni00B2" unicode="&#xb2;" horiz-adv-x="1014" 
 />
    <glyph glyph-name="uni00B3" unicode="&#xb3;" horiz-adv-x="1014" 
 />
    <glyph glyph-name="acute" unicode="&#xb4;" horiz-adv-x="628" 
d="M364 2181c5.33301 -2 60 -56.667 164 -164l-364 -364c-5.33301 2 -60 56.667 -164 164z" />
    <glyph glyph-name="mu" unicode="&#xb5;" horiz-adv-x="1180" 
 />
    <glyph glyph-name="paragraph" unicode="&#xb6;" horiz-adv-x="1024" 
 />
    <glyph glyph-name="periodcentered" unicode="&#xb7;" horiz-adv-x="508" 
 />
    <glyph glyph-name="periodcentered" unicode="&#x2219;" horiz-adv-x="508" 
 />
    <glyph glyph-name="cedilla" unicode="&#xb8;" horiz-adv-x="1024" 
 />
    <glyph glyph-name="uni00B9" unicode="&#xb9;" horiz-adv-x="1014" 
 />
    <glyph glyph-name="ordmasculine" unicode="&#xba;" horiz-adv-x="718" 
 />
    <glyph glyph-name="guillemotright" unicode="&#xbb;" horiz-adv-x="944" 
 />
    <glyph glyph-name="onequarter" unicode="&#xbc;" horiz-adv-x="1708" 
 />
    <glyph glyph-name="onehalf" unicode="&#xbd;" horiz-adv-x="1964" 
 />
    <glyph glyph-name="threequarters" unicode="&#xbe;" horiz-adv-x="1708" 
 />
    <glyph glyph-name="questiondown" unicode="&#xbf;" horiz-adv-x="748" 
 />
    <glyph glyph-name="Agrave" unicode="&#xc0;" horiz-adv-x="1280" 
d="M780 1984c8 0 26.667 -88 56 -264c2.66699 -6.66699 48 -230.667 136 -672l-8 -4h-744l-8 4c120 604 182.667 916 188 936h380zM572 940l0.000976562 -4c0 -14 -9.33301 -62 -28 -144c10 -5.33301 20.667 -8 32 -8h52c4 0 8 4 12 12l-28 140l8 4h368
c8 0 26.667 -88 56 -264c2.66699 -6.66699 48 -230.667 136 -672l-8 -4h-368c-5.33301 0 -21.333 64 -48 192c-25.333 138.667 -41.333 208 -48 208h-232c-6.66699 0 -33.334 -120 -80.001 -360c-6 -26.667 -11.333 -40 -16 -40h-372l-8 4l192 936h380zM402.001 2596
l364 -364c-2 -5.33301 -56.667 -60 -164 -164l-364 364c2 5.33301 56.667 60 164 164z" />
    <glyph glyph-name="Aacute" unicode="&#xc1;" horiz-adv-x="1280" 
d="M780 1984c8 0 26.667 -88 56 -264c2.66699 -6.66699 48 -230.667 136 -672l-8 -4h-744l-8 4c120 604 182.667 916 188 936h380zM572 940l0.000976562 -4c0 -14 -9.33301 -62 -28 -144c10 -5.33301 20.667 -8 32 -8h52c4 0 8 4 12 12l-28 140l8 4h368
c8 0 26.667 -88 56 -264c2.66699 -6.66699 48 -230.667 136 -672l-8 -4h-368c-5.33301 0 -21.333 64 -48 192c-25.333 138.667 -41.333 208 -48 208h-232c-6.66699 0 -33.334 -120 -80.001 -360c-6 -26.667 -11.333 -40 -16 -40h-372l-8 4l192 936h380zM778.001 2591
c5.33301 -2 60 -56.667 164 -164l-364 -364c-5.33301 2 -60 56.667 -164 164z" />
    <glyph glyph-name="Acircumflex" unicode="&#xc2;" horiz-adv-x="1280" 
d="M780 1984c8 0 26.667 -88 56 -264c2.66699 -6.66699 48 -230.667 136 -672l-8 -4h-744l-8 4c120 604 182.667 916 188 936h380zM572 940l0.000976562 -4c0 -14 -9.33301 -62 -28 -144c10 -5.33301 20.667 -8 32 -8h52c4 0 8 4 12 12l-28 140l8 4h368
c8 0 26.667 -88 56 -264c2.66699 -6.66699 48 -230.667 136 -672l-8 -4h-368c-5.33301 0 -21.333 64 -48 192c-25.333 138.667 -41.333 208 -48 208h-232c-6.66699 0 -33.334 -120 -80.001 -360c-6 -26.667 -11.333 -40 -16 -40h-372l-8 4l192 936h380zM590.001 2591
c5.33301 -2 60 -56.667 164 -164l-364 -364c-5.33301 2 -60 56.667 -164 164zM790.001 2391c5.33301 -2 60 -56.667 164 -164c-2 -5.33301 -56.667 -60 -164 -164c-5.33301 2 -60 56.667 -164 164c2 5.33301 56.667 60 164 164z" />
    <glyph glyph-name="Atilde" unicode="&#xc3;" horiz-adv-x="1280" 
d="M780 1984c8 0 26.667 -88 56 -264c2.66699 -6.66699 48 -230.667 136 -672l-8 -4h-744l-8 4c120 604 182.667 916 188 936h380zM572 940l0.000976562 -4c0 -14 -9.33301 -62 -28 -144c10 -5.33301 20.667 -8 32 -8h52c4 0 8 4 12 12l-28 140l8 4h368
c8 0 26.667 -88 56 -264c2.66699 -6.66699 48 -230.667 136 -672l-8 -4h-368c-5.33301 0 -21.333 64 -48 192c-25.333 138.667 -41.333 208 -48 208h-232c-6.66699 0 -33.334 -120 -80.001 -360c-6 -26.667 -11.333 -40 -16 -40h-372l-8 4l192 936h380zM290.001 2464
h191.999c98 0 164.667 -46.667 200 -140c5.33301 -20 8 -38.667 8 -56v-4h200v192c0.666992 5.33301 3.33398 8 8.00098 8h184c5.33301 -0.666992 8 -3.33398 8 -8v-196c0 -103.333 -60 -168.666 -180 -196h-224c-92 0 -156 52 -192 156c-2.66699 18 -4 32.667 -4 44h-200
v-192c0 -5.33301 -2.66699 -8 -8 -8h-184c-5.33301 0 -8 2.66699 -8 8v192c0 95.333 52 160.666 156 196c18 2.66699 32.667 4 44 4z" />
    <glyph glyph-name="Adieresis" unicode="&#xc4;" horiz-adv-x="1280" 
d="M780 1984c8 0 26.667 -88 56 -264c2.66699 -6.66699 48 -230.667 136 -672l-8 -4h-744l-8 4c120 604 182.667 916 188 936h380zM572 940l0.000976562 -4c0 -14 -9.33301 -62 -28 -144c10 -5.33301 20.667 -8 32 -8h52c4 0 8 4 12 12l-28 140l8 4h368
c8 0 26.667 -88 56 -264c2.66699 -6.66699 48 -230.667 136 -672l-8 -4h-368c-5.33301 0 -21.333 64 -48 192c-25.333 138.667 -41.333 208 -48 208h-232c-6.66699 0 -33.334 -120 -80.001 -360c-6 -26.667 -11.333 -40 -16 -40h-372l-8 4l192 936h380zM374.001 2420
c88 0 148.002 -49.333 180.002 -148c0 -6.66699 1.33301 -17.334 4 -32c0 -84 -49.333 -142.667 -148 -176c-6.66699 0 -17.334 -1.33301 -32.001 -4c-84 0 -142.667 49.333 -176 148v44c0 77.333 48 132 144 164c15.333 0 24.666 1.33301 27.999 4zM824.003 2420
c88 0 148.002 -49.333 180.002 -148c0 -6.66699 1.33301 -17.334 4 -32c0 -84 -49.333 -142.667 -148 -176c-6.66699 0 -17.334 -1.33301 -32.001 -4c-84 0 -142.667 49.333 -176 148v44c0 77.333 48 132 144 164c15.333 0 24.666 1.33301 27.999 4z" />
    <glyph glyph-name="Aring" unicode="&#xc5;" horiz-adv-x="1280" 
d="M572 940l0.000976562 -4c0 -14 -9.33301 -62 -28 -144c10 -5.33301 20.667 -8 32 -8h52c4 0 8 4 12 12l-28 140l8 4h368c8 0 26.667 -88 56 -264c2.66699 -6.66699 48 -230.667 136 -672l-8 -4h-368c-5.33301 0 -21.333 64 -48 192c-25.333 138.667 -41.333 208 -48 208
h-232c-6.66699 0 -33.334 -120 -80.001 -360c-6 -26.667 -11.333 -40 -16 -40h-372l-8 4l192 936h380zM785.001 1977c9.33301 -23.333 26.332 -108.999 50.999 -256.999c2.66699 -6.66699 48 -230.667 136 -672l-8 -4h-744l-8 4c110.667 556 172.667 864.667 186 926
c-31.333 33.333 -58 76.666 -80 129.999c-2.66699 37.333 -5.33398 57.333 -8.00098 60l4 8c0 2.66699 -1.33301 4 -4 4c0 91.333 46.667 170 140 236c50.667 26.667 97.334 40 140.001 40c102.667 0 185.334 -52 248.001 -156c21.333 -44 32 -85.333 32 -124
c0 -75.333 -28.333 -140.333 -85 -195z" />
    <glyph glyph-name="AE" unicode="&#xc6;" horiz-adv-x="2118" 
 />
    <glyph glyph-name="Ccedilla" unicode="&#xc7;" horiz-adv-x="1399" 
 />
    <glyph glyph-name="Egrave" unicode="&#xc8;" 
d="M8 1984l1168 0.000976562c5.33301 -0.666992 8 -3.33398 8 -8.00098v-368c0 -5.33301 -2.66699 -8 -8 -8h-784c-5.33301 -0.666992 -8 -3.33398 -8 -8.00098v-400c0.666992 -5.33301 3.33398 -8 8.00098 -8h772l8 -4c-43.333 -89.333 -67.333 -134.666 -72 -135.999
h-1092c-5.33301 0 -8 2.66699 -8 8v924c0.666992 5.33301 3.33398 8 8.00098 8zM7.99805 940.001l1036 0.000976562l8 -4c-43.333 -89.333 -67.333 -134.666 -72 -135.999h-588c-5.33301 -0.666992 -8 -3.33398 -8 -8.00098v-400c0.666992 -5.33301 3.33398 -8 8.00098 -8
h784c5.33301 -0.666992 8 -3.33398 8 -8.00098v-368c0 -5.33301 -2.66699 -8 -8 -8h-1168c-5.33301 0 -8 2.66699 -8 8v924c0.666992 5.33301 3.33398 8 8.00098 8zM403.996 2596l364 -364c-2 -5.33301 -56.667 -60 -164 -164l-364 364c2 5.33301 56.667 60 164 164z" />
    <glyph glyph-name="Eacute" unicode="&#xc9;" 
d="M8 1984l1168 0.000976562c5.33301 -0.666992 8 -3.33398 8 -8.00098v-368c0 -5.33301 -2.66699 -8 -8 -8h-784c-5.33301 -0.666992 -8 -3.33398 -8 -8.00098v-400c0.666992 -5.33301 3.33398 -8 8.00098 -8h772l8 -4c-43.333 -89.333 -67.333 -134.666 -72 -135.999
h-1092c-5.33301 0 -8 2.66699 -8 8v924c0.666992 5.33301 3.33398 8 8.00098 8zM7.99805 940.001l1036 0.000976562l8 -4c-43.333 -89.333 -67.333 -134.666 -72 -135.999h-588c-5.33301 -0.666992 -8 -3.33398 -8 -8.00098v-400c0.666992 -5.33301 3.33398 -8 8.00098 -8
h784c5.33301 -0.666992 8 -3.33398 8 -8.00098v-368c0 -5.33301 -2.66699 -8 -8 -8h-1168c-5.33301 0 -8 2.66699 -8 8v924c0.666992 5.33301 3.33398 8 8.00098 8zM779.996 2591c5.33301 -2 60 -56.667 164 -164l-364 -364c-5.33301 2 -60 56.667 -164 164z" />
    <glyph glyph-name="Ecircumflex" unicode="&#xca;" 
d="M8 1984l1168 0.000976562c5.33301 -0.666992 8 -3.33398 8 -8.00098v-368c0 -5.33301 -2.66699 -8 -8 -8h-784c-5.33301 -0.666992 -8 -3.33398 -8 -8.00098v-400c0.666992 -5.33301 3.33398 -8 8.00098 -8h772l8 -4c-43.333 -89.333 -67.333 -134.666 -72 -135.999
h-1092c-5.33301 0 -8 2.66699 -8 8v924c0.666992 5.33301 3.33398 8 8.00098 8zM7.99805 940.001l1036 0.000976562l8 -4c-43.333 -89.333 -67.333 -134.666 -72 -135.999h-588c-5.33301 -0.666992 -8 -3.33398 -8 -8.00098v-400c0.666992 -5.33301 3.33398 -8 8.00098 -8
h784c5.33301 -0.666992 8 -3.33398 8 -8.00098v-368c0 -5.33301 -2.66699 -8 -8 -8h-1168c-5.33301 0 -8 2.66699 -8 8v924c0.666992 5.33301 3.33398 8 8.00098 8zM591.996 2591c5.33301 -2 60 -56.667 164 -164l-364 -364c-5.33301 2 -60 56.667 -164 164zM791.996 2391
c5.33301 -2 60 -56.667 164 -164c-2 -5.33301 -56.667 -60 -164 -164c-5.33301 2 -60 56.667 -164 164c2 5.33301 56.667 60 164 164z" />
    <glyph glyph-name="Edieresis" unicode="&#xcb;" 
d="M8 1984l1168 0.000976562c5.33301 -0.666992 8 -3.33398 8 -8.00098v-368c0 -5.33301 -2.66699 -8 -8 -8h-784c-5.33301 -0.666992 -8 -3.33398 -8 -8.00098v-400c0.666992 -5.33301 3.33398 -8 8.00098 -8h772l8 -4c-43.333 -89.333 -67.333 -134.666 -72 -135.999
h-1092c-5.33301 0 -8 2.66699 -8 8v924c0.666992 5.33301 3.33398 8 8.00098 8zM7.99805 940.001l1036 0.000976562l8 -4c-43.333 -89.333 -67.333 -134.666 -72 -135.999h-588c-5.33301 -0.666992 -8 -3.33398 -8 -8.00098v-400c0.666992 -5.33301 3.33398 -8 8.00098 -8
h784c5.33301 -0.666992 8 -3.33398 8 -8.00098v-368c0 -5.33301 -2.66699 -8 -8 -8h-1168c-5.33301 0 -8 2.66699 -8 8v924c0.666992 5.33301 3.33398 8 8.00098 8zM360.996 2420c88 0 148.002 -49.333 180.002 -148c0 -6.66699 1.33301 -17.334 4 -32
c0 -84 -49.333 -142.667 -148 -176c-6.66699 0 -17.334 -1.33301 -32.001 -4c-84 0 -142.667 49.333 -176 148v44c0 77.333 48 132 144 164c15.333 0 24.666 1.33301 27.999 4zM810.998 2420c88 0 148.002 -49.333 180.002 -148c0 -6.66699 1.33301 -17.334 4 -32
c0 -84 -49.333 -142.667 -148 -176c-6.66699 0 -17.334 -1.33301 -32.001 -4c-84 0 -142.667 49.333 -176 148v44c0 77.333 48 132 144 164c15.333 0 24.666 1.33301 27.999 4z" />
    <glyph glyph-name="Igrave" unicode="&#xcc;" horiz-adv-x="884" 
d="M8 1984l767.999 0.00195312c5.33301 -0.666992 8 -3.33398 8 -8.00098v-368c0 -5.33301 -2.66699 -8 -8 -8h-184c-5.33301 -0.666992 -8 -3.33398 -8 -8.00098v-540c0 -5.33301 -2.66699 -8 -8 -8h-368c-5.33301 0 -8 2.66699 -8 8v540c0 5.33301 -2.66699 8 -8 8h-184
c-5.33301 0 -8 2.66699 -8 8v368c0.666992 5.33301 3.33398 8 8.00098 8zM207.999 940.002l367.997 0.00195312c5.33301 -0.666992 8 -3.33398 8 -8.00098v-540c0.666992 -5.33301 3.33398 -8 8.00098 -8h184c5.33301 -0.666992 8 -3.33398 8 -8.00098v-368
c0 -5.33301 -2.66699 -8 -8 -8h-768c-5.33301 0 -8 2.66699 -8 8v368c0.666992 5.33301 3.33398 8 8.00098 8h184c5.33301 0 8 2.66699 8 8v540c0.666992 5.33301 3.33398 8 8.00098 8zM203.996 2596l364 -364c-2 -5.33301 -56.667 -60 -164 -164l-364 364
c2 5.33301 56.667 60 164 164z" />
    <glyph glyph-name="Iacute" unicode="&#xcd;" horiz-adv-x="884" 
d="M8 1984l767.999 0.00195312c5.33301 -0.666992 8 -3.33398 8 -8.00098v-368c0 -5.33301 -2.66699 -8 -8 -8h-184c-5.33301 -0.666992 -8 -3.33398 -8 -8.00098v-540c0 -5.33301 -2.66699 -8 -8 -8h-368c-5.33301 0 -8 2.66699 -8 8v540c0 5.33301 -2.66699 8 -8 8h-184
c-5.33301 0 -8 2.66699 -8 8v368c0.666992 5.33301 3.33398 8 8.00098 8zM207.999 940.002l367.997 0.00195312c5.33301 -0.666992 8 -3.33398 8 -8.00098v-540c0.666992 -5.33301 3.33398 -8 8.00098 -8h184c5.33301 -0.666992 8 -3.33398 8 -8.00098v-368
c0 -5.33301 -2.66699 -8 -8 -8h-768c-5.33301 0 -8 2.66699 -8 8v368c0.666992 5.33301 3.33398 8 8.00098 8h184c5.33301 0 8 2.66699 8 8v540c0.666992 5.33301 3.33398 8 8.00098 8zM579.996 2591c5.33301 -2 60 -56.667 164 -164l-364 -364
c-5.33301 2 -60 56.667 -164 164z" />
    <glyph glyph-name="Icircumflex" unicode="&#xce;" horiz-adv-x="884" 
d="M8 1984l767.999 0.00195312c5.33301 -0.666992 8 -3.33398 8 -8.00098v-368c0 -5.33301 -2.66699 -8 -8 -8h-184c-5.33301 -0.666992 -8 -3.33398 -8 -8.00098v-540c0 -5.33301 -2.66699 -8 -8 -8h-368c-5.33301 0 -8 2.66699 -8 8v540c0 5.33301 -2.66699 8 -8 8h-184
c-5.33301 0 -8 2.66699 -8 8v368c0.666992 5.33301 3.33398 8 8.00098 8zM207.999 940.002l367.997 0.00195312c5.33301 -0.666992 8 -3.33398 8 -8.00098v-540c0.666992 -5.33301 3.33398 -8 8.00098 -8h184c5.33301 -0.666992 8 -3.33398 8 -8.00098v-368
c0 -5.33301 -2.66699 -8 -8 -8h-768c-5.33301 0 -8 2.66699 -8 8v368c0.666992 5.33301 3.33398 8 8.00098 8h184c5.33301 0 8 2.66699 8 8v540c0.666992 5.33301 3.33398 8 8.00098 8zM391.996 2591c5.33301 -2 60 -56.667 164 -164l-364 -364
c-5.33301 2 -60 56.667 -164 164zM591.996 2391c5.33301 -2 60 -56.667 164 -164c-2 -5.33301 -56.667 -60 -164 -164c-5.33301 2 -60 56.667 -164 164c2 5.33301 56.667 60 164 164z" />
    <glyph glyph-name="Idieresis" unicode="&#xcf;" horiz-adv-x="906" 
d="M9 1984l767.999 0.00195312c5.33301 -0.666992 8 -3.33398 8 -8.00098v-368c0 -5.33301 -2.66699 -8 -8 -8h-184c-5.33301 -0.666992 -8 -3.33398 -8 -8.00098v-540c0 -5.33301 -2.66699 -8 -8 -8h-368c-5.33301 0 -8 2.66699 -8 8v540c0 5.33301 -2.66699 8 -8 8h-184
c-5.33301 0 -8 2.66699 -8 8v368c0.666992 5.33301 3.33398 8 8.00098 8zM208.999 940.002l367.997 0.00195312c5.33301 -0.666992 8 -3.33398 8 -8.00098v-540c0.666992 -5.33301 3.33398 -8 8.00098 -8h184c5.33301 -0.666992 8 -3.33398 8 -8.00098v-368
c0 -5.33301 -2.66699 -8 -8 -8h-768c-5.33301 0 -8 2.66699 -8 8v368c0.666992 5.33301 3.33398 8 8.00098 8h184c5.33301 0 8 2.66699 8 8v540c0.666992 5.33301 3.33398 8 8.00098 8zM171.996 2420c88 0 148.002 -49.333 180.002 -148c0 -6.66699 1.33301 -17.334 4 -32
c0 -84 -49.333 -142.667 -148 -176c-6.66699 0 -17.334 -1.33301 -32.001 -4c-84 0 -142.667 49.333 -176 148v44c0 77.333 48 132 144 164c15.333 0 24.666 1.33301 27.999 4zM621.998 2420c88 0 148.002 -49.333 180.002 -148c0 -6.66699 1.33301 -17.334 4 -32
c0 -84 -49.333 -142.667 -148 -176c-6.66699 0 -17.334 -1.33301 -32.001 -4c-84 0 -142.667 49.333 -176 148v44c0 77.333 48 132 144 164c15.333 0 24.666 1.33301 27.999 4z" />
    <glyph glyph-name="Eth" unicode="&#xd0;" horiz-adv-x="1518" 
 />
    <glyph glyph-name="Ntilde" unicode="&#xd1;" horiz-adv-x="1100" 
d="M16 1984l371.999 0.000976562c12 -13.333 46.667 -124 104 -332c18.667 -50 52 -159.333 100 -328h12v460c2.66699 5.33301 130.667 70.666 384 195.999l4 -8v-916c0 -5.33301 -2.66699 -8 -8 -8h-968c-5.33301 0 -8 2.66699 -8 8v920
c0.666992 5.33301 3.33398 8 8.00098 8zM15.999 944.001l968 0.000976562c5.33301 -0.666992 8 -3.33398 8 -8.00098v-928c0 -5.33301 -2.66699 -8 -8 -8h-372c-6 0.666992 -39.333 100.667 -100 300l-108 360h-12v-452c-0.666992 -3.33301 -127.334 -67.333 -380.001 -192
l-4 8v912c0.666992 5.33301 3.33398 8 8.00098 8zM199.999 2464h191.999c98 0 164.667 -46.667 200 -140c5.33301 -20 8 -38.667 8 -56v-4h200v192c0.666992 5.33301 3.33398 8 8.00098 8h184c5.33301 -0.666992 8 -3.33398 8 -8v-196c0 -103.333 -60 -168.666 -180 -196
h-224c-92 0 -156 52 -192 156c-2.66699 18 -4 32.667 -4 44h-200v-192c0 -5.33301 -2.66699 -8 -8 -8h-184c-5.33301 0 -8 2.66699 -8 8v192c0 95.333 52 160.666 156 196c18 2.66699 32.667 4 44 4z" />
    <glyph glyph-name="Ograve" unicode="&#xd2;" 
d="M820 1984c141.333 0 256 -85.332 344 -255.999c13.333 -39.333 20 -71.333 20 -96v-576c0 -5.33301 -2.66699 -8 -8 -8h-368c-5.33301 0 -8 2.66699 -8 8v536c0 5.33301 -2.66699 8 -8 8h-400c-5.33301 -0.666992 -8 -3.33398 -8 -8.00098v-536
c0 -5.33301 -2.66699 -8 -8 -8h-368c-5.33301 0 -8 2.66699 -8 8v492c0 130 16 208.667 48 236c80.667 133.333 194 200 340 200h432zM8 944.001l367.997 0.00195312c5.33301 -0.666992 8 -3.33398 8 -8.00098v-544c0.666992 -5.33301 3.33398 -8 8.00098 -8h400
c5.33301 0 8 2.66699 8 8v544c0.666992 5.33301 3.33398 8 8.00098 8h368c5.33301 -0.666992 8 -3.33398 8 -8.00098v-560c0 -132.667 -73.333 -244.667 -220 -336c-51.333 -26.667 -98 -40 -140 -40h-452c-144.667 0 -258 78.667 -340 236c-21.333 40.667 -32 86 -32 136
v564c0.666992 5.33301 3.33398 8 8.00098 8zM403.997 2596l364 -364c-2 -5.33301 -56.667 -60 -164 -164l-364 364c2 5.33301 56.667 60 164 164z" />
    <glyph glyph-name="Oacute" unicode="&#xd3;" 
d="M820 1984c141.333 0 256 -85.332 344 -255.999c13.333 -39.333 20 -71.333 20 -96v-576c0 -5.33301 -2.66699 -8 -8 -8h-368c-5.33301 0 -8 2.66699 -8 8v536c0 5.33301 -2.66699 8 -8 8h-400c-5.33301 -0.666992 -8 -3.33398 -8 -8.00098v-536
c0 -5.33301 -2.66699 -8 -8 -8h-368c-5.33301 0 -8 2.66699 -8 8v492c0 130 16 208.667 48 236c80.667 133.333 194 200 340 200h432zM8 944.001l367.997 0.00195312c5.33301 -0.666992 8 -3.33398 8 -8.00098v-544c0.666992 -5.33301 3.33398 -8 8.00098 -8h400
c5.33301 0 8 2.66699 8 8v544c0.666992 5.33301 3.33398 8 8.00098 8h368c5.33301 -0.666992 8 -3.33398 8 -8.00098v-560c0 -132.667 -73.333 -244.667 -220 -336c-51.333 -26.667 -98 -40 -140 -40h-452c-144.667 0 -258 78.667 -340 236c-21.333 40.667 -32 86 -32 136
v564c0.666992 5.33301 3.33398 8 8.00098 8zM779.997 2591c5.33301 -2 60 -56.667 164 -164l-364 -364c-5.33301 2 -60 56.667 -164 164z" />
    <glyph glyph-name="Ocircumflex" unicode="&#xd4;" 
d="M820 1984c141.333 0 256 -85.332 344 -255.999c13.333 -39.333 20 -71.333 20 -96v-576c0 -5.33301 -2.66699 -8 -8 -8h-368c-5.33301 0 -8 2.66699 -8 8v536c0 5.33301 -2.66699 8 -8 8h-400c-5.33301 -0.666992 -8 -3.33398 -8 -8.00098v-536
c0 -5.33301 -2.66699 -8 -8 -8h-368c-5.33301 0 -8 2.66699 -8 8v492c0 130 16 208.667 48 236c80.667 133.333 194 200 340 200h432zM8 944.001l367.997 0.00195312c5.33301 -0.666992 8 -3.33398 8 -8.00098v-544c0.666992 -5.33301 3.33398 -8 8.00098 -8h400
c5.33301 0 8 2.66699 8 8v544c0.666992 5.33301 3.33398 8 8.00098 8h368c5.33301 -0.666992 8 -3.33398 8 -8.00098v-560c0 -132.667 -73.333 -244.667 -220 -336c-51.333 -26.667 -98 -40 -140 -40h-452c-144.667 0 -258 78.667 -340 236c-21.333 40.667 -32 86 -32 136
v564c0.666992 5.33301 3.33398 8 8.00098 8zM591.997 2591c5.33301 -2 60 -56.667 164 -164l-364 -364c-5.33301 2 -60 56.667 -164 164zM791.997 2391c5.33301 -2 60 -56.667 164 -164c-2 -5.33301 -56.667 -60 -164 -164c-5.33301 2 -60 56.667 -164 164
c2 5.33301 56.667 60 164 164z" />
    <glyph glyph-name="Otilde" unicode="&#xd5;" 
d="M820 1984c141.333 0 256 -85.332 344 -255.999c13.333 -39.333 20 -71.333 20 -96v-576c0 -5.33301 -2.66699 -8 -8 -8h-368c-5.33301 0 -8 2.66699 -8 8v536c0 5.33301 -2.66699 8 -8 8h-400c-5.33301 -0.666992 -8 -3.33398 -8 -8.00098v-536
c0 -5.33301 -2.66699 -8 -8 -8h-368c-5.33301 0 -8 2.66699 -8 8v492c0 130 16 208.667 48 236c80.667 133.333 194 200 340 200h432zM8 944.001l367.997 0.00195312c5.33301 -0.666992 8 -3.33398 8 -8.00098v-544c0.666992 -5.33301 3.33398 -8 8.00098 -8h400
c5.33301 0 8 2.66699 8 8v544c0.666992 5.33301 3.33398 8 8.00098 8h368c5.33301 -0.666992 8 -3.33398 8 -8.00098v-560c0 -132.667 -73.333 -244.667 -220 -336c-51.333 -26.667 -98 -40 -140 -40h-452c-144.667 0 -258 78.667 -340 236c-21.333 40.667 -32 86 -32 136
v564c0.666992 5.33301 3.33398 8 8.00098 8zM291.997 2464l191.999 0.000976562c98 0 164.667 -46.667 200 -140c5.33301 -20 8 -38.667 8 -56v-4h200v192c0.666992 5.33301 3.33398 8 8.00098 8h184c5.33301 -0.666992 8 -3.33398 8 -8v-196
c0 -103.333 -60 -168.666 -180 -196h-224c-92 0 -156 52 -192 156c-2.66699 18 -4 32.667 -4 44h-200v-192c0 -5.33301 -2.66699 -8 -8 -8h-184c-5.33301 0 -8 2.66699 -8 8v192c0 95.333 52 160.666 156 195.999c18 2.66699 32.667 4 44 4z" />
    <glyph glyph-name="Odieresis" unicode="&#xd6;" 
d="M820 1984c141.333 0 256 -85.332 344 -255.999c13.333 -39.333 20 -71.333 20 -96v-576c0 -5.33301 -2.66699 -8 -8 -8h-368c-5.33301 0 -8 2.66699 -8 8v536c0 5.33301 -2.66699 8 -8 8h-400c-5.33301 -0.666992 -8 -3.33398 -8 -8.00098v-536
c0 -5.33301 -2.66699 -8 -8 -8h-368c-5.33301 0 -8 2.66699 -8 8v492c0 130 16 208.667 48 236c80.667 133.333 194 200 340 200h432zM8 944.001l367.997 0.00195312c5.33301 -0.666992 8 -3.33398 8 -8.00098v-544c0.666992 -5.33301 3.33398 -8 8.00098 -8h400
c5.33301 0 8 2.66699 8 8v544c0.666992 5.33301 3.33398 8 8.00098 8h368c5.33301 -0.666992 8 -3.33398 8 -8.00098v-560c0 -132.667 -73.333 -244.667 -220 -336c-51.333 -26.667 -98 -40 -140 -40h-452c-144.667 0 -258 78.667 -340 236c-21.333 40.667 -32 86 -32 136
v564c0.666992 5.33301 3.33398 8 8.00098 8zM360.997 2420c88 0 148.002 -49.332 180.002 -147.999c0 -6.66699 1.33301 -17.334 4 -32.001c0 -84 -49.333 -142.667 -148 -176c-6.66699 0 -17.334 -1.33301 -32.001 -4c-84 0 -142.667 49.333 -176 148v44
c0 77.333 48 132 144 164c15.333 0 24.666 1.33301 27.999 4zM810.999 2420c88 0 148.002 -49.333 180.002 -148c0 -6.66699 1.33301 -17.334 4 -32c0 -84 -49.333 -142.667 -148 -176c-6.66699 0 -17.334 -1.33301 -32.001 -4c-84 0 -142.667 49.333 -176 148v44
c0 77.333 48 132 144 164c15.333 0 24.666 1.33301 27.999 4z" />
    <glyph glyph-name="multiply" unicode="&#xd7;" horiz-adv-x="1014" 
 />
    <glyph glyph-name="Oslash" unicode="&#xd8;" horiz-adv-x="1614" 
 />
    <glyph glyph-name="Ugrave" unicode="&#xd9;" 
d="M1180 1976l3.99902 -7.99902v-916c0 -5.33301 -2.66699 -8 -8 -8h-368c-5.33301 0 -8 2.66699 -8 8v728c0.666992 3.33301 127.334 68.666 380.001 195.999zM3.99902 1968c252.667 -124.667 379.333 -188.667 380 -192v-724c0 -5.33301 -2.66699 -8 -8 -8h-368
c-5.33301 0 -8 2.66699 -8 8v908zM7.99805 940.001l367.997 0.00195312c5.33301 -0.666992 8 -3.33398 8 -8.00098v-540c0.666992 -5.33301 3.33398 -8 8.00098 -8h400c5.33301 0 8 2.66699 8 8v540c0.666992 5.33301 3.33398 8 8.00098 8h368
c5.33301 -0.666992 8 -3.33398 8 -8.00098v-552c-10 -89.333 -27.333 -152 -52 -188c-94 -128 -199.333 -192 -316 -192h-452c-125.333 0 -232 69.333 -320 208c-29.333 59.333 -44 110 -44 152v572c0.666992 5.33301 3.33398 8 8.00098 8zM403.995 2596l364 -364
c-2 -5.33301 -56.667 -60 -164 -164l-364 364c2 5.33301 56.667 60 164 164z" />
    <glyph glyph-name="Uacute" unicode="&#xda;" 
d="M1180 1976l3.99902 -7.99902v-916c0 -5.33301 -2.66699 -8 -8 -8h-368c-5.33301 0 -8 2.66699 -8 8v728c0.666992 3.33301 127.334 68.666 380.001 195.999zM3.99902 1968c252.667 -124.667 379.333 -188.667 380 -192v-724c0 -5.33301 -2.66699 -8 -8 -8h-368
c-5.33301 0 -8 2.66699 -8 8v908zM7.99805 940.001l367.997 0.00195312c5.33301 -0.666992 8 -3.33398 8 -8.00098v-540c0.666992 -5.33301 3.33398 -8 8.00098 -8h400c5.33301 0 8 2.66699 8 8v540c0.666992 5.33301 3.33398 8 8.00098 8h368
c5.33301 -0.666992 8 -3.33398 8 -8.00098v-552c-10 -89.333 -27.333 -152 -52 -188c-94 -128 -199.333 -192 -316 -192h-452c-125.333 0 -232 69.333 -320 208c-29.333 59.333 -44 110 -44 152v572c0.666992 5.33301 3.33398 8 8.00098 8zM779.995 2591
c5.33301 -2 60 -56.667 164 -164l-364 -364c-5.33301 2 -60 56.667 -164 164z" />
    <glyph glyph-name="Ucircumflex" unicode="&#xdb;" 
d="M1180 1976l3.99902 -7.99902v-916c0 -5.33301 -2.66699 -8 -8 -8h-368c-5.33301 0 -8 2.66699 -8 8v728c0.666992 3.33301 127.334 68.666 380.001 195.999zM3.99902 1968c252.667 -124.667 379.333 -188.667 380 -192v-724c0 -5.33301 -2.66699 -8 -8 -8h-368
c-5.33301 0 -8 2.66699 -8 8v908zM7.99805 940.001l367.997 0.00195312c5.33301 -0.666992 8 -3.33398 8 -8.00098v-540c0.666992 -5.33301 3.33398 -8 8.00098 -8h400c5.33301 0 8 2.66699 8 8v540c0.666992 5.33301 3.33398 8 8.00098 8h368
c5.33301 -0.666992 8 -3.33398 8 -8.00098v-552c-10 -89.333 -27.333 -152 -52 -188c-94 -128 -199.333 -192 -316 -192h-452c-125.333 0 -232 69.333 -320 208c-29.333 59.333 -44 110 -44 152v572c0.666992 5.33301 3.33398 8 8.00098 8zM591.995 2591
c5.33301 -2 60 -56.667 164 -164l-364 -364c-5.33301 2 -60 56.667 -164 164zM791.995 2391c5.33301 -2 60 -56.667 164 -164c-2 -5.33301 -56.667 -60 -164 -164c-5.33301 2 -60 56.667 -164 164c2 5.33301 56.667 60 164 164z" />
    <glyph glyph-name="Udieresis" unicode="&#xdc;" 
d="M1180 1976l3.99902 -7.99902v-916c0 -5.33301 -2.66699 -8 -8 -8h-368c-5.33301 0 -8 2.66699 -8 8v728c0.666992 3.33301 127.334 68.666 380.001 195.999zM3.99902 1968c252.667 -124.667 379.333 -188.667 380 -192v-724c0 -5.33301 -2.66699 -8 -8 -8h-368
c-5.33301 0 -8 2.66699 -8 8v908zM7.99805 940.001l367.997 0.00195312c5.33301 -0.666992 8 -3.33398 8 -8.00098v-540c0.666992 -5.33301 3.33398 -8 8.00098 -8h400c5.33301 0 8 2.66699 8 8v540c0.666992 5.33301 3.33398 8 8.00098 8h368
c5.33301 -0.666992 8 -3.33398 8 -8.00098v-552c-10 -89.333 -27.333 -152 -52 -188c-94 -128 -199.333 -192 -316 -192h-452c-125.333 0 -232 69.333 -320 208c-29.333 59.333 -44 110 -44 152v572c0.666992 5.33301 3.33398 8 8.00098 8zM360.995 2420
c88 0 148.002 -49.332 180.002 -147.999c0 -6.66699 1.33301 -17.334 4 -32.001c0 -84 -49.333 -142.667 -148 -176c-6.66699 0 -17.334 -1.33301 -32.001 -4c-84 0 -142.667 49.333 -176 148v44c0 77.333 48 132 144 164c15.333 0 24.666 1.33301 27.999 4zM810.997 2420
c88 0 148.002 -49.333 180.002 -148c0 -6.66699 1.33301 -17.334 4 -32c0 -84 -49.333 -142.667 -148 -176c-6.66699 0 -17.334 -1.33301 -32.001 -4c-84 0 -142.667 49.333 -176 148v44c0 77.333 48 132 144 164c15.333 0 24.666 1.33301 27.999 4z" />
    <glyph glyph-name="Yacute" unicode="&#xdd;" horiz-adv-x="1233" 
 />
    <glyph glyph-name="Thorn" unicode="&#xde;" horiz-adv-x="1120" 
 />
    <glyph glyph-name="germandbls" unicode="&#xdf;" horiz-adv-x="1251" 
 />
    <glyph glyph-name="agrave" unicode="&#xe0;" horiz-adv-x="1280" 
d="M780 1984c8 0 26.667 -88 56 -264c2.66699 -6.66699 48 -230.667 136 -672l-8 -4h-744l-8 4c120 604 182.667 916 188 936h380zM572 940l0.000976562 -4c0 -14 -9.33301 -62 -28 -144c10 -5.33301 20.667 -8 32 -8h52c4 0 8 4 12 12l-28 140l8 4h368
c8 0 26.667 -88 56 -264c2.66699 -6.66699 48 -230.667 136 -672l-8 -4h-368c-5.33301 0 -21.333 64 -48 192c-25.333 138.667 -41.333 208 -48 208h-232c-6.66699 0 -33.334 -120 -80.001 -360c-6 -26.667 -11.333 -40 -16 -40h-372l-8 4l192 936h380zM402.001 2596
l364 -364c-2 -5.33301 -56.667 -60 -164 -164l-364 364c2 5.33301 56.667 60 164 164z" />
    <glyph glyph-name="aacute" unicode="&#xe1;" horiz-adv-x="1280" 
d="M780 1984c8 0 26.667 -88 56 -264c2.66699 -6.66699 48 -230.667 136 -672l-8 -4h-744l-8 4c120 604 182.667 916 188 936h380zM572 940l0.000976562 -4c0 -14 -9.33301 -62 -28 -144c10 -5.33301 20.667 -8 32 -8h52c4 0 8 4 12 12l-28 140l8 4h368
c8 0 26.667 -88 56 -264c2.66699 -6.66699 48 -230.667 136 -672l-8 -4h-368c-5.33301 0 -21.333 64 -48 192c-25.333 138.667 -41.333 208 -48 208h-232c-6.66699 0 -33.334 -120 -80.001 -360c-6 -26.667 -11.333 -40 -16 -40h-372l-8 4l192 936h380zM778.001 2591
c5.33301 -2 60 -56.667 164 -164l-364 -364c-5.33301 2 -60 56.667 -164 164z" />
    <glyph glyph-name="acircumflex" unicode="&#xe2;" horiz-adv-x="1280" 
d="M780 1984c8 0 26.667 -88 56 -264c2.66699 -6.66699 48 -230.667 136 -672l-8 -4h-744l-8 4c120 604 182.667 916 188 936h380zM572 940l0.000976562 -4c0 -14 -9.33301 -62 -28 -144c10 -5.33301 20.667 -8 32 -8h52c4 0 8 4 12 12l-28 140l8 4h368
c8 0 26.667 -88 56 -264c2.66699 -6.66699 48 -230.667 136 -672l-8 -4h-368c-5.33301 0 -21.333 64 -48 192c-25.333 138.667 -41.333 208 -48 208h-232c-6.66699 0 -33.334 -120 -80.001 -360c-6 -26.667 -11.333 -40 -16 -40h-372l-8 4l192 936h380zM590.001 2591
c5.33301 -2 60 -56.667 164 -164l-364 -364c-5.33301 2 -60 56.667 -164 164zM790.001 2391c5.33301 -2 60 -56.667 164 -164c-2 -5.33301 -56.667 -60 -164 -164c-5.33301 2 -60 56.667 -164 164c2 5.33301 56.667 60 164 164z" />
    <glyph glyph-name="atilde" unicode="&#xe3;" horiz-adv-x="1280" 
d="M780 1984c8 0 26.667 -88 56 -264c2.66699 -6.66699 48 -230.667 136 -672l-8 -4h-744l-8 4c120 604 182.667 916 188 936h380zM572 940l0.000976562 -4c0 -14 -9.33301 -62 -28 -144c10 -5.33301 20.667 -8 32 -8h52c4 0 8 4 12 12l-28 140l8 4h368
c8 0 26.667 -88 56 -264c2.66699 -6.66699 48 -230.667 136 -672l-8 -4h-368c-5.33301 0 -21.333 64 -48 192c-25.333 138.667 -41.333 208 -48 208h-232c-6.66699 0 -33.334 -120 -80.001 -360c-6 -26.667 -11.333 -40 -16 -40h-372l-8 4l192 936h380zM290.001 2464
h191.999c98 0 164.667 -46.667 200 -140c5.33301 -20 8 -38.667 8 -56v-4h200v192c0.666992 5.33301 3.33398 8 8.00098 8h184c5.33301 -0.666992 8 -3.33398 8 -8v-196c0 -103.333 -60 -168.666 -180 -196h-224c-92 0 -156 52 -192 156c-2.66699 18 -4 32.667 -4 44h-200
v-192c0 -5.33301 -2.66699 -8 -8 -8h-184c-5.33301 0 -8 2.66699 -8 8v192c0 95.333 52 160.666 156 196c18 2.66699 32.667 4 44 4z" />
    <glyph glyph-name="adieresis" unicode="&#xe4;" horiz-adv-x="1280" 
d="M780 1984c8 0 26.667 -88 56 -264c2.66699 -6.66699 48 -230.667 136 -672l-8 -4h-744l-8 4c120 604 182.667 916 188 936h380zM572 940l0.000976562 -4c0 -14 -9.33301 -62 -28 -144c10 -5.33301 20.667 -8 32 -8h52c4 0 8 4 12 12l-28 140l8 4h368
c8 0 26.667 -88 56 -264c2.66699 -6.66699 48 -230.667 136 -672l-8 -4h-368c-5.33301 0 -21.333 64 -48 192c-25.333 138.667 -41.333 208 -48 208h-232c-6.66699 0 -33.334 -120 -80.001 -360c-6 -26.667 -11.333 -40 -16 -40h-372l-8 4l192 936h380zM374.001 2420
c88 0 148.002 -49.333 180.002 -148c0 -6.66699 1.33301 -17.334 4 -32c0 -84 -49.333 -142.667 -148 -176c-6.66699 0 -17.334 -1.33301 -32.001 -4c-84 0 -142.667 49.333 -176 148v44c0 77.333 48 132 144 164c15.333 0 24.666 1.33301 27.999 4zM824.003 2420
c88 0 148.002 -49.333 180.002 -148c0 -6.66699 1.33301 -17.334 4 -32c0 -84 -49.333 -142.667 -148 -176c-6.66699 0 -17.334 -1.33301 -32.001 -4c-84 0 -142.667 49.333 -176 148v44c0 77.333 48 132 144 164c15.333 0 24.666 1.33301 27.999 4z" />
    <glyph glyph-name="aring" unicode="&#xe5;" horiz-adv-x="1280" 
d="M572 940l0.000976562 -4c0 -14 -9.33301 -62 -28 -144c10 -5.33301 20.667 -8 32 -8h52c4 0 8 4 12 12l-28 140l8 4h368c8 0 26.667 -88 56 -264c2.66699 -6.66699 48 -230.667 136 -672l-8 -4h-368c-5.33301 0 -21.333 64 -48 192c-25.333 138.667 -41.333 208 -48 208
h-232c-6.66699 0 -33.334 -120 -80.001 -360c-6 -26.667 -11.333 -40 -16 -40h-372l-8 4l192 936h380zM785.001 1977c9.33301 -23.333 26.332 -108.999 50.999 -256.999c2.66699 -6.66699 48 -230.667 136 -672l-8 -4h-744l-8 4c110.667 556 172.667 864.667 186 926
c-31.333 33.333 -58 76.666 -80 129.999c-2.66699 37.333 -5.33398 57.333 -8.00098 60l4 8c0 2.66699 -1.33301 4 -4 4c0 91.333 46.667 170 140 236c50.667 26.667 97.334 40 140.001 40c102.667 0 185.334 -52 248.001 -156c21.333 -44 32 -85.333 32 -124
c0 -75.333 -28.333 -140.333 -85 -195z" />
    <glyph glyph-name="ae" unicode="&#xe6;" horiz-adv-x="1454" 
 />
    <glyph glyph-name="ccedilla" unicode="&#xe7;" horiz-adv-x="905" 
 />
    <glyph glyph-name="egrave" unicode="&#xe8;" 
d="M8 1984l1168 0.000976562c5.33301 -0.666992 8 -3.33398 8 -8.00098v-368c0 -5.33301 -2.66699 -8 -8 -8h-784c-5.33301 -0.666992 -8 -3.33398 -8 -8.00098v-400c0.666992 -5.33301 3.33398 -8 8.00098 -8h772l8 -4c-43.333 -89.333 -67.333 -134.666 -72 -135.999
h-1092c-5.33301 0 -8 2.66699 -8 8v924c0.666992 5.33301 3.33398 8 8.00098 8zM7.99805 940.001l1036 0.000976562l8 -4c-43.333 -89.333 -67.333 -134.666 -72 -135.999h-588c-5.33301 -0.666992 -8 -3.33398 -8 -8.00098v-400c0.666992 -5.33301 3.33398 -8 8.00098 -8
h784c5.33301 -0.666992 8 -3.33398 8 -8.00098v-368c0 -5.33301 -2.66699 -8 -8 -8h-1168c-5.33301 0 -8 2.66699 -8 8v924c0.666992 5.33301 3.33398 8 8.00098 8zM403.996 2596l364 -364c-2 -5.33301 -56.667 -60 -164 -164l-364 364c2 5.33301 56.667 60 164 164z" />
    <glyph glyph-name="eacute" unicode="&#xe9;" 
d="M8 1984l1168 0.000976562c5.33301 -0.666992 8 -3.33398 8 -8.00098v-368c0 -5.33301 -2.66699 -8 -8 -8h-784c-5.33301 -0.666992 -8 -3.33398 -8 -8.00098v-400c0.666992 -5.33301 3.33398 -8 8.00098 -8h772l8 -4c-43.333 -89.333 -67.333 -134.666 -72 -135.999
h-1092c-5.33301 0 -8 2.66699 -8 8v924c0.666992 5.33301 3.33398 8 8.00098 8zM7.99805 940.001l1036 0.000976562l8 -4c-43.333 -89.333 -67.333 -134.666 -72 -135.999h-588c-5.33301 -0.666992 -8 -3.33398 -8 -8.00098v-400c0.666992 -5.33301 3.33398 -8 8.00098 -8
h784c5.33301 -0.666992 8 -3.33398 8 -8.00098v-368c0 -5.33301 -2.66699 -8 -8 -8h-1168c-5.33301 0 -8 2.66699 -8 8v924c0.666992 5.33301 3.33398 8 8.00098 8zM779.996 2591c5.33301 -2 60 -56.667 164 -164l-364 -364c-5.33301 2 -60 56.667 -164 164z" />
    <glyph glyph-name="ecircumflex" unicode="&#xea;" 
d="M8 1984l1168 0.000976562c5.33301 -0.666992 8 -3.33398 8 -8.00098v-368c0 -5.33301 -2.66699 -8 -8 -8h-784c-5.33301 -0.666992 -8 -3.33398 -8 -8.00098v-400c0.666992 -5.33301 3.33398 -8 8.00098 -8h772l8 -4c-43.333 -89.333 -67.333 -134.666 -72 -135.999
h-1092c-5.33301 0 -8 2.66699 -8 8v924c0.666992 5.33301 3.33398 8 8.00098 8zM7.99805 940.001l1036 0.000976562l8 -4c-43.333 -89.333 -67.333 -134.666 -72 -135.999h-588c-5.33301 -0.666992 -8 -3.33398 -8 -8.00098v-400c0.666992 -5.33301 3.33398 -8 8.00098 -8
h784c5.33301 -0.666992 8 -3.33398 8 -8.00098v-368c0 -5.33301 -2.66699 -8 -8 -8h-1168c-5.33301 0 -8 2.66699 -8 8v924c0.666992 5.33301 3.33398 8 8.00098 8zM591.996 2591c5.33301 -2 60 -56.667 164 -164l-364 -364c-5.33301 2 -60 56.667 -164 164zM791.996 2391
c5.33301 -2 60 -56.667 164 -164c-2 -5.33301 -56.667 -60 -164 -164c-5.33301 2 -60 56.667 -164 164c2 5.33301 56.667 60 164 164z" />
    <glyph glyph-name="edieresis" unicode="&#xeb;" 
d="M8 1984l1168 0.000976562c5.33301 -0.666992 8 -3.33398 8 -8.00098v-368c0 -5.33301 -2.66699 -8 -8 -8h-784c-5.33301 -0.666992 -8 -3.33398 -8 -8.00098v-400c0.666992 -5.33301 3.33398 -8 8.00098 -8h772l8 -4c-43.333 -89.333 -67.333 -134.666 -72 -135.999
h-1092c-5.33301 0 -8 2.66699 -8 8v924c0.666992 5.33301 3.33398 8 8.00098 8zM7.99805 940.001l1036 0.000976562l8 -4c-43.333 -89.333 -67.333 -134.666 -72 -135.999h-588c-5.33301 -0.666992 -8 -3.33398 -8 -8.00098v-400c0.666992 -5.33301 3.33398 -8 8.00098 -8
h784c5.33301 -0.666992 8 -3.33398 8 -8.00098v-368c0 -5.33301 -2.66699 -8 -8 -8h-1168c-5.33301 0 -8 2.66699 -8 8v924c0.666992 5.33301 3.33398 8 8.00098 8zM360.996 2420c88 0 148.002 -49.333 180.002 -148c0 -6.66699 1.33301 -17.334 4 -32
c0 -84 -49.333 -142.667 -148 -176c-6.66699 0 -17.334 -1.33301 -32.001 -4c-84 0 -142.667 49.333 -176 148v44c0 77.333 48 132 144 164c15.333 0 24.666 1.33301 27.999 4zM810.998 2420c88 0 148.002 -49.333 180.002 -148c0 -6.66699 1.33301 -17.334 4 -32
c0 -84 -49.333 -142.667 -148 -176c-6.66699 0 -17.334 -1.33301 -32.001 -4c-84 0 -142.667 49.333 -176 148v44c0 77.333 48 132 144 164c15.333 0 24.666 1.33301 27.999 4z" />
    <glyph glyph-name="igrave" unicode="&#xec;" horiz-adv-x="884" 
d="M8 1984l767.999 0.00195312c5.33301 -0.666992 8 -3.33398 8 -8.00098v-368c0 -5.33301 -2.66699 -8 -8 -8h-184c-5.33301 -0.666992 -8 -3.33398 -8 -8.00098v-540c0 -5.33301 -2.66699 -8 -8 -8h-368c-5.33301 0 -8 2.66699 -8 8v540c0 5.33301 -2.66699 8 -8 8h-184
c-5.33301 0 -8 2.66699 -8 8v368c0.666992 5.33301 3.33398 8 8.00098 8zM207.999 940.002l367.997 0.00195312c5.33301 -0.666992 8 -3.33398 8 -8.00098v-540c0.666992 -5.33301 3.33398 -8 8.00098 -8h184c5.33301 -0.666992 8 -3.33398 8 -8.00098v-368
c0 -5.33301 -2.66699 -8 -8 -8h-768c-5.33301 0 -8 2.66699 -8 8v368c0.666992 5.33301 3.33398 8 8.00098 8h184c5.33301 0 8 2.66699 8 8v540c0.666992 5.33301 3.33398 8 8.00098 8zM203.996 2596l364 -364c-2 -5.33301 -56.667 -60 -164 -164l-364 364
c2 5.33301 56.667 60 164 164z" />
    <glyph glyph-name="iacute" unicode="&#xed;" horiz-adv-x="884" 
d="M8 1984l767.999 0.00195312c5.33301 -0.666992 8 -3.33398 8 -8.00098v-368c0 -5.33301 -2.66699 -8 -8 -8h-184c-5.33301 -0.666992 -8 -3.33398 -8 -8.00098v-540c0 -5.33301 -2.66699 -8 -8 -8h-368c-5.33301 0 -8 2.66699 -8 8v540c0 5.33301 -2.66699 8 -8 8h-184
c-5.33301 0 -8 2.66699 -8 8v368c0.666992 5.33301 3.33398 8 8.00098 8zM207.999 940.002l367.997 0.00195312c5.33301 -0.666992 8 -3.33398 8 -8.00098v-540c0.666992 -5.33301 3.33398 -8 8.00098 -8h184c5.33301 -0.666992 8 -3.33398 8 -8.00098v-368
c0 -5.33301 -2.66699 -8 -8 -8h-768c-5.33301 0 -8 2.66699 -8 8v368c0.666992 5.33301 3.33398 8 8.00098 8h184c5.33301 0 8 2.66699 8 8v540c0.666992 5.33301 3.33398 8 8.00098 8zM579.996 2591c5.33301 -2 60 -56.667 164 -164l-364 -364
c-5.33301 2 -60 56.667 -164 164z" />
    <glyph glyph-name="icircumflex" unicode="&#xee;" horiz-adv-x="884" 
d="M8 1984l767.999 0.00195312c5.33301 -0.666992 8 -3.33398 8 -8.00098v-368c0 -5.33301 -2.66699 -8 -8 -8h-184c-5.33301 -0.666992 -8 -3.33398 -8 -8.00098v-540c0 -5.33301 -2.66699 -8 -8 -8h-368c-5.33301 0 -8 2.66699 -8 8v540c0 5.33301 -2.66699 8 -8 8h-184
c-5.33301 0 -8 2.66699 -8 8v368c0.666992 5.33301 3.33398 8 8.00098 8zM207.999 940.002l367.997 0.00195312c5.33301 -0.666992 8 -3.33398 8 -8.00098v-540c0.666992 -5.33301 3.33398 -8 8.00098 -8h184c5.33301 -0.666992 8 -3.33398 8 -8.00098v-368
c0 -5.33301 -2.66699 -8 -8 -8h-768c-5.33301 0 -8 2.66699 -8 8v368c0.666992 5.33301 3.33398 8 8.00098 8h184c5.33301 0 8 2.66699 8 8v540c0.666992 5.33301 3.33398 8 8.00098 8zM391.996 2591c5.33301 -2 60 -56.667 164 -164l-364 -364
c-5.33301 2 -60 56.667 -164 164zM591.996 2391c5.33301 -2 60 -56.667 164 -164c-2 -5.33301 -56.667 -60 -164 -164c-5.33301 2 -60 56.667 -164 164c2 5.33301 56.667 60 164 164z" />
    <glyph glyph-name="idieresis" unicode="&#xef;" horiz-adv-x="906" 
d="M9 1984l767.999 0.00195312c5.33301 -0.666992 8 -3.33398 8 -8.00098v-368c0 -5.33301 -2.66699 -8 -8 -8h-184c-5.33301 -0.666992 -8 -3.33398 -8 -8.00098v-540c0 -5.33301 -2.66699 -8 -8 -8h-368c-5.33301 0 -8 2.66699 -8 8v540c0 5.33301 -2.66699 8 -8 8h-184
c-5.33301 0 -8 2.66699 -8 8v368c0.666992 5.33301 3.33398 8 8.00098 8zM208.999 940.002l367.997 0.00195312c5.33301 -0.666992 8 -3.33398 8 -8.00098v-540c0.666992 -5.33301 3.33398 -8 8.00098 -8h184c5.33301 -0.666992 8 -3.33398 8 -8.00098v-368
c0 -5.33301 -2.66699 -8 -8 -8h-768c-5.33301 0 -8 2.66699 -8 8v368c0.666992 5.33301 3.33398 8 8.00098 8h184c5.33301 0 8 2.66699 8 8v540c0.666992 5.33301 3.33398 8 8.00098 8zM171.996 2420c88 0 148.002 -49.333 180.002 -148c0 -6.66699 1.33301 -17.334 4 -32
c0 -84 -49.333 -142.667 -148 -176c-6.66699 0 -17.334 -1.33301 -32.001 -4c-84 0 -142.667 49.333 -176 148v44c0 77.333 48 132 144 164c15.333 0 24.666 1.33301 27.999 4zM621.998 2420c88 0 148.002 -49.333 180.002 -148c0 -6.66699 1.33301 -17.334 4 -32
c0 -84 -49.333 -142.667 -148 -176c-6.66699 0 -17.334 -1.33301 -32.001 -4c-84 0 -142.667 49.333 -176 148v44c0 77.333 48 132 144 164c15.333 0 24.666 1.33301 27.999 4z" />
    <glyph glyph-name="eth" unicode="&#xf0;" horiz-adv-x="1139" 
 />
    <glyph glyph-name="ntilde" unicode="&#xf1;" horiz-adv-x="1100" 
d="M16 1984l371.999 0.000976562c12 -13.333 46.667 -124 104 -332c18.667 -50 52 -159.333 100 -328h12v460c2.66699 5.33301 130.667 70.666 384 195.999l4 -8v-916c0 -5.33301 -2.66699 -8 -8 -8h-968c-5.33301 0 -8 2.66699 -8 8v920
c0.666992 5.33301 3.33398 8 8.00098 8zM15.999 944.001l968 0.000976562c5.33301 -0.666992 8 -3.33398 8 -8.00098v-928c0 -5.33301 -2.66699 -8 -8 -8h-372c-6 0.666992 -39.333 100.667 -100 300l-108 360h-12v-452c-0.666992 -3.33301 -127.334 -67.333 -380.001 -192
l-4 8v912c0.666992 5.33301 3.33398 8 8.00098 8zM199.999 2464h191.999c98 0 164.667 -46.667 200 -140c5.33301 -20 8 -38.667 8 -56v-4h200v192c0.666992 5.33301 3.33398 8 8.00098 8h184c5.33301 -0.666992 8 -3.33398 8 -8v-196c0 -103.333 -60 -168.666 -180 -196
h-224c-92 0 -156 52 -192 156c-2.66699 18 -4 32.667 -4 44h-200v-192c0 -5.33301 -2.66699 -8 -8 -8h-184c-5.33301 0 -8 2.66699 -8 8v192c0 95.333 52 160.666 156 196c18 2.66699 32.667 4 44 4z" />
    <glyph glyph-name="ograve" unicode="&#xf2;" 
d="M820 1984c141.333 0 256 -85.332 344 -255.999c13.333 -39.333 20 -71.333 20 -96v-576c0 -5.33301 -2.66699 -8 -8 -8h-368c-5.33301 0 -8 2.66699 -8 8v536c0 5.33301 -2.66699 8 -8 8h-400c-5.33301 -0.666992 -8 -3.33398 -8 -8.00098v-536
c0 -5.33301 -2.66699 -8 -8 -8h-368c-5.33301 0 -8 2.66699 -8 8v492c0 130 16 208.667 48 236c80.667 133.333 194 200 340 200h432zM8 944.001l367.997 0.00195312c5.33301 -0.666992 8 -3.33398 8 -8.00098v-544c0.666992 -5.33301 3.33398 -8 8.00098 -8h400
c5.33301 0 8 2.66699 8 8v544c0.666992 5.33301 3.33398 8 8.00098 8h368c5.33301 -0.666992 8 -3.33398 8 -8.00098v-560c0 -132.667 -73.333 -244.667 -220 -336c-51.333 -26.667 -98 -40 -140 -40h-452c-144.667 0 -258 78.667 -340 236c-21.333 40.667 -32 86 -32 136
v564c0.666992 5.33301 3.33398 8 8.00098 8zM403.997 2596l364 -364c-2 -5.33301 -56.667 -60 -164 -164l-364 364c2 5.33301 56.667 60 164 164z" />
    <glyph glyph-name="oacute" unicode="&#xf3;" 
d="M820 1984c141.333 0 256 -85.332 344 -255.999c13.333 -39.333 20 -71.333 20 -96v-576c0 -5.33301 -2.66699 -8 -8 -8h-368c-5.33301 0 -8 2.66699 -8 8v536c0 5.33301 -2.66699 8 -8 8h-400c-5.33301 -0.666992 -8 -3.33398 -8 -8.00098v-536
c0 -5.33301 -2.66699 -8 -8 -8h-368c-5.33301 0 -8 2.66699 -8 8v492c0 130 16 208.667 48 236c80.667 133.333 194 200 340 200h432zM8 944.001l367.997 0.00195312c5.33301 -0.666992 8 -3.33398 8 -8.00098v-544c0.666992 -5.33301 3.33398 -8 8.00098 -8h400
c5.33301 0 8 2.66699 8 8v544c0.666992 5.33301 3.33398 8 8.00098 8h368c5.33301 -0.666992 8 -3.33398 8 -8.00098v-560c0 -132.667 -73.333 -244.667 -220 -336c-51.333 -26.667 -98 -40 -140 -40h-452c-144.667 0 -258 78.667 -340 236c-21.333 40.667 -32 86 -32 136
v564c0.666992 5.33301 3.33398 8 8.00098 8zM779.997 2591c5.33301 -2 60 -56.667 164 -164l-364 -364c-5.33301 2 -60 56.667 -164 164z" />
    <glyph glyph-name="ocircumflex" unicode="&#xf4;" 
d="M820 1984c141.333 0 256 -85.332 344 -255.999c13.333 -39.333 20 -71.333 20 -96v-576c0 -5.33301 -2.66699 -8 -8 -8h-368c-5.33301 0 -8 2.66699 -8 8v536c0 5.33301 -2.66699 8 -8 8h-400c-5.33301 -0.666992 -8 -3.33398 -8 -8.00098v-536
c0 -5.33301 -2.66699 -8 -8 -8h-368c-5.33301 0 -8 2.66699 -8 8v492c0 130 16 208.667 48 236c80.667 133.333 194 200 340 200h432zM8 944.001l367.997 0.00195312c5.33301 -0.666992 8 -3.33398 8 -8.00098v-544c0.666992 -5.33301 3.33398 -8 8.00098 -8h400
c5.33301 0 8 2.66699 8 8v544c0.666992 5.33301 3.33398 8 8.00098 8h368c5.33301 -0.666992 8 -3.33398 8 -8.00098v-560c0 -132.667 -73.333 -244.667 -220 -336c-51.333 -26.667 -98 -40 -140 -40h-452c-144.667 0 -258 78.667 -340 236c-21.333 40.667 -32 86 -32 136
v564c0.666992 5.33301 3.33398 8 8.00098 8zM591.997 2591c5.33301 -2 60 -56.667 164 -164l-364 -364c-5.33301 2 -60 56.667 -164 164zM791.997 2391c5.33301 -2 60 -56.667 164 -164c-2 -5.33301 -56.667 -60 -164 -164c-5.33301 2 -60 56.667 -164 164
c2 5.33301 56.667 60 164 164z" />
    <glyph glyph-name="otilde" unicode="&#xf5;" 
d="M820 1984c141.333 0 256 -85.332 344 -255.999c13.333 -39.333 20 -71.333 20 -96v-576c0 -5.33301 -2.66699 -8 -8 -8h-368c-5.33301 0 -8 2.66699 -8 8v536c0 5.33301 -2.66699 8 -8 8h-400c-5.33301 -0.666992 -8 -3.33398 -8 -8.00098v-536
c0 -5.33301 -2.66699 -8 -8 -8h-368c-5.33301 0 -8 2.66699 -8 8v492c0 130 16 208.667 48 236c80.667 133.333 194 200 340 200h432zM8 944.001l367.997 0.00195312c5.33301 -0.666992 8 -3.33398 8 -8.00098v-544c0.666992 -5.33301 3.33398 -8 8.00098 -8h400
c5.33301 0 8 2.66699 8 8v544c0.666992 5.33301 3.33398 8 8.00098 8h368c5.33301 -0.666992 8 -3.33398 8 -8.00098v-560c0 -132.667 -73.333 -244.667 -220 -336c-51.333 -26.667 -98 -40 -140 -40h-452c-144.667 0 -258 78.667 -340 236c-21.333 40.667 -32 86 -32 136
v564c0.666992 5.33301 3.33398 8 8.00098 8zM291.997 2464l191.999 0.000976562c98 0 164.667 -46.667 200 -140c5.33301 -20 8 -38.667 8 -56v-4h200v192c0.666992 5.33301 3.33398 8 8.00098 8h184c5.33301 -0.666992 8 -3.33398 8 -8v-196
c0 -103.333 -60 -168.666 -180 -196h-224c-92 0 -156 52 -192 156c-2.66699 18 -4 32.667 -4 44h-200v-192c0 -5.33301 -2.66699 -8 -8 -8h-184c-5.33301 0 -8 2.66699 -8 8v192c0 95.333 52 160.666 156 195.999c18 2.66699 32.667 4 44 4z" />
    <glyph glyph-name="odieresis" unicode="&#xf6;" 
d="M820 1984c141.333 0 256 -85.332 344 -255.999c13.333 -39.333 20 -71.333 20 -96v-576c0 -5.33301 -2.66699 -8 -8 -8h-368c-5.33301 0 -8 2.66699 -8 8v536c0 5.33301 -2.66699 8 -8 8h-400c-5.33301 -0.666992 -8 -3.33398 -8 -8.00098v-536
c0 -5.33301 -2.66699 -8 -8 -8h-368c-5.33301 0 -8 2.66699 -8 8v492c0 130 16 208.667 48 236c80.667 133.333 194 200 340 200h432zM8 944.001l367.997 0.00195312c5.33301 -0.666992 8 -3.33398 8 -8.00098v-544c0.666992 -5.33301 3.33398 -8 8.00098 -8h400
c5.33301 0 8 2.66699 8 8v544c0.666992 5.33301 3.33398 8 8.00098 8h368c5.33301 -0.666992 8 -3.33398 8 -8.00098v-560c0 -132.667 -73.333 -244.667 -220 -336c-51.333 -26.667 -98 -40 -140 -40h-452c-144.667 0 -258 78.667 -340 236c-21.333 40.667 -32 86 -32 136
v564c0.666992 5.33301 3.33398 8 8.00098 8zM360.997 2420c88 0 148.002 -49.332 180.002 -147.999c0 -6.66699 1.33301 -17.334 4 -32.001c0 -84 -49.333 -142.667 -148 -176c-6.66699 0 -17.334 -1.33301 -32.001 -4c-84 0 -142.667 49.333 -176 148v44
c0 77.333 48 132 144 164c15.333 0 24.666 1.33301 27.999 4zM810.999 2420c88 0 148.002 -49.333 180.002 -148c0 -6.66699 1.33301 -17.334 4 -32c0 -84 -49.333 -142.667 -148 -176c-6.66699 0 -17.334 -1.33301 -32.001 -4c-84 0 -142.667 49.333 -176 148v44
c0 77.333 48 132 144 164c15.333 0 24.666 1.33301 27.999 4z" />
    <glyph glyph-name="divide" unicode="&#xf7;" horiz-adv-x="1014" 
 />
    <glyph glyph-name="oslash" unicode="&#xf8;" horiz-adv-x="1010" 
 />
    <glyph glyph-name="ugrave" unicode="&#xf9;" 
d="M1180 1976l3.99902 -7.99902v-916c0 -5.33301 -2.66699 -8 -8 -8h-368c-5.33301 0 -8 2.66699 -8 8v728c0.666992 3.33301 127.334 68.666 380.001 195.999zM3.99902 1968c252.667 -124.667 379.333 -188.667 380 -192v-724c0 -5.33301 -2.66699 -8 -8 -8h-368
c-5.33301 0 -8 2.66699 -8 8v908zM7.99805 940.001l367.997 0.00195312c5.33301 -0.666992 8 -3.33398 8 -8.00098v-540c0.666992 -5.33301 3.33398 -8 8.00098 -8h400c5.33301 0 8 2.66699 8 8v540c0.666992 5.33301 3.33398 8 8.00098 8h368
c5.33301 -0.666992 8 -3.33398 8 -8.00098v-552c-10 -89.333 -27.333 -152 -52 -188c-94 -128 -199.333 -192 -316 -192h-452c-125.333 0 -232 69.333 -320 208c-29.333 59.333 -44 110 -44 152v572c0.666992 5.33301 3.33398 8 8.00098 8zM403.995 2596l364 -364
c-2 -5.33301 -56.667 -60 -164 -164l-364 364c2 5.33301 56.667 60 164 164z" />
    <glyph glyph-name="uacute" unicode="&#xfa;" 
d="M1180 1976l3.99902 -7.99902v-916c0 -5.33301 -2.66699 -8 -8 -8h-368c-5.33301 0 -8 2.66699 -8 8v728c0.666992 3.33301 127.334 68.666 380.001 195.999zM3.99902 1968c252.667 -124.667 379.333 -188.667 380 -192v-724c0 -5.33301 -2.66699 -8 -8 -8h-368
c-5.33301 0 -8 2.66699 -8 8v908zM7.99805 940.001l367.997 0.00195312c5.33301 -0.666992 8 -3.33398 8 -8.00098v-540c0.666992 -5.33301 3.33398 -8 8.00098 -8h400c5.33301 0 8 2.66699 8 8v540c0.666992 5.33301 3.33398 8 8.00098 8h368
c5.33301 -0.666992 8 -3.33398 8 -8.00098v-552c-10 -89.333 -27.333 -152 -52 -188c-94 -128 -199.333 -192 -316 -192h-452c-125.333 0 -232 69.333 -320 208c-29.333 59.333 -44 110 -44 152v572c0.666992 5.33301 3.33398 8 8.00098 8zM779.995 2591
c5.33301 -2 60 -56.667 164 -164l-364 -364c-5.33301 2 -60 56.667 -164 164z" />
    <glyph glyph-name="ucircumflex" unicode="&#xfb;" 
d="M1180 1976l3.99902 -7.99902v-916c0 -5.33301 -2.66699 -8 -8 -8h-368c-5.33301 0 -8 2.66699 -8 8v728c0.666992 3.33301 127.334 68.666 380.001 195.999zM3.99902 1968c252.667 -124.667 379.333 -188.667 380 -192v-724c0 -5.33301 -2.66699 -8 -8 -8h-368
c-5.33301 0 -8 2.66699 -8 8v908zM7.99805 940.001l367.997 0.00195312c5.33301 -0.666992 8 -3.33398 8 -8.00098v-540c0.666992 -5.33301 3.33398 -8 8.00098 -8h400c5.33301 0 8 2.66699 8 8v540c0.666992 5.33301 3.33398 8 8.00098 8h368
c5.33301 -0.666992 8 -3.33398 8 -8.00098v-552c-10 -89.333 -27.333 -152 -52 -188c-94 -128 -199.333 -192 -316 -192h-452c-125.333 0 -232 69.333 -320 208c-29.333 59.333 -44 110 -44 152v572c0.666992 5.33301 3.33398 8 8.00098 8zM591.995 2591
c5.33301 -2 60 -56.667 164 -164l-364 -364c-5.33301 2 -60 56.667 -164 164zM791.995 2391c5.33301 -2 60 -56.667 164 -164c-2 -5.33301 -56.667 -60 -164 -164c-5.33301 2 -60 56.667 -164 164c2 5.33301 56.667 60 164 164z" />
    <glyph glyph-name="udieresis" unicode="&#xfc;" 
d="M1180 1976l3.99902 -7.99902v-916c0 -5.33301 -2.66699 -8 -8 -8h-368c-5.33301 0 -8 2.66699 -8 8v728c0.666992 3.33301 127.334 68.666 380.001 195.999zM3.99902 1968c252.667 -124.667 379.333 -188.667 380 -192v-724c0 -5.33301 -2.66699 -8 -8 -8h-368
c-5.33301 0 -8 2.66699 -8 8v908zM7.99805 940.001l367.997 0.00195312c5.33301 -0.666992 8 -3.33398 8 -8.00098v-540c0.666992 -5.33301 3.33398 -8 8.00098 -8h400c5.33301 0 8 2.66699 8 8v540c0.666992 5.33301 3.33398 8 8.00098 8h368
c5.33301 -0.666992 8 -3.33398 8 -8.00098v-552c-10 -89.333 -27.333 -152 -52 -188c-94 -128 -199.333 -192 -316 -192h-452c-125.333 0 -232 69.333 -320 208c-29.333 59.333 -44 110 -44 152v572c0.666992 5.33301 3.33398 8 8.00098 8zM360.995 2420
c88 0 148.002 -49.332 180.002 -147.999c0 -6.66699 1.33301 -17.334 4 -32.001c0 -84 -49.333 -142.667 -148 -176c-6.66699 0 -17.334 -1.33301 -32.001 -4c-84 0 -142.667 49.333 -176 148v44c0 77.333 48 132 144 164c15.333 0 24.666 1.33301 27.999 4zM810.997 2420
c88 0 148.002 -49.333 180.002 -148c0 -6.66699 1.33301 -17.334 4 -32c0 -84 -49.333 -142.667 -148 -176c-6.66699 0 -17.334 -1.33301 -32.001 -4c-84 0 -142.667 49.333 -176 148v44c0 77.333 48 132 144 164c15.333 0 24.666 1.33301 27.999 4z" />
    <glyph glyph-name="yacute" unicode="&#xfd;" horiz-adv-x="868" 
 />
    <glyph glyph-name="thorn" unicode="&#xfe;" horiz-adv-x="1010" 
 />
    <glyph glyph-name="ydieresis" unicode="&#xff;" horiz-adv-x="868" 
 />
    <glyph glyph-name="dotlessi" unicode="&#x131;" horiz-adv-x="514" 
 />
    <glyph glyph-name="circumflex" unicode="&#x2c6;" horiz-adv-x="828" 
d="M364 2181c5.33301 -2 60 -56.667 164 -164l-364 -364c-5.33301 2 -60 56.667 -164 164zM564 1981c5.33301 -2 60 -56.667 164 -164c-2 -5.33301 -56.667 -60 -164 -164c-5.33301 2 -60 56.667 -164 164c2 5.33301 56.667 60 164 164z" />
    <glyph glyph-name="caron" unicode="&#x2c7;" horiz-adv-x="1024" 
 />
    <glyph glyph-name="uni02C9" unicode="&#x2c9;" horiz-adv-x="1024" 
 />
    <glyph glyph-name="breve" unicode="&#x2d8;" horiz-adv-x="1024" 
 />
    <glyph glyph-name="dotaccent" unicode="&#x2d9;" horiz-adv-x="1024" 
 />
    <glyph glyph-name="ring" unicode="&#x2da;" horiz-adv-x="660" 
d="M280 2042c102.667 0 185.333 -52 248 -156c21.333 -44 32 -85.333 32 -124c0 -102 -52 -184.667 -156 -248c-44 -21.333 -85.333 -32 -124 -32c-124 0 -214.667 70.667 -272 212c-2.66699 37.333 -5.33398 57.333 -8.00098 60l4 8c0 2.66699 -1.33301 4 -4 4
c0 91.333 46.667 170 140 236c50.667 26.667 97.334 40 140.001 40z" />
    <glyph glyph-name="ogonek" unicode="&#x2db;" horiz-adv-x="1024" 
 />
    <glyph glyph-name="tilde" unicode="&#x2dc;" horiz-adv-x="1100" 
d="M200 2054h191.999c98 0 164.667 -46.667 200 -140c5.33301 -20 8 -38.667 8 -56v-4h200v192c0.666992 5.33301 3.33398 8 8.00098 8h184c5.33301 -0.666992 8 -3.33398 8 -8v-196c0 -103.333 -60 -168.666 -180 -195.999h-224c-92 0 -156 52 -192 156
c-2.66699 18 -4 32.667 -4 44h-200v-192c0 -5.33301 -2.66699 -8 -8 -8h-184c-5.33301 0 -8 2.66699 -8 8v192c0 95.333 52 160.666 156 195.999c18 2.66699 32.667 4 44 4z" />
    <glyph glyph-name="hungarumlaut" unicode="&#x2dd;" horiz-adv-x="1024" 
 />
    <glyph glyph-name="endash" unicode="&#x2013;" horiz-adv-x="1108" 
 />
    <glyph glyph-name="emdash" unicode="&#x2014;" horiz-adv-x="2048" 
 />
    <glyph glyph-name="quoteleft" unicode="&#x2018;" horiz-adv-x="557" 
 />
    <glyph glyph-name="quoteright" unicode="&#x2019;" horiz-adv-x="557" 
 />
    <glyph glyph-name="quotesinglbase" unicode="&#x201a;" horiz-adv-x="557" 
 />
    <glyph glyph-name="quotedblleft" unicode="&#x201c;" horiz-adv-x="910" 
 />
    <glyph glyph-name="quotedblright" unicode="&#x201d;" horiz-adv-x="910" 
 />
    <glyph glyph-name="quotedblbase" unicode="&#x201e;" horiz-adv-x="910" 
 />
    <glyph glyph-name="dagger" unicode="&#x2020;" horiz-adv-x="1014" 
 />
    <glyph glyph-name="daggerdbl" unicode="&#x2021;" horiz-adv-x="1014" 
 />
    <glyph glyph-name="bullet" unicode="&#x2022;" horiz-adv-x="1024" 
 />
    <glyph glyph-name="ellipsis" unicode="&#x2026;" horiz-adv-x="2048" 
 />
    <glyph glyph-name="guilsinglleft" unicode="&#x2039;" horiz-adv-x="631" 
 />
    <glyph glyph-name="guilsinglright" unicode="&#x203a;" horiz-adv-x="631" 
 />
    <glyph glyph-name="fraction" unicode="&#x2044;" horiz-adv-x="342" 
 />
    <glyph glyph-name="fraction" unicode="&#x2215;" horiz-adv-x="342" 
 />
    <glyph glyph-name="franc" unicode="&#x20a3;" horiz-adv-x="1014" 
 />
    <glyph glyph-name="lira" unicode="&#x20a4;" horiz-adv-x="1014" 
 />
    <glyph glyph-name="peseta" unicode="&#x20a7;" horiz-adv-x="2028" 
 />
    <glyph glyph-name="Euro" unicode="&#x20ac;" horiz-adv-x="1014" 
 />
    <glyph glyph-name="afii61352" unicode="&#x2116;" horiz-adv-x="2271" 
 />
    <glyph glyph-name="trademark" unicode="&#x2122;" horiz-adv-x="1497" 
 />
    <glyph glyph-name="partialdiff" unicode="&#x2202;" horiz-adv-x="1014" 
 />
    <glyph glyph-name="Delta" unicode="&#x2206;" horiz-adv-x="1081" 
 />
    <glyph glyph-name="product" unicode="&#x220f;" horiz-adv-x="1515" 
 />
    <glyph glyph-name="summation" unicode="&#x2211;" horiz-adv-x="1206" 
 />
    <glyph glyph-name="minus" unicode="&#x2212;" horiz-adv-x="1014" 
 />
    <glyph glyph-name="radical" unicode="&#x221a;" horiz-adv-x="1014" 
 />
    <glyph glyph-name="infinity" unicode="&#x221e;" horiz-adv-x="1014" 
 />
    <glyph glyph-name="integral" unicode="&#x222b;" horiz-adv-x="665" 
 />
    <glyph glyph-name="approxequal" unicode="&#x2248;" horiz-adv-x="1014" 
 />
    <glyph glyph-name="lessequal" unicode="&#x2264;" horiz-adv-x="1014" 
 />
    <glyph glyph-name="greaterequal" unicode="&#x2265;" horiz-adv-x="1014" 
 />
    <glyph glyph-name="uniF001" unicode="&#xf001;" horiz-adv-x="1073" 
 />
    <glyph glyph-name="uniF001" unicode="&#xfb01;" horiz-adv-x="1073" 
 />
    <glyph glyph-name="uniF002" unicode="&#xf002;" horiz-adv-x="1081" 
 />
    <glyph glyph-name="uniF002" unicode="&#xfb02;" horiz-adv-x="1081" 
 />
    <glyph glyph-name=".null" horiz-adv-x="0" 
 />
    <glyph glyph-name="nonmarkingreturn" horiz-adv-x="508" 
 />
    </font>
</defs>
</svg>
