<?xml version="1.0" standalone="no"?>
<!DOCTYPE svg PUBLIC "-//W3C//DTD SVG 1.1//EN" "http://www.w3.org/Graphics/SVG/1.1/DTD/svg11.dtd" >
<svg>
<metadata>
Created by FontForge 20090914 at Thu Feb  9 22:53:56 2017
 By www-data
The Gould St &#194;&#169; (Southype). 2016. All Rights Reserved www.southype.com free for personal use
</metadata>
<defs>
<font id="TheGouldSt" horiz-adv-x="660" >
  <font-face 
    font-family="The Gould St"
    font-weight="400"
    font-stretch="normal"
    units-per-em="1000"
    panose-1="2 0 5 0 0 0 0 0 0 0"
    ascent="800"
    descent="-200"
    x-height="800"
    cap-height="800.001"
    bbox="-116.001 -316.001 1160 1190"
    underline-thickness="150"
    underline-position="-142"
    unicode-range="U+0020-U+F002"
  />
<missing-glyph horiz-adv-x="1024" 
 />
    <glyph glyph-name=".notdef" horiz-adv-x="1024" 
 />
    <glyph glyph-name="space" unicode=" " horiz-adv-x="830" 
 />
    <glyph glyph-name="space" unicode="&#xa0;" horiz-adv-x="830" 
 />
    <glyph glyph-name="exclam" unicode="!" horiz-adv-x="300" 
d="M8 800l183.999 0.000976562c5.33301 -0.666992 8 -3.33398 8 -8.00098v-544c0 -5.33301 -2.66699 -8 -8 -8h-184c-5.33301 0 -8 2.66699 -8 8v544c0.666992 5.33301 3.33398 8 8.00098 8zM103.999 200.001c56 0 88 -34.667 96 -104c0 -56 -34.667 -88 -104 -96
c-56 0 -88 34.667 -96 104c0 56 34.667 88 104 96z" />
    <glyph glyph-name="quotedbl" unicode="&#x22;" horiz-adv-x="592" 
d="M128 800c56 0 87.999 -34.667 95.999 -104c-6 -56 -60.667 -149.333 -164 -280c-18 -10.667 -30 -16 -36 -16h-4c-9.33301 0 -16 14.667 -20 44v12c12 213.333 32 320 60 320c14.667 16 37.334 24 68.001 24zM399.999 800c42.667 0 73.332 -23.999 91.999 -71.999v-40
c-16 -72.667 -69.333 -163.334 -160 -272.001c-18 -10.667 -30 -16 -36 -16h-4c-9.33301 0 -16 14.667 -20 44v12c12 213.333 32 320 60 320c14.667 16 37.334 24 68.001 24z" />
    <glyph glyph-name="numbersign" unicode="#" horiz-adv-x="900" 
d="M244 800l187.998 0.000976562l8 -4l-36 -116h160c22 80 35.333 120 40 120h188l8 -4l-36 -116c24 0 36 -2.66699 36 -8v-184c0 -5.33301 -2.66699 -8 -8 -8h-88l-48 -160h96c5.33301 -0.666992 8 -3.33398 8 -8.00098v-184c0 -5.33301 -2.66699 -8 -8 -8h-156
c-22 -80 -35.333 -120 -40 -120h-188l-8 4l36 116h-160c-22 -80 -35.333 -120 -40 -120h-188l-8 4l36 116c-24 0 -36 2.66699 -36 8v184c0.666992 5.33301 3.33398 8 8.00098 8h88l48 160h-96c-5.33301 0 -8 2.66699 -8 8v184c0.666992 5.33301 3.33398 8 8.00098 8h156
c22 80 35.333 120 40 120zM343.998 480.001l-48 -160h160l48 160h-160z" />
    <glyph glyph-name="dollar" unicode="$" 
d="M284 804l3.99805 -0.000976562c128 0 213.333 -49.333 256 -148c10.667 -24.667 16 -55.334 16 -92.001v-12c0 -5.33301 -2.66699 -8 -8 -8h-176c-4.66699 0 -12.667 14.667 -24 44c-3.33301 0 -14 4 -32 12v-100c69.333 0 128 -40 176 -120c16 -32 24 -69.333 24 -112
v-24c0 -119.333 -58.667 -196.666 -176 -231.999c-40 -8 -74.667 -12 -104 -12c0 4.66699 -26.667 11.334 -80 20.001c-106.667 44 -160 118.667 -160 224v12c0.666992 5.33301 3.33398 8 8.00098 8h172c16.667 -32 27.334 -48 32.001 -48
c8 -5.33301 17.333 -9.33301 28 -12v108c-72.667 0 -136.667 50.667 -192 152c-5.33301 17.333 -8 29.333 -8 36v100c28.667 136 110 204 244 204zM231.998 551.999v-8c4.66699 -24 20.667 -36 48 -36v100c-28.667 0 -44.667 -18.667 -48 -56zM279.998 303.999v-100
c32 0 48 21.333 48 64c0 16.667 -16 28.667 -48 36z" />
    <glyph glyph-name="percent" unicode="%" 
d="M120 800c80 -10.667 120 -50.667 120 -120c-10.667 -80 -50.667 -120 -120 -120c-80 10.667 -120 50.667 -120 120c10.667 80 50.667 120 120 120zM364 800h192v-4c-216 -491.333 -336 -756.666 -360 -795.999h-192v4c216 491.333 336 756.666 360 795.999zM76 688v-8
c3.33301 -24 15.333 -36 36 -36h8c24 3.33301 36 15.333 36 36v8c-3.33301 24 -15.333 36 -36 36h-8c-24 -3.33301 -36 -15.333 -36 -36zM440 240c80 -10.667 120 -50.667 120 -120c-10.667 -80 -50.667 -120 -120 -120c-80 10.667 -120 50.667 -120 120
c10.667 80 50.667 120 120 120zM400 128v-8c3.33301 -24 15.333 -36 36 -36h8c24 3.33301 36 15.333 36 36v8c-3.33301 24 -15.333 36 -36 36h-8c-24 -3.33301 -36 -15.333 -36 -36z" />
    <glyph glyph-name="ampersand" unicode="&#x26;" horiz-adv-x="820" 
d="M260 800h7.99902c119.333 0 202 -50.667 248 -152c8 -30 12 -54 12 -72c0 -5.33301 -2.66699 -8 -8 -8h-180c-24 26.667 -46.667 40 -68 40h-12c-42.667 -6 -64 -26 -64 -60s21.333 -54 64 -60h12c21.333 0 44 13.333 68 40h180l8 -4
c-6.66699 -42.667 -26.667 -84 -60 -124v-4c0.666992 -5.33301 3.33398 -8 8.00098 -8c8.66699 17.333 26 37.333 52 60h192v-4l-160 -196l160 -196v-4h-192c-2.66699 0 -17.334 14.667 -44.001 44h-4c-26 -56 -48.5 -85.333 -67.5 -88s-48.5 -4 -88.5 -4h-80
c-124.667 0 -204.667 62.667 -240 188l-4 28c0 87.333 14.667 142 44 164l20 24c-26.667 19.333 -48 71.333 -64 156v12c0 102 60 175.333 180 220c26.667 5.33301 53.334 8 80.001 8zM195.999 248c0 -34 21.333 -54 64 -60h12c42.667 6 64 26 64 60s-21.333 54 -64 60h-12
c-42.667 -6 -64 -26 -64 -60z" />
    <glyph glyph-name="quotesingle" unicode="'" horiz-adv-x="320" 
d="M128 800c42.667 0 73.332 -23.999 91.999 -71.999v-40c-16 -72.667 -69.333 -163.334 -160 -272.001c-18 -10.667 -30 -16 -36 -16h-4c-9.33301 0 -16 14.667 -20 44v12c12 213.333 32 320 60 320c14.667 16 37.334 24 68.001 24z" />
    <glyph glyph-name="parenleft" unicode="(" horiz-adv-x="460" 
d="M256 800l96 0.00195312c5.33301 -0.666992 8 -3.33398 8 -8.00098v-184c0 -5.33301 -2.66699 -8 -8 -8h-56c-64 0 -96 -24 -96 -72v-532c0 -50.667 30.667 -76 92 -76h60c5.33301 -0.666992 8 -3.33398 8 -8.00098v-184c0 -5.33301 -2.66699 -8 -8 -8h-84
c-132 0 -220 66.667 -264 200c-2.66699 18 -4 32.667 -4 44v592c0 110 62.667 187.333 188 232c21.333 8 44 12 68 12z" />
    <glyph glyph-name="parenright" unicode=")" horiz-adv-x="460" 
d="M172 788c125.333 -44.667 188 -122.002 188 -232.002v-592c0 -11.333 -1.33301 -26 -4 -44c-44 -133.333 -132 -200 -264 -200h-84c-5.33301 0 -8 2.66699 -8 8v184c0 4.66699 2.66699 7.33398 8 8.00098h60c61.333 0 92 25.333 92 76v532c0 48 -32 72 -96 72h-56
c-5.33301 0 -8 2.66699 -8 8v184c0 4.66699 2.66699 7.33398 8 8.00098h96c24 0 46.667 -4 68 -12z" />
    <glyph glyph-name="asterisk" unicode="*" 
d="M228 560l103.998 0.000976562c5.33301 -0.666992 8 -3.33398 8 -8.00098v-148l108 104h4c4 0 21.333 -17.333 52 -52v-4c-71.333 -73.333 -107.333 -110.666 -108 -111.999h156c5.33301 -0.666992 8 -3.33398 8 -8.00098v-104c0 -5.33301 -2.66699 -8 -8 -8h-148
l100 -104v-4c0 -4 -17.333 -21.333 -52 -52h-4l-108 104v-156c0 -5.33301 -2.66699 -8 -8 -8h-104c-5.33301 0 -8 2.66699 -8 8v156l-108 -104h-4c-4 0 -21.333 17.333 -52 52v4l100 104h-148c-5.33301 0 -8 2.66699 -8 8v104c0.666992 5.33301 3.33398 8 8.00098 8h156
l-108 112v4c0 4 17.333 21.333 52 52h4l108 -104v148c0.666992 5.33301 3.33398 8 8.00098 8z" />
    <glyph glyph-name="plus" unicode="+" 
d="M188 560l183.998 0.00195312c5.33301 -0.666992 8 -3.33398 8 -8.00098v-172h172c5.33301 -0.666992 8 -3.33398 8 -8.00098v-184c0 -5.33301 -2.66699 -8 -8 -8h-172v-172c0 -5.33301 -2.66699 -8 -8 -8h-184c-5.33301 0 -8 2.66699 -8 8v172h-172
c-5.33301 0 -8 2.66699 -8 8v184c0.666992 5.33301 3.33398 8 8.00098 8h172v172c0.666992 5.33301 3.33398 8 8.00098 8z" />
    <glyph glyph-name="comma" unicode="," horiz-adv-x="320" 
d="M128 200c42.667 0 73.332 -23.999 91.999 -71.999v-40c-16 -72.667 -69.333 -163.334 -160 -272.001c-18 -10.667 -30 -16 -36 -16h-4c-9.33301 0 -16 14.667 -20 44v12c12 213.333 32 320 60 320c14.667 16 37.334 24 68.001 24z" />
    <glyph glyph-name="hyphen" unicode="-" 
d="M8 600l543.999 0.000976562c5.33301 -0.666992 8 -3.33398 8 -8.00098v-184c0 -5.33301 -2.66699 -8 -8 -8h-544c-5.33301 0 -8 2.66699 -8 8v184c0.666992 5.33301 3.33398 8 8.00098 8z" />
    <glyph glyph-name="hyphen" unicode="&#xad;" 
d="M8 600l543.999 0.000976562c5.33301 -0.666992 8 -3.33398 8 -8.00098v-184c0 -5.33301 -2.66699 -8 -8 -8h-544c-5.33301 0 -8 2.66699 -8 8v184c0.666992 5.33301 3.33398 8 8.00098 8z" />
    <glyph glyph-name="period" unicode="." horiz-adv-x="300" 
d="M104 200c56 0 88 -34.667 96 -104c0 -56 -34.667 -88 -104 -96c-56 0 -88 34.667 -96 104c0 56 34.667 88 104 96z" />
    <glyph glyph-name="slash" unicode="/" horiz-adv-x="652" 
d="M360 800h192v-4c-216 -491.333 -336 -756.666 -360 -795.999h-192v4c216 491.333 336 756.666 360 795.999z" />
    <glyph glyph-name="zero" unicode="0" horiz-adv-x="708" 
d="M256 804h88c130 0 216.667 -66.667 260 -200c2.66699 -17.333 4 -34.666 4 -51.999v-336c-20.667 -74.667 -50 -125.334 -88 -152.001c-63.333 -42.667 -119.333 -64 -168 -64l-24 4c-23.333 0 -50 -1.33301 -80 -4c-50 0 -111.333 28 -184 84
c-42.667 54.667 -64 112 -64 172v304c0 110 62.667 187.333 188 232c21.333 8 44 12 68 12zM200 280c0 -50.667 26.667 -76 80 -76h44c56 0 84 26.667 84 80v240c0 53.333 -30.667 80 -92 80h-20c-64 0 -96 -24 -96 -72v-252z" />
    <glyph glyph-name="one" unicode="1" horiz-adv-x="536" 
d="M240 800h188c5.33301 -0.666992 8 -3.33398 8 -8.00098v-784c0 -5.33301 -2.66699 -8 -8 -8h-184c-5.33301 0 -8 2.66699 -8 8v524h-4c-6.66699 -17.333 -20 -34.666 -40 -51.999h-192v4c148.667 202 228.667 307.333 240 316z" />
    <glyph glyph-name="two" unicode="2" horiz-adv-x="700" 
d="M244 800h92c121.333 0 205.333 -60 252 -180c8 -31.333 12 -67.333 12 -108v-264c0 -5.33301 -2.66699 -8 -8 -8h-312c-44 0 -69.333 -13.333 -76 -40h384c5.33301 -0.666992 8 -3.33398 8 -8.00098v-184c0 -5.33301 -2.66699 -8 -8 -8h-580c-5.33301 0 -8 2.66699 -8 8
v192c-0 117.333 73.333 197.333 220 240h180v44c0 72 -16 108 -48 108c0 4.66699 -16 7.33398 -48 8.00098h-20c-48 -2 -76 -11.333 -84 -28v-84c0 -5.33301 -2.66699 -8 -8 -8h-184c-5.33301 0 -8 2.66699 -8 8v108c-0 80 57.333 144 172 192c28.667 8 52.667 12 72 12z
" />
    <glyph glyph-name="three" unicode="3" 
d="M208 800l140 -0.00292969c99.333 0 168.666 -56 207.999 -168c2.66699 -18 4 -32.667 4 -44v-64c0 -39.333 -12 -80.666 -36 -123.999c24 -43.333 36 -84.666 36 -123.999v-64c0 -104 -58.667 -173.333 -176 -208c-14 -2.66699 -27.333 -4 -40 -4h-136
c-98 0 -166 57.333 -204 172c0 6.66699 -1.33301 17.334 -4 32.001c2.66699 43.333 4 86 4 128l8 4h180c5.33301 -0.666992 8 -3.33398 8 -8.00098v-76c0 -34.667 9.33301 -52 28 -52h84c32 0 48 9.33301 48 28v20c-2.66699 34.667 -9.33398 52 -20.001 52h-100
c-5.33301 0 -8 2.66699 -8 8v184c0.666992 5.33301 3.33398 8 8.00098 8h100c11.333 0 18 18.667 20 56c0 29.333 -10.667 44 -32 44h-100c-18.667 0 -28 -17.333 -28 -52v-68c0 -5.33301 -2.66699 -8 -8 -8h-180c-5.33301 0 -8 4 -8 12c0 21.333 -1.33301 60 -4 116
c0 52.667 30.667 107.334 92 164.001c38.667 24 77.334 36 116.001 36z" />
    <glyph glyph-name="four" unicode="4" 
d="M312 800c5.33301 -0.666992 7.99902 -3.33301 7.99902 -8c-48 -205.333 -72 -310.666 -72 -315.999h112v316c0.666992 5.33301 3.33398 8 8.00098 8h184c5.33301 -0.666992 8 -3.33398 8 -8.00098v-784c0 -5.33301 -2.66699 -8 -8 -8h-184c-5.33301 0 -8 2.66699 -8 8
v268h-352c-5.33301 0 -8 4 -8 12c26.667 122 66.667 292.667 120 512h192z" />
    <glyph glyph-name="five" unicode="5" horiz-adv-x="700" 
d="M8 800l579.998 0.00195312c5.33301 -0.666992 8 -3.33398 8 -8.00098v-184c0 -5.33301 -2.66699 -8 -8 -8h-384v-4c13.333 -30.667 40 -46 80 -46h308c5.33301 -0.666992 8 -3.33398 8 -8.00098v-254c0 -130 -48 -216.667 -144 -260c-40.667 -18.667 -78 -28 -112 -28
h-88c-120.667 -0 -204.667 57.333 -252 172c-2.66699 10.667 -4 21.334 -4 32.001v108c0.666992 5.33301 3.33398 8 8.00098 8h184c5.33301 -0.666992 8 -3.33398 8 -8.00098v-84c14 -18.667 42 -28 84 -28h16c66.667 0 100 28 100 84v76h-148
c-96.667 0 -172.667 48 -228 144c-16 30 -24 62 -24 96v192c0.666992 5.33301 3.33398 8 8.00098 8z" />
    <glyph glyph-name="six" unicode="6" 
d="M352 0l-139.999 -0.000976562c-96.667 0 -166 54.667 -208 164l-4 48v364c0 114 58.667 187.333 176 220c14 2.66699 27.333 4 40 4h336c5.33301 0 8 -2.66699 8 -8v-184c-0.666992 -5.33301 -3.33398 -8 -8.00098 -8h-304c-32 0 -48 -9.33301 -48 -28v-20
c0 -34.667 10.667 -52 32 -52h128c89.333 0 153.333 -54.667 192 -164c5.33301 -11.333 8 -32.666 8 -63.999v-52c0 -107.333 -56 -179.333 -168 -216c-14 -2.66699 -27.333 -4 -40 -4zM360.001 251.999c-2 32 -7.33301 48 -16 48h-112c-21.333 0 -32 -18.667 -32 -56
c0 -29.333 10.667 -44 32 -44h100c18.667 0 28 17.333 28 52z" />
    <glyph glyph-name="seven" unicode="7" 
d="M556 804c2.66699 -5.33301 3.99902 -9.33301 3.99902 -12c-29.333 -124 -96 -388 -200 -792h-192c-5.33301 0 -8 2.66699 -8 8l148 592h-300c-5.33301 0 -8 2.66699 -8 8v184c0.666992 5.33301 3.33398 8 8.00098 8h48c118 0 284.667 1.33301 500 4z" />
    <glyph glyph-name="eight" unicode="8" horiz-adv-x="628" 
d="M260 800h7.99902c119.333 0 202 -50.667 248 -152c8 -30 12 -54 12 -72v-36c0 -44 -20 -90.667 -60 -140v-4c34.667 -39.333 52 -71.333 52 -96v-36c2 -15.333 3 -30 3 -44c0 -88.667 -35.667 -156.667 -107 -204c-27.333 -10.667 -58 -16 -92 -16h-80
c-124.667 0 -204.667 62.667 -240 188l-4 28c0 87.333 14.667 142 44 164l20 24c-26.667 19.333 -48 71.333 -64 156v12c0 102 60 175.333 180 220c26.667 5.33301 53.334 8 80.001 8zM195.999 548c0 -34 21.333 -54 64 -60h12c42.667 6 64 26 64 60s-21.333 54 -64 60h-12
c-42.667 -6 -64 -26 -64 -60zM195.999 248c0 -34 21.333 -54 64 -60h12c42.667 6 64 26 64 60s-21.333 54 -64 60h-12c-42.667 -6 -64 -26 -64 -60z" />
    <glyph glyph-name="nine" unicode="9" 
d="M208 800l139.999 0.000976562c96.667 0 166 -54.667 208 -164l4 -48v-364c0 -114 -58.667 -187.333 -176 -220c-14 -2.66699 -27.333 -4 -40 -4h-336c-5.33301 0 -8 2.66699 -8 8v184c0.666992 5.33301 3.33398 8 8.00098 8h304c32 0 48 9.33301 48 28v20
c0 34.667 -10.667 52 -32 52h-128c-89.333 0 -153.333 54.667 -192 164c-5.33301 11.333 -8 32.666 -8 63.999v52c0 107.333 56 179.333 168 216c14 2.66699 27.333 4 40 4zM199.999 548.001c2 -32 7.33301 -48 16 -48h112c21.333 0 32 18.667 32 56
c0 29.333 -10.667 44 -32 44h-100c-18.667 0 -28 -17.333 -28 -52z" />
    <glyph glyph-name="colon" unicode=":" horiz-adv-x="300" 
d="M104 200c56 0 88 -34.667 96 -104c0 -56 -34.667 -88 -104 -96c-56 0 -88 34.667 -96 104c0 56 34.667 88 104 96zM104 700c56 0 88 -34.667 96 -104c0 -56 -34.667 -88 -104 -96c-56 0 -88 34.667 -96 104c0 56 34.667 88 104 96z" />
    <glyph glyph-name="semicolon" unicode=";" horiz-adv-x="320" 
d="M128 200c42.667 0 73.332 -23.999 91.999 -71.999v-40c-16 -72.667 -69.333 -163.334 -160 -272.001c-18 -10.667 -30 -16 -36 -16h-4c-9.33301 0 -16 14.667 -20 44v12c12 213.333 32 320 60 320c14.667 16 37.334 24 68.001 24zM103.998 700.001
c56 0 88 -34.667 96 -104c0 -56 -34.667 -88 -104 -96c-56 0 -88 34.667 -96 104c0 56 34.667 88 104 96z" />
    <glyph glyph-name="semicolon" unicode="&#x37e;" horiz-adv-x="320" 
d="M128 200c42.667 0 73.332 -23.999 91.999 -71.999v-40c-16 -72.667 -69.333 -163.334 -160 -272.001c-18 -10.667 -30 -16 -36 -16h-4c-9.33301 0 -16 14.667 -20 44v12c12 213.333 32 320 60 320c14.667 16 37.334 24 68.001 24zM103.998 700.001
c56 0 88 -34.667 96 -104c0 -56 -34.667 -88 -104 -96c-56 0 -88 34.667 -96 104c0 56 34.667 88 104 96z" />
    <glyph glyph-name="less" unicode="&#x3c;" 
d="M556 760l4 -8.00098v-184c0 -9.33301 -68 -30.666 -204 -63.999v-8c136 -33.333 204 -54.666 204 -63.999v-184l-4 -8l-552 160l-4 8v184c0 9.33301 68 30.666 204 63.999c12.667 5.33301 130 40 352 104z" />
    <glyph glyph-name="equal" unicode="=" 
d="M8 400l543.999 0.000976562c5.33301 -0.666992 8 -3.33398 8 -8.00098v-184c0 -5.33301 -2.66699 -8 -8 -8h-544c-5.33301 0 -8 2.66699 -8 8v184c0.666992 5.33301 3.33398 8 8.00098 8zM7.99902 701.001l543.999 0.000976562c5.33301 -0.666992 8 -3.33398 8 -8.00098
v-184c0 -5.33301 -2.66699 -8 -8 -8h-544c-5.33301 0 -8 2.66699 -8 8v184c0.666992 5.33301 3.33398 8 8.00098 8z" />
    <glyph glyph-name="greater" unicode="&#x3e;" 
d="M356 656c136 -33.333 204 -54.665 204 -63.998v-184l-4 -8l-552 -160l-4 8v184c0 9.33301 68 30.666 204 63.999v8c-136 33.333 -204 54.666 -204 63.999v184l4 8c222 -64 339.333 -98.667 352 -104z" />
    <glyph glyph-name="question" unicode="?" horiz-adv-x="704" 
d="M256 800l87.998 0.000976562c121.333 0 205.333 -60 252 -180c5.33301 -20 8 -38.667 8 -56v-136c0 -86 -53.333 -156.667 -160 -212c0 -10.667 -2.66699 -16 -8 -16h-184c-5.33301 0 -8 2.66699 -8 8v184c0.666992 5.33301 3.33398 8 8.00098 8h68c56 0 84 21.333 84 64
v72c0 42.667 -30.667 64 -92 64h-16c-61.333 0 -92 -20 -92 -60v-88c0 -5.33301 -2.66699 -8 -8 -8h-184c-5.33301 0 -8 2.66699 -8 8v48c0 17.333 -1.33301 34.666 -4 51.999c0 100 54.667 176 164 228c32.667 13.333 63.334 20 92.001 20zM343.998 160.001
c58.667 0 92 -26.667 100 -80c-8 -53.333 -41.333 -80 -100 -80c-58 0 -91.333 26.667 -100 80c8.66699 53.333 42 80 100 80z" />
    <glyph glyph-name="at" unicode="@" horiz-adv-x="2019" 
 />
    <glyph glyph-name="A" unicode="A" horiz-adv-x="780" 
d="M436 800c6 0 44.667 -126.667 116 -380c8 -20 50.667 -158.667 128 -416l-8 -4h-188c-4.66699 0 -18 40 -40 120h-208c-22 -80 -35.333 -120 -40 -120h-188l-8 4l240 796h196zM336 460c0 -8.66699 -13.333 -55.334 -40 -140.001h88
c-26.667 84.667 -40 131.334 -40 140.001h-8z" />
    <glyph glyph-name="B" unicode="B" 
d="M8 800l323.999 -0.00195312c102.667 0 176 -61.333 220 -184c5.33301 -20 8 -38.667 8 -56v-20c0 -41.333 -16 -88 -48 -140c32 -53.333 48 -94.666 48 -123.999v-36c0 -107.333 -58.667 -184.666 -176 -231.999c-12 -5.33301 -29.333 -8 -52 -8h-324
c-5.33301 0 -8 2.66699 -8 8v784c0.666992 5.33301 3.33398 8 8.00098 8zM199.999 619.998v-132h52c72 9.33301 108 30.666 108 63.999c0 32.667 -38.667 55.334 -116 68.001h-44zM199.999 307.998l0.000976562 -128.001h44c77.333 16.667 116 39.334 116 68.001v4
c-6.66699 37.333 -37.334 56 -92.001 56h-68z" />
    <glyph glyph-name="C" unicode="C" 
d="M404 800l72 0.000976562c15.333 0 36.666 -1.33301 63.999 -4c5.33301 2.66699 9.33301 4 12 4l4 -8v-184c0 -5.33301 -2.66699 -8 -8 -8h-132c-102 0 -171.333 -46.667 -208 -140c-5.33301 -34 -8 -54 -8 -60c0 -82 45.333 -144.667 136 -188c24.667 -8 50 -12 76 -12
c20 0 66.667 1.33301 140 4c2 -5.33301 4.66699 -20 8 -44c-2.66699 -29.333 -4 -56 -4 -80v-72c0 -5.33301 -2.66699 -8 -8 -8h-144c-185.333 0 -314.666 92 -387.999 276c-10.667 31.333 -16 59.333 -16 84v76c-0 103.333 53.333 200.666 160 291.999
c72.667 48 154 72 244 72z" />
    <glyph glyph-name="D" unicode="D" horiz-adv-x="760" 
d="M8 800h247.999c190.667 0 320 -92 388 -276c10.667 -38 16 -67.333 16 -88v-76c0 -97.333 -54.667 -193.333 -164 -288c-68 -48 -148 -72 -240 -72h-248c-5.33301 0 -8 2.66699 -8 8v784c0.666992 5.33301 3.33398 8 8.00098 8zM199.999 600l-0.000976562 -400h44
c106.667 0 176 52 208 156c2.66699 2.66699 5.33398 18.667 8.00098 48c0 88 -49.333 150.667 -148 188c-21.333 5.33301 -44 8 -68 8h-44z" />
    <glyph glyph-name="E" unicode="E" 
d="M8 800l543.999 0.00292969c5.33301 -0.666992 8 -3.33398 8 -8.00098v-184c0 -5.33301 -2.66699 -8 -8 -8h-352v-80h352c5.33301 -0.666992 8 -3.33398 8 -8.00098v-184c0 -5.33301 -2.66699 -8 -8 -8h-352v-120h352c5.33301 -0.666992 8 -3.33398 8 -8.00098v-184
c0 -5.33301 -2.66699 -8 -8 -8h-544c-5.33301 0 -8 2.66699 -8 8v784c0.666992 5.33301 3.33398 8 8.00098 8z" />
    <glyph glyph-name="F" unicode="F" 
d="M8 800l543.999 0.00195312c5.33301 -0.666992 8 -3.33398 8 -8.00098v-184c0 -5.33301 -2.66699 -8 -8 -8h-352v-80h352c5.33301 -0.666992 8 -3.33398 8 -8.00098v-184c0 -5.33301 -2.66699 -8 -8 -8h-352v-312c0 -5.33301 -2.66699 -8 -8 -8h-184
c-5.33301 0 -8 2.66699 -8 8v784c0.666992 5.33301 3.33398 8 8.00098 8z" />
    <glyph glyph-name="G" unicode="G" horiz-adv-x="760" 
d="M404 800l103.999 0.00195312c33.333 0 74.666 -1.33301 123.999 -4c4 2.66699 12 4 24 4l4 -8v-184c0 -5.33301 -2.66699 -8 -8 -8h-236c-102 0 -171.333 -46.667 -208 -140c-5.33301 -34 -8 -54 -8 -60c0 -84.667 48 -148.667 144 -192c26.667 -5.33301 50.667 -8 72 -8
h44v100h-112c-5.33301 0 -8 2.66699 -8 8v104c0.666992 5.33301 3.33398 8 8.00098 8h304c5.33301 -0.666992 8 -3.33398 8 -8.00098v-404c0 -5.33301 -2.66699 -8 -8 -8h-248c-185.333 0 -314.666 92 -387.999 276c-10.667 31.333 -16 59.333 -16 84v76
c-0 103.333 53.333 200.666 160 291.999c72.667 48 154 72 244 72z" />
    <glyph glyph-name="H" unicode="H" horiz-adv-x="780" 
d="M8 800l183.998 0.00195312c5.33301 -0.666992 8 -3.33398 8 -8.00098v-272h280v272c0.666992 5.33301 3.33398 8 8.00098 8h184c5.33301 -0.666992 8 -3.33398 8 -8.00098v-784c0 -5.33301 -2.66699 -8 -8 -8h-184c-5.33301 0 -8 2.66699 -8 8v312h-280v-312
c0 -5.33301 -2.66699 -8 -8 -8h-184c-5.33301 0 -8 2.66699 -8 8v784c0.666992 5.33301 3.33398 8 8.00098 8z" />
    <glyph glyph-name="I" unicode="I" horiz-adv-x="300" 
d="M8 800l183.999 0.000976562c5.33301 -0.666992 8 -3.33398 8 -8.00098v-784c0 -5.33301 -2.66699 -8 -8 -8h-184c-5.33301 0 -8 2.66699 -8 8v784c0.666992 5.33301 3.33398 8 8.00098 8z" />
    <glyph glyph-name="J" unicode="J" horiz-adv-x="620" 
d="M144 800l363.998 0.00195312c5.33301 0 8 -4 8 -12c0 -79.333 1.33301 -266 4 -560c-31.333 -152 -122 -228 -272 -228c-124.667 0 -206 66.667 -244 200c-2.66699 17.333 -4 34.666 -4 51.999v92c0.666992 5.33301 3.33398 8 8.00098 8h184
c5.33301 -0.666992 8 -3.33398 8 -8.00098v-104c12.667 -29.333 32.667 -44 60 -44s46 26.667 56 80v324h-172c-5.33301 0 -8 2.66699 -8 8v184c0.666992 5.33301 3.33398 8 8.00098 8z" />
    <glyph glyph-name="K" unicode="K" horiz-adv-x="620" 
d="M8 800l183.999 0.000976562c5.33301 -0.666992 8 -3.33398 8 -8.00098v-388h4c128 264 194.667 396 200 396h192c0 -8 -65.333 -141.333 -196 -400c130.667 -258.667 196 -392 196 -400h-192c-5.33301 0 -72 132 -200 396h-4v-388c0 -5.33301 -2.66699 -8 -8 -8h-184
c-5.33301 0 -8 2.66699 -8 8v784c0.666992 5.33301 3.33398 8 8.00098 8z" />
    <glyph glyph-name="L" unicode="L" 
d="M8 800l183.999 0.00195312c5.33301 -0.666992 8 -3.33398 8 -8.00098v-592h352c5.33301 -0.666992 8 -3.33398 8 -8.00098v-184c0 -5.33301 -2.66699 -8 -8 -8h-544c-5.33301 0 -8 2.66699 -8 8v784c0.666992 5.33301 3.33398 8 8.00098 8z" />
    <glyph glyph-name="M" unicode="M" horiz-adv-x="900" 
d="M8 800l187.997 0.000976562c10.667 -12 77.334 -188 200.001 -528h8c122.667 340 189.334 516 200.001 528h188c5.33301 -0.666992 8 -3.33398 8 -8.00098v-784c0 -5.33301 -2.66699 -8 -8 -8h-184c-5.33301 0 -8 2.66699 -8 8v252h-4
c-56 -161.333 -89.333 -248 -100 -260h-192c-10 11.333 -42 94 -96 248h-4v-240c0 -5.33301 -2.66699 -8 -8 -8h-188c-5.33301 0 -8 2.66699 -8 8v784c0.666992 5.33301 3.33398 8 8.00098 8z" />
    <glyph glyph-name="N" unicode="N" horiz-adv-x="780" 
d="M8 800l187.998 0.000976562c12 -9.33301 105.333 -164 280 -464h4v456c0.666992 5.33301 3.33398 8 8.00098 8h184c5.33301 -0.666992 8 -3.33398 8 -8.00098v-784c0 -5.33301 -2.66699 -8 -8 -8h-188c-12 9.33301 -105.333 164 -280 464h-4v-456
c0 -5.33301 -2.66699 -8 -8 -8h-184c-5.33301 0 -8 2.66699 -8 8v784c0.666992 5.33301 3.33398 8 8.00098 8z" />
    <glyph glyph-name="O" unicode="O" horiz-adv-x="900" 
d="M404 800c156 0 276.001 -77.332 360.001 -231.999c24 -54 36 -108.667 36 -164v-4c0 -178 -92 -304.667 -276 -380c-40.667 -13.333 -83.334 -20 -128.001 -20c-186.667 0 -316 100 -388 300c-5.33301 25.333 -8 45.333 -8 60v76c-0 103.333 53.333 200.666 160 291.999
c72.667 48 154 72 244 72zM200.001 400.001c0 -88 52.001 -153.334 156.001 -196.001c6 0 20.667 -1.33301 44 -4c85.333 0 150.666 53.333 195.999 160c0 6 1.33301 20.667 4 44c0 74 -40 132.667 -120 176c-28.667 13.333 -56.667 20 -84 20c-92 0 -156 -53.333 -192 -160
c-2.66699 -23.333 -4 -36.666 -4 -39.999z" />
    <glyph glyph-name="P" unicode="P" 
d="M8 800l307.999 0.000976562c120 0 200 -65.333 240 -196c2.66699 -14 4 -27.333 4 -40v-24c0 -98.667 -54.667 -173.334 -164 -224.001c-23.333 -8 -50 -12 -80 -12h-116v-296c0 -5.33301 -2.66699 -8 -8 -8h-184c-5.33301 0 -8 2.66699 -8 8v784
c0.666992 5.33301 3.33398 8 8.00098 8zM199.999 620.001v-136h48c74.667 14 112 36.667 112 68s-37.333 54 -112 68h-48z" />
    <glyph glyph-name="Q" unicode="Q" horiz-adv-x="900" 
d="M404 800c156 0 275.999 -77.332 359.999 -231.999c24 -54 36 -108.667 36 -164v-4c0 -132 -57.333 -242.667 -172 -332v-4c32 -61.333 48 -96 48 -104h-192c-5.33301 0 -13.333 14.667 -24 44l-48 -4h-8c-185.333 0 -314.666 92 -387.999 276
c-10.667 31.333 -16 59.333 -16 84v76c-0 103.333 53.333 200.666 160 291.999c72.667 48 154 72 244 72zM199.999 400.001c0 -78.667 42.667 -140.001 128 -184.001c10.667 -5.33301 20 -8 28 -8c-21.333 40 -32 64 -32 72h192c6 0 10 -6.66699 12 -20h4
c45.333 40 68 88 68 144c0 74 -40 132.667 -120 176c-28.667 13.333 -56.667 20 -84 20c-92 0 -156 -53.333 -192 -160c-2.66699 -23.333 -4 -36.666 -4 -39.999z" />
    <glyph glyph-name="R" unicode="R" 
d="M8 800h307.999c120 0 200 -65.333 240 -196c2.66699 -14 4 -27.333 4 -40v-24c0 -83.333 -44 -154 -132 -212c85.333 -208.667 128 -316.667 128 -324v-4h-192c-6 -0 -47.333 101.333 -124 304h-40v-296c0 -5.33301 -2.66699 -8 -8 -8h-184c-5.33301 0 -8 2.66699 -8 8
v784c0.666992 5.33301 3.33398 8 8.00098 8zM199.999 620v-136h48c74.667 14 112 36.667 112 68s-37.333 54 -112 68h-48z" />
    <glyph glyph-name="S" unicode="S" 
d="M284 800l3.99512 0.00195312c128 0 213.333 -49.333 256 -148c10.667 -24.667 16 -55.334 16 -92.001v-12c0 -5.33301 -2.66699 -8 -8 -8h-176c-4.66699 0 -12.667 14.667 -24 44c-21.333 8 -44 14.667 -68 20c-31.333 0 -48.666 -18.667 -51.999 -56v-8
c0 -26 45.333 -43.333 136 -52c101.333 -40.667 152 -115.334 152 -224.001v-24c0 -119.333 -58.667 -196.666 -176 -231.999c-21.333 -5.33301 -46.666 -8 -75.999 -8c-111.333 0 -192.666 44 -243.999 132c-16 27.333 -24 63.333 -24 108v12
c0.666992 5.33301 3.33398 8 8.00098 8h172c16.667 -32 27.334 -48 32.001 -48c9.33301 -8 25.333 -12 48 -12c45.333 0 68 18.667 68 56v8c0 26 -41.333 42 -124 48c-64 25.333 -112 66.666 -144 123.999c-13.333 24.667 -20 44.667 -20 60v100c28.667 136 110 204 244 204
z" />
    <glyph glyph-name="T" unicode="T" horiz-adv-x="780" 
d="M8 800l663.999 0.000976562c5.33301 -0.666992 8 -3.33398 8 -8.00098v-184c0 -5.33301 -2.66699 -8 -8 -8h-232v-592c0 -5.33301 -2.66699 -8 -8 -8h-184c-5.33301 0 -8 2.66699 -8 8v592h-232c-5.33301 0 -8 2.66699 -8 8v184c0.666992 5.33301 3.33398 8 8.00098 8z
" />
    <glyph glyph-name="U" unicode="U" horiz-adv-x="780" 
d="M8 800l183.998 0.000976562c5.33301 -0.666992 8 -3.33398 8 -8.00098v-464c0 -50.667 37.333 -92 112 -124c2 0 10 -1.33301 24 -4c62 0 110 41.333 144 124v468c0.666992 5.33301 3.33398 8 8.00098 8h184c5.33301 -0.666992 8 -3.33398 8 -8.00098v-444
c0 -159.333 -80 -270 -240 -332c-28 -10.667 -64 -16 -108 -16c-148 0 -254.667 78.667 -320 236c-8 32.667 -12 55.334 -12 68.001v488c0.666992 5.33301 3.33398 8 8.00098 8z" />
    <glyph glyph-name="V" unicode="V" horiz-adv-x="780" 
d="M8 800h188c6 0 52.667 -153.333 140 -460h8c87.333 306.667 134 460 140 460h188l8 -4l-240 -796h-196c-6 0 -44.667 126.667 -116 380c-8 20 -50.667 158.667 -128 416z" />
    <glyph glyph-name="W" unicode="W" horiz-adv-x="1260" 
d="M8 800h188c6 0 52.667 -153.333 140 -460h8c87.333 306.667 134 460 140 460h192c6 0 52.667 -153.333 140 -460h8c87.333 306.667 134 460 140 460h188l8 -4l-240 -796h-196c-6 -0 -52.667 153.333 -140 460h-8c-87.333 -306.667 -134 -460 -140 -460h-192
c-6 0 -44.667 126.667 -116 380c-8 20 -50.667 158.667 -128 416z" />
    <glyph glyph-name="X" unicode="X" horiz-adv-x="620" 
d="M8 800h188c5.33301 0 25.333 -48 60 -144h8c34.667 96 54.667 144 60 144h188l8 -4l-160 -396c104 -258 156 -390 156 -396v-4h-192c-6.66699 0 -26.667 48 -60 144h-8c-33.333 -96 -53.333 -144 -60 -144h-192v4c0 6 52 138 156 396l-160 396z" />
    <glyph glyph-name="Y" unicode="Y" horiz-adv-x="620" 
d="M8 800h188c9.33301 -10 29.333 -60.667 60 -152h8c30.667 91.333 50.667 142 60 152h188l8 -4c-90.667 -232.667 -144 -374 -160 -424v-364c0 -5.33301 -2.66699 -8 -8 -8h-184c-5.33301 0 -8 2.66699 -8 8v364c-16 50 -69.333 191.333 -160 424z" />
    <glyph glyph-name="Z" unicode="Z" horiz-adv-x="780" 
d="M8 800l667.999 0.000976562c0 -8.66699 -118.667 -208.667 -356 -600h352c5.33301 -0.666992 8 -3.33398 8 -8.00098v-184c0 -5.33301 -2.66699 -8 -8 -8h-668c0 8.66699 118.667 208.667 356 600h-352c-5.33301 0 -8 2.66699 -8 8v184
c0.666992 5.33301 3.33398 8 8.00098 8z" />
    <glyph glyph-name="bracketleft" unicode="[" horiz-adv-x="500" 
d="M8 800l383.999 0.00195312c5.33301 -0.666992 8 -3.33398 8 -8.00098v-184c0 -5.33301 -2.66699 -8 -8 -8h-192v-680h192c5.33301 -0.666992 8 -3.33398 8 -8.00098v-184c0 -5.33301 -2.66699 -8 -8 -8h-384c-5.33301 0 -8 2.66699 -8 8v1064
c0.666992 5.33301 3.33398 8 8.00098 8z" />
    <glyph glyph-name="backslash" unicode="\" horiz-adv-x="652" 
d="M552 4v-4h-192c-24 39.333 -144 304.666 -360 795.999v4h192c24 -39.333 144 -304.666 360 -795.999z" />
    <glyph glyph-name="bracketright" unicode="]" horiz-adv-x="500" 
d="M400 792l-0.000976562 -1064c0 -5.33301 -2.66699 -8 -8 -8h-384c-5.33301 0 -8 2.66699 -8 8v184c0 4.66699 2.66699 7.33398 8 8.00098h192v680h-192c-5.33301 0 -8 2.66699 -8 8v184c0 4.66699 2.66699 7.33398 8 8.00098h384c4.66699 0 7.33398 -2.66699 8.00098 -8z
" />
    <glyph glyph-name="asciicircum" unicode="^" horiz-adv-x="612" 
d="M160 800h192.001c6.66699 0 60 -106.667 160 -320h-192c-5.33301 0 -25.333 38.667 -60 116h-8c-34.667 -77.333 -54.667 -116 -60 -116h-192c5.33301 23.333 58.666 130 159.999 320z" />
    <glyph glyph-name="underscore" unicode="_" 
d="M8 200l543.999 0.000976562c5.33301 -0.666992 8 -3.33398 8 -8.00098v-184c0 -5.33301 -2.66699 -8 -8 -8h-544c-5.33301 0 -8 2.66699 -8 8v184c0.666992 5.33301 3.33398 8 8.00098 8z" />
    <glyph glyph-name="grave" unicode="`" horiz-adv-x="372" 
d="M0 800h112c10.667 -8 64 -100 160 -276v-4h-112c-10.667 8 -64 100 -160 276v4z" />
    <glyph glyph-name="a" unicode="a" horiz-adv-x="780" 
d="M436 800c6 0 44.667 -126.667 116 -380c8 -20 50.667 -158.667 128 -416l-8 -4h-188c-4.66699 0 -18 40 -40 120h-208c-22 -80 -35.333 -120 -40 -120h-188l-8 4l240 796h196zM336 460c0 -8.66699 -13.333 -55.334 -40 -140.001h88
c-26.667 84.667 -40 131.334 -40 140.001h-8z" />
    <glyph glyph-name="b" unicode="b" 
d="M8 800l323.999 -0.00195312c102.667 0 176 -61.333 220 -184c5.33301 -20 8 -38.667 8 -56v-20c0 -41.333 -16 -88 -48 -140c32 -53.333 48 -94.666 48 -123.999v-36c0 -107.333 -58.667 -184.666 -176 -231.999c-12 -5.33301 -29.333 -8 -52 -8h-324
c-5.33301 0 -8 2.66699 -8 8v784c0.666992 5.33301 3.33398 8 8.00098 8zM199.999 619.998v-132h52c72 9.33301 108 30.666 108 63.999c0 32.667 -38.667 55.334 -116 68.001h-44zM199.999 307.998l0.000976562 -128.001h44c77.333 16.667 116 39.334 116 68.001v4
c-6.66699 37.333 -37.334 56 -92.001 56h-68z" />
    <glyph glyph-name="c" unicode="c" 
d="M404 800l72 0.000976562c15.333 0 36.666 -1.33301 63.999 -4c5.33301 2.66699 9.33301 4 12 4l4 -8v-184c0 -5.33301 -2.66699 -8 -8 -8h-132c-102 0 -171.333 -46.667 -208 -140c-5.33301 -34 -8 -54 -8 -60c0 -82 45.333 -144.667 136 -188c24.667 -8 50 -12 76 -12
c20 0 66.667 1.33301 140 4c2 -5.33301 4.66699 -20 8 -44c-2.66699 -29.333 -4 -56 -4 -80v-72c0 -5.33301 -2.66699 -8 -8 -8h-144c-185.333 0 -314.666 92 -387.999 276c-10.667 31.333 -16 59.333 -16 84v76c-0 103.333 53.333 200.666 160 291.999
c72.667 48 154 72 244 72z" />
    <glyph glyph-name="d" unicode="d" horiz-adv-x="760" 
d="M8 800h247.999c190.667 0 320 -92 388 -276c10.667 -38 16 -67.333 16 -88v-76c0 -97.333 -54.667 -193.333 -164 -288c-68 -48 -148 -72 -240 -72h-248c-5.33301 0 -8 2.66699 -8 8v784c0.666992 5.33301 3.33398 8 8.00098 8zM199.999 600l-0.000976562 -400h44
c106.667 0 176 52 208 156c2.66699 2.66699 5.33398 18.667 8.00098 48c0 88 -49.333 150.667 -148 188c-21.333 5.33301 -44 8 -68 8h-44z" />
    <glyph glyph-name="e" unicode="e" 
d="M8 800l543.999 0.00292969c5.33301 -0.666992 8 -3.33398 8 -8.00098v-184c0 -5.33301 -2.66699 -8 -8 -8h-352v-80h352c5.33301 -0.666992 8 -3.33398 8 -8.00098v-184c0 -5.33301 -2.66699 -8 -8 -8h-352v-120h352c5.33301 -0.666992 8 -3.33398 8 -8.00098v-184
c0 -5.33301 -2.66699 -8 -8 -8h-544c-5.33301 0 -8 2.66699 -8 8v784c0.666992 5.33301 3.33398 8 8.00098 8z" />
    <glyph glyph-name="f" unicode="f" 
d="M8 800l543.999 0.00195312c5.33301 -0.666992 8 -3.33398 8 -8.00098v-184c0 -5.33301 -2.66699 -8 -8 -8h-352v-80h352c5.33301 -0.666992 8 -3.33398 8 -8.00098v-184c0 -5.33301 -2.66699 -8 -8 -8h-352v-312c0 -5.33301 -2.66699 -8 -8 -8h-184
c-5.33301 0 -8 2.66699 -8 8v784c0.666992 5.33301 3.33398 8 8.00098 8z" />
    <glyph glyph-name="g" unicode="g" horiz-adv-x="760" 
d="M404 800l103.999 0.00195312c33.333 0 74.666 -1.33301 123.999 -4c4 2.66699 12 4 24 4l4 -8v-184c0 -5.33301 -2.66699 -8 -8 -8h-236c-102 0 -171.333 -46.667 -208 -140c-5.33301 -34 -8 -54 -8 -60c0 -84.667 48 -148.667 144 -192c26.667 -5.33301 50.667 -8 72 -8
h44v100h-112c-5.33301 0 -8 2.66699 -8 8v104c0.666992 5.33301 3.33398 8 8.00098 8h304c5.33301 -0.666992 8 -3.33398 8 -8.00098v-404c0 -5.33301 -2.66699 -8 -8 -8h-248c-185.333 0 -314.666 92 -387.999 276c-10.667 31.333 -16 59.333 -16 84v76
c-0 103.333 53.333 200.666 160 291.999c72.667 48 154 72 244 72z" />
    <glyph glyph-name="h" unicode="h" horiz-adv-x="780" 
d="M8 800l183.998 0.00195312c5.33301 -0.666992 8 -3.33398 8 -8.00098v-272h280v272c0.666992 5.33301 3.33398 8 8.00098 8h184c5.33301 -0.666992 8 -3.33398 8 -8.00098v-784c0 -5.33301 -2.66699 -8 -8 -8h-184c-5.33301 0 -8 2.66699 -8 8v312h-280v-312
c0 -5.33301 -2.66699 -8 -8 -8h-184c-5.33301 0 -8 2.66699 -8 8v784c0.666992 5.33301 3.33398 8 8.00098 8z" />
    <glyph glyph-name="i" unicode="i" horiz-adv-x="300" 
d="M8 800l183.999 0.000976562c5.33301 -0.666992 8 -3.33398 8 -8.00098v-784c0 -5.33301 -2.66699 -8 -8 -8h-184c-5.33301 0 -8 2.66699 -8 8v784c0.666992 5.33301 3.33398 8 8.00098 8z" />
    <glyph glyph-name="j" unicode="j" horiz-adv-x="620" 
d="M144 800l363.998 0.00195312c5.33301 0 8 -4 8 -12c0 -79.333 1.33301 -266 4 -560c-31.333 -152 -122 -228 -272 -228c-124.667 0 -206 66.667 -244 200c-2.66699 17.333 -4 34.666 -4 51.999v92c0.666992 5.33301 3.33398 8 8.00098 8h184
c5.33301 -0.666992 8 -3.33398 8 -8.00098v-104c12.667 -29.333 32.667 -44 60 -44s46 26.667 56 80v324h-172c-5.33301 0 -8 2.66699 -8 8v184c0.666992 5.33301 3.33398 8 8.00098 8z" />
    <glyph glyph-name="k" unicode="k" horiz-adv-x="620" 
d="M8 800l183.999 0.000976562c5.33301 -0.666992 8 -3.33398 8 -8.00098v-388h4c128 264 194.667 396 200 396h192c0 -8 -65.333 -141.333 -196 -400c130.667 -258.667 196 -392 196 -400h-192c-5.33301 0 -72 132 -200 396h-4v-388c0 -5.33301 -2.66699 -8 -8 -8h-184
c-5.33301 0 -8 2.66699 -8 8v784c0.666992 5.33301 3.33398 8 8.00098 8z" />
    <glyph glyph-name="l" unicode="l" 
d="M8 800l183.999 0.00195312c5.33301 -0.666992 8 -3.33398 8 -8.00098v-592h352c5.33301 -0.666992 8 -3.33398 8 -8.00098v-184c0 -5.33301 -2.66699 -8 -8 -8h-544c-5.33301 0 -8 2.66699 -8 8v784c0.666992 5.33301 3.33398 8 8.00098 8z" />
    <glyph glyph-name="m" unicode="m" horiz-adv-x="900" 
d="M8 800l187.997 0.000976562c10.667 -12 77.334 -188 200.001 -528h8c122.667 340 189.334 516 200.001 528h188c5.33301 -0.666992 8 -3.33398 8 -8.00098v-784c0 -5.33301 -2.66699 -8 -8 -8h-184c-5.33301 0 -8 2.66699 -8 8v252h-4
c-56 -161.333 -89.333 -248 -100 -260h-192c-10 11.333 -42 94 -96 248h-4v-240c0 -5.33301 -2.66699 -8 -8 -8h-188c-5.33301 0 -8 2.66699 -8 8v784c0.666992 5.33301 3.33398 8 8.00098 8z" />
    <glyph glyph-name="n" unicode="n" horiz-adv-x="780" 
d="M8 800l187.998 0.000976562c12 -9.33301 105.333 -164 280 -464h4v456c0.666992 5.33301 3.33398 8 8.00098 8h184c5.33301 -0.666992 8 -3.33398 8 -8.00098v-784c0 -5.33301 -2.66699 -8 -8 -8h-188c-12 9.33301 -105.333 164 -280 464h-4v-456
c0 -5.33301 -2.66699 -8 -8 -8h-184c-5.33301 0 -8 2.66699 -8 8v784c0.666992 5.33301 3.33398 8 8.00098 8z" />
    <glyph glyph-name="o" unicode="o" horiz-adv-x="900" 
d="M404 800c156 0 276.001 -77.332 360.001 -231.999c24 -54 36 -108.667 36 -164v-4c0 -178 -92 -304.667 -276 -380c-40.667 -13.333 -83.334 -20 -128.001 -20c-186.667 0 -316 100 -388 300c-5.33301 25.333 -8 45.333 -8 60v76c-0 103.333 53.333 200.666 160 291.999
c72.667 48 154 72 244 72zM200.001 400.001c0 -88 52.001 -153.334 156.001 -196.001c6 0 20.667 -1.33301 44 -4c85.333 0 150.666 53.333 195.999 160c0 6 1.33301 20.667 4 44c0 74 -40 132.667 -120 176c-28.667 13.333 -56.667 20 -84 20c-92 0 -156 -53.333 -192 -160
c-2.66699 -23.333 -4 -36.666 -4 -39.999z" />
    <glyph glyph-name="p" unicode="p" 
d="M8 800l307.999 0.000976562c120 0 200 -65.333 240 -196c2.66699 -14 4 -27.333 4 -40v-24c0 -98.667 -54.667 -173.334 -164 -224.001c-23.333 -8 -50 -12 -80 -12h-116v-296c0 -5.33301 -2.66699 -8 -8 -8h-184c-5.33301 0 -8 2.66699 -8 8v784
c0.666992 5.33301 3.33398 8 8.00098 8zM199.999 620.001v-136h48c74.667 14 112 36.667 112 68s-37.333 54 -112 68h-48z" />
    <glyph glyph-name="q" unicode="q" horiz-adv-x="900" 
d="M404 800c156 0 275.999 -77.332 359.999 -231.999c24 -54 36 -108.667 36 -164v-4c0 -132 -57.333 -242.667 -172 -332v-4c32 -61.333 48 -96 48 -104h-192c-5.33301 0 -13.333 14.667 -24 44l-48 -4h-8c-185.333 0 -314.666 92 -387.999 276
c-10.667 31.333 -16 59.333 -16 84v76c-0 103.333 53.333 200.666 160 291.999c72.667 48 154 72 244 72zM199.999 400.001c0 -78.667 42.667 -140.001 128 -184.001c10.667 -5.33301 20 -8 28 -8c-21.333 40 -32 64 -32 72h192c6 0 10 -6.66699 12 -20h4
c45.333 40 68 88 68 144c0 74 -40 132.667 -120 176c-28.667 13.333 -56.667 20 -84 20c-92 0 -156 -53.333 -192 -160c-2.66699 -23.333 -4 -36.666 -4 -39.999z" />
    <glyph glyph-name="r" unicode="r" 
d="M8 800h307.999c120 0 200 -65.333 240 -196c2.66699 -14 4 -27.333 4 -40v-24c0 -83.333 -44 -154 -132 -212c85.333 -208.667 128 -316.667 128 -324v-4h-192c-6 -0 -47.333 101.333 -124 304h-40v-296c0 -5.33301 -2.66699 -8 -8 -8h-184c-5.33301 0 -8 2.66699 -8 8
v784c0.666992 5.33301 3.33398 8 8.00098 8zM199.999 620v-136h48c74.667 14 112 36.667 112 68s-37.333 54 -112 68h-48z" />
    <glyph glyph-name="s" unicode="s" 
d="M284 800l3.99512 0.00195312c128 0 213.333 -49.333 256 -148c10.667 -24.667 16 -55.334 16 -92.001v-12c0 -5.33301 -2.66699 -8 -8 -8h-176c-4.66699 0 -12.667 14.667 -24 44c-21.333 8 -44 14.667 -68 20c-31.333 0 -48.666 -18.667 -51.999 -56v-8
c0 -26 45.333 -43.333 136 -52c101.333 -40.667 152 -115.334 152 -224.001v-24c0 -119.333 -58.667 -196.666 -176 -231.999c-21.333 -5.33301 -46.666 -8 -75.999 -8c-111.333 0 -192.666 44 -243.999 132c-16 27.333 -24 63.333 -24 108v12
c0.666992 5.33301 3.33398 8 8.00098 8h172c16.667 -32 27.334 -48 32.001 -48c9.33301 -8 25.333 -12 48 -12c45.333 0 68 18.667 68 56v8c0 26 -41.333 42 -124 48c-64 25.333 -112 66.666 -144 123.999c-13.333 24.667 -20 44.667 -20 60v100c28.667 136 110 204 244 204
z" />
    <glyph glyph-name="t" unicode="t" horiz-adv-x="780" 
d="M8 800l663.999 0.000976562c5.33301 -0.666992 8 -3.33398 8 -8.00098v-184c0 -5.33301 -2.66699 -8 -8 -8h-232v-592c0 -5.33301 -2.66699 -8 -8 -8h-184c-5.33301 0 -8 2.66699 -8 8v592h-232c-5.33301 0 -8 2.66699 -8 8v184c0.666992 5.33301 3.33398 8 8.00098 8z
" />
    <glyph glyph-name="u" unicode="u" horiz-adv-x="780" 
d="M8 800l183.998 0.000976562c5.33301 -0.666992 8 -3.33398 8 -8.00098v-464c0 -50.667 37.333 -92 112 -124c2 0 10 -1.33301 24 -4c62 0 110 41.333 144 124v468c0.666992 5.33301 3.33398 8 8.00098 8h184c5.33301 -0.666992 8 -3.33398 8 -8.00098v-444
c0 -159.333 -80 -270 -240 -332c-28 -10.667 -64 -16 -108 -16c-148 0 -254.667 78.667 -320 236c-8 32.667 -12 55.334 -12 68.001v488c0.666992 5.33301 3.33398 8 8.00098 8z" />
    <glyph glyph-name="v" unicode="v" horiz-adv-x="780" 
d="M8 800h188c6 0 52.667 -153.333 140 -460h8c87.333 306.667 134 460 140 460h188l8 -4l-240 -796h-196c-6 0 -44.667 126.667 -116 380c-8 20 -50.667 158.667 -128 416z" />
    <glyph glyph-name="w" unicode="w" horiz-adv-x="1260" 
d="M8 800h188c6 0 52.667 -153.333 140 -460h8c87.333 306.667 134 460 140 460h192c6 0 52.667 -153.333 140 -460h8c87.333 306.667 134 460 140 460h188l8 -4l-240 -796h-196c-6 -0 -52.667 153.333 -140 460h-8c-87.333 -306.667 -134 -460 -140 -460h-192
c-6 0 -44.667 126.667 -116 380c-8 20 -50.667 158.667 -128 416z" />
    <glyph glyph-name="x" unicode="x" horiz-adv-x="620" 
d="M8 800h188c5.33301 0 25.333 -48 60 -144h8c34.667 96 54.667 144 60 144h188l8 -4l-160 -396c104 -258 156 -390 156 -396v-4h-192c-6.66699 0 -26.667 48 -60 144h-8c-33.333 -96 -53.333 -144 -60 -144h-192v4c0 6 52 138 156 396l-160 396z" />
    <glyph glyph-name="y" unicode="y" horiz-adv-x="620" 
d="M8 800h188c9.33301 -10 29.333 -60.667 60 -152h8c30.667 91.333 50.667 142 60 152h188l8 -4c-90.667 -232.667 -144 -374 -160 -424v-364c0 -5.33301 -2.66699 -8 -8 -8h-184c-5.33301 0 -8 2.66699 -8 8v364c-16 50 -69.333 191.333 -160 424z" />
    <glyph glyph-name="z" unicode="z" horiz-adv-x="780" 
d="M8 800l667.999 0.000976562c0 -8.66699 -118.667 -208.667 -356 -600h352c5.33301 -0.666992 8 -3.33398 8 -8.00098v-184c0 -5.33301 -2.66699 -8 -8 -8h-668c0 8.66699 118.667 208.667 356 600h-352c-5.33301 0 -8 2.66699 -8 8v184
c0.666992 5.33301 3.33398 8 8.00098 8z" />
    <glyph glyph-name="braceleft" unicode="{" horiz-adv-x="1014" 
 />
    <glyph glyph-name="bar" unicode="|" horiz-adv-x="300" 
d="M8 800l183.999 0.000976562c5.33301 -0.666992 8 -3.33398 8 -8.00098v-1064c0 -5.33301 -2.66699 -8 -8 -8h-184c-5.33301 0 -8 2.66699 -8 8v1064c0.666992 5.33301 3.33398 8 8.00098 8z" />
    <glyph glyph-name="braceright" unicode="}" horiz-adv-x="1014" 
 />
    <glyph glyph-name="asciitilde" unicode="~" horiz-adv-x="1180" 
d="M276 749l48 0.000976562c118 0 204.667 -66.667 260 -200l32 -168c26 -48 67.333 -72 124 -72c93.333 0 140 57.333 140 172v80c0.666992 5.33301 3.33398 8 8.00098 8h184c5.33301 -0.666992 8 -3.33398 8 -8.00098v-116c0 -109.333 -45.333 -201.333 -136 -276
c-56.667 -40 -120.667 -60 -192 -60h-28c-162.667 0 -269.334 92 -320.001 276c0 109.333 -34.667 164 -104 164c-66.667 0 -100 -40 -100 -120v-92c0 -5.33301 -2.66699 -8 -8 -8h-184c-5.33301 0 -8 2.66699 -8 8v128c0 104.667 50.667 188.667 152 252
c44 21.333 85.333 32 124 32z" />
    <glyph glyph-name="exclamdown" unicode="&#xa1;" horiz-adv-x="300" 
d="M0 -272l0.000976562 544.001c0 5.33301 2.66699 8 8 8h184c5.33301 0 8 -2.66699 8 -8v-544c0 -4.66699 -2.66699 -7.33398 -8 -8.00098h-184c-4.66699 0 -7.33398 2.66699 -8.00098 8zM0.000976562 416.001c8 69.333 40 104 96 104c69.333 -8 104 -40 104 -96
c-8 -69.333 -40 -104 -96 -104c-69.333 8 -104 40 -104 96z" />
    <glyph glyph-name="cent" unicode="&#xa2;" 
d="M404 800l72 0.000976562c15.333 0 36.666 -1.33301 63.999 -4c5.33301 2.66699 9.33301 4 12 4l4 -8v-184c0 -5.33301 -2.66699 -8 -8 -8h-92v-400l96 4c2 -5.33301 4.66699 -20 8 -44c-2.66699 -29.333 -4 -56 -4 -80v-72c0 -5.33301 -2.66699 -8 -8 -8h-144
c-185.333 0 -314.666 92 -387.999 276c-10.667 31.333 -16 59.333 -16 84v76c-0 103.333 53.333 200.666 160 291.999c72.667 48 154 72 244 72zM200 400.001c0 -84.667 48 -148.667 144 -192l28 -4h4v392h-4c-32 0 -70.667 -18.667 -116 -56
c-37.333 -45.333 -56 -92 -56 -140z" />
    <glyph glyph-name="sterling" unicode="&#xa3;" horiz-adv-x="788" 
d="M336 800l87.998 0.000976562c130 0 216.667 -66.667 260 -200c2.66699 -17.333 4 -34.666 4 -51.999v-96c0 -5.33301 -2.66699 -8 -8 -8h-184c-5.33301 0 -8 2.66699 -8 8v68c0 53.333 -30.667 80 -92 80h-20c-64 0 -96 -24 -96 -72v-88h72
c5.33301 -0.666992 8 -3.33398 8 -8.00098v-144c0 -5.33301 -2.66699 -8 -8 -8h-72v-80h200v108c0.666992 5.33301 3.33398 8 8.00098 8h184c5.33301 -0.666992 8 -3.33398 8 -8.00098v-300c0 -5.33301 -2.66699 -8 -8 -8h-584c-5.33301 0 -8 2.66699 -8 8v272h-72
c-5.33301 0 -8 2.66699 -8 8v144c0.666992 5.33301 3.33398 8 8.00098 8h72v116c0 110 62.667 187.333 188 232c21.333 8 44 12 68 12z" />
    <glyph glyph-name="currency" unicode="&#xa4;" horiz-adv-x="1014" 
 />
    <glyph glyph-name="yen" unicode="&#xa5;" horiz-adv-x="620" 
d="M8 800l187.999 0.000976562c9.33301 -10 29.333 -60.667 60 -152h8c30.667 91.333 50.667 142 60 152h188l8 -4c-90.667 -232.667 -144 -374 -160 -424v-12h108c5.33301 -0.666992 8 -3.33398 8 -8.00098v-184c0 -5.33301 -2.66699 -8 -8 -8h-108v-152
c0 -5.33301 -2.66699 -8 -8 -8h-184c-5.33301 0 -8 2.66699 -8 8v152h-116c-5.33301 0 -8 2.66699 -8 8v184c0.666992 5.33301 3.33398 8 8.00098 8h116v12c-16 50 -69.333 191.333 -160 424z" />
    <glyph glyph-name="brokenbar" unicode="&#xa6;" horiz-adv-x="1014" 
 />
    <glyph glyph-name="section" unicode="&#xa7;" horiz-adv-x="1014" 
 />
    <glyph glyph-name="dieresis" unicode="&#xa8;" horiz-adv-x="420" 
d="M60 650c40 -4.66699 60 -24.667 60 -60c-4.66699 -40 -24.667 -60 -60 -60c-40 4.66699 -60 24.667 -60 60c4.66699 40 24.667 60 60 60zM260 650c40 -4.66699 60 -24.667 60 -60c-4.66699 -40 -24.667 -60 -60 -60c-40 4.66699 -60 24.667 -60 60
c4.66699 40 24.667 60 60 60z" />
    <glyph glyph-name="copyright" unicode="&#xa9;" horiz-adv-x="1674" 
 />
    <glyph glyph-name="ordfeminine" unicode="&#xaa;" horiz-adv-x="648" 
 />
    <glyph glyph-name="guillemotleft" unicode="&#xab;" horiz-adv-x="944" 
 />
    <glyph glyph-name="logicalnot" unicode="&#xac;" horiz-adv-x="1014" 
 />
    <glyph glyph-name="registered" unicode="&#xae;" horiz-adv-x="1674" 
 />
    <glyph glyph-name="macron" unicode="&#xaf;" horiz-adv-x="670" 
 />
    <glyph glyph-name="degree" unicode="&#xb0;" horiz-adv-x="674" 
 />
    <glyph glyph-name="plusminus" unicode="&#xb1;" 
d="M188 800l183.998 0.00195312c5.33301 -0.666992 8 -3.33398 8 -8.00098v-172h172c5.33301 -0.666992 8 -3.33398 8 -8.00098v-184c0 -5.33301 -2.66699 -8 -8 -8h-172v-172c0 -5.33301 -2.66699 -8 -8 -8h-184c-5.33301 0 -8 2.66699 -8 8v172h-172
c-5.33301 0 -8 2.66699 -8 8v184c0.666992 5.33301 3.33398 8 8.00098 8h172v172c0.666992 5.33301 3.33398 8 8.00098 8zM7.99805 200.002l543.999 0.000976562c5.33301 -0.666992 8 -3.33398 8 -8.00098v-184c0 -5.33301 -2.66699 -8 -8 -8h-544
c-5.33301 0 -8 2.66699 -8 8v184c0.666992 5.33301 3.33398 8 8.00098 8z" />
    <glyph glyph-name="uni00B2" unicode="&#xb2;" horiz-adv-x="1014" 
 />
    <glyph glyph-name="uni00B3" unicode="&#xb3;" horiz-adv-x="1014" 
 />
    <glyph glyph-name="acute" unicode="&#xb4;" horiz-adv-x="372" 
d="M272 800c0 -8.66699 -52 -102 -156 -280h-116c0 8.66699 52 102 156 280h116z" />
    <glyph glyph-name="mu" unicode="&#xb5;" horiz-adv-x="1180" 
 />
    <glyph glyph-name="paragraph" unicode="&#xb6;" horiz-adv-x="1024" 
 />
    <glyph glyph-name="periodcentered" unicode="&#xb7;" horiz-adv-x="508" 
 />
    <glyph glyph-name="periodcentered" unicode="&#x2219;" horiz-adv-x="508" 
 />
    <glyph glyph-name="cedilla" unicode="&#xb8;" horiz-adv-x="300" 
d="M8 51h103.998c5.33301 -0.666992 8 -3.33398 8 -8.00098v-48h20c40 0 60 -28 60 -84v-144c-4 -53.333 -20 -80 -48 -80h-124c-14 0 -23.333 5.33301 -28 16v104c0.666992 5.33301 3.33398 8 8.00098 8h52c0 4.66699 4 11.334 12 20.001c0 14.667 -5.33301 24 -16 28h-48
c-5.33301 0 -8 2.66699 -8 8v172c0.666992 5.33301 3.33398 8 8.00098 8z" />
    <glyph glyph-name="uni00B9" unicode="&#xb9;" horiz-adv-x="1014" 
 />
    <glyph glyph-name="ordmasculine" unicode="&#xba;" horiz-adv-x="718" 
 />
    <glyph glyph-name="guillemotright" unicode="&#xbb;" horiz-adv-x="944" 
 />
    <glyph glyph-name="onequarter" unicode="&#xbc;" horiz-adv-x="1708" 
 />
    <glyph glyph-name="onehalf" unicode="&#xbd;" horiz-adv-x="1964" 
 />
    <glyph glyph-name="threequarters" unicode="&#xbe;" horiz-adv-x="1708" 
 />
    <glyph glyph-name="questiondown" unicode="&#xbf;" horiz-adv-x="704" 
d="M348 -280l-87.998 -0.000976562c-121.333 0 -205.333 60 -252 180c-5.33301 20 -8 38.667 -8 56v136c0 86 53.333 156.667 160 212c0 10.667 2.66699 16 8 16h184c5.33301 0 8 -2.66699 8 -8v-184c-0.666992 -5.33301 -3.33398 -8 -8.00098 -8h-68
c-56 0 -84 -21.333 -84 -64v-72c0 -42.667 30.667 -64 92 -64h16c61.333 0 92 20 92 60v88c0 5.33301 2.66699 8 8 8h184c5.33301 0 8 -2.66699 8 -8v-48c0 -17.333 1.33301 -34.666 4 -51.999c0 -100 -54.667 -176 -164 -228c-32.667 -13.333 -63.334 -20 -92.001 -20z
M260.002 359.999c-58 0 -91.333 26.667 -100 80c8.66699 53.333 42 80 100 80c58.667 0 92 -26.667 100 -80c-8 -53.333 -41.333 -80 -100 -80z" />
    <glyph glyph-name="Agrave" unicode="&#xc0;" horiz-adv-x="780" 
d="M436 800c6 0 44.667 -126.667 116 -380c8 -20 50.667 -158.667 128 -416l-8 -4h-188c-4.66699 0 -18 40 -40 120h-208c-22 -80 -35.333 -120 -40 -120h-188l-8 4l240 796h196zM336 460c0 -8.66699 -13.333 -55.334 -40 -140.001h88
c-26.667 84.667 -40 131.334 -40 140.001h-8zM129 1100h112c10.667 -8 64 -100 160 -276v-4h-112c-10.667 8 -64 100 -160 276v4z" />
    <glyph glyph-name="Aacute" unicode="&#xc1;" horiz-adv-x="780" 
d="M436 800c6 0 44.667 -126.667 116 -380c8 -20 50.667 -158.667 128 -416l-8 -4h-188c-4.66699 0 -18 40 -40 120h-208c-22 -80 -35.333 -120 -40 -120h-188l-8 4l240 796h196zM336 460c0 -8.66699 -13.333 -55.334 -40 -140.001h88
c-26.667 84.667 -40 131.334 -40 140.001h-8zM561 1100c0 -8.66699 -52 -102 -156 -280h-116c0 8.66699 52 102 156 280h116z" />
    <glyph glyph-name="Acircumflex" unicode="&#xc2;" horiz-adv-x="780" 
d="M436 800c6 0 44.667 -126.667 116 -380c8 -20 50.667 -158.667 128 -416l-8 -4h-188c-4.66699 0 -18 40 -40 120h-208c-22 -80 -35.333 -120 -40 -120h-188l-8 4l240 796h196zM336 460c0 -8.66699 -13.333 -55.334 -40 -140.001h88
c-26.667 84.667 -40 131.334 -40 140.001h-8zM396 1100c10.667 -8 64 -100 160 -276v-4h-112c-6.66699 0 -40 57.333 -100 172h-8c-60 -114.667 -93.333 -172 -100 -172h-112c0 8.66699 52 102 156 280h116z" />
    <glyph glyph-name="Atilde" unicode="&#xc3;" horiz-adv-x="780" 
d="M436 800c6 0 44.667 -126.667 116 -380c8 -20 50.667 -158.667 128 -416l-8 -4h-188c-4.66699 0 -18 40 -40 120h-208c-22 -80 -35.333 -120 -40 -120h-188l-8 4l240 796h196zM336 460c0 -8.66699 -13.333 -55.334 -40 -140.001h88
c-26.667 84.667 -40 131.334 -40 140.001h-8zM236 1190c84 0 138.666 -51.999 163.999 -155.999c0 -56 20 -84 60 -84s60 28 60 84v44c0.666992 5.33301 3.33398 8 8.00098 8h104c5.33301 -0.666992 8 -3.33398 8 -8.00098v-64c0 -100 -53.333 -161.333 -160 -184h-32
c-82 0 -136.667 49.333 -164 148c0 61.333 -21.333 92 -64 92c-40 0 -60 -28 -60 -84v-64c0 -5.33301 -2.66699 -8 -8 -8h-104c-5.33301 0 -8 2.66699 -8 8v92c0 96 52 154.667 156 176h40z" />
    <glyph glyph-name="Adieresis" unicode="&#xc4;" horiz-adv-x="780" 
d="M436 800c6 0 44.667 -126.667 116 -380c8 -20 50.667 -158.667 128 -416l-8 -4h-188c-4.66699 0 -18 40 -40 120h-208c-22 -80 -35.333 -120 -40 -120h-188l-8 4l240 796h196zM336 460c0 -8.66699 -13.333 -55.334 -40 -140.001h88
c-26.667 84.667 -40 131.334 -40 140.001h-8zM240 950c40 -4.66699 60 -24.667 60 -60c-4.66699 -40 -24.667 -60 -60 -60c-40 4.66699 -60 24.667 -60 60c4.66699 40 24.667 60 60 60zM440 950c40 -4.66699 60 -24.667 60 -60c-4.66699 -40 -24.667 -60 -60 -60
c-40 4.66699 -60 24.667 -60 60c4.66699 40 24.667 60 60 60z" />
    <glyph glyph-name="Aring" unicode="&#xc5;" horiz-adv-x="780" 
d="M336 460c0 -8.66699 -13.333 -55.334 -40 -140.001h88c-26.667 84.667 -40 131.334 -40 140.001h-8zM336 992c-16 -32 -24 -50.667 -24 -56c16 -27.333 24 -43.333 24 -48h8c16 32 24 50.667 24 56c-16 27.333 -24 43.333 -24 48h-8zM413 800h23
c6 0 44.667 -126.667 116 -380c8 -20 50.667 -158.667 128 -416l-8 -4h-188c-4.66699 0 -18 40 -40 120h-208c-22 -80 -35.333 -120 -40 -120h-188l-8 4l240 796h27c-4 8 -9 18.667 -15 32l-16 -12h-112c0 8.66699 21.333 48.667 64 120c-42.667 71.333 -64 111.333 -64 120
h112l16 -12c15.333 34.667 26 52 32 52h112c6 0 16.667 -17.333 32 -52l16 12h112c0 -8.66699 -21.333 -48.667 -64 -120c42.667 -71.333 64 -111.333 64 -120h-112l-16 12c-6 -13.333 -11 -24 -15 -32z" />
    <glyph glyph-name="AE" unicode="&#xc6;" horiz-adv-x="1140" 
d="M436 800c5.33301 0 18.666 -41.3301 39.999 -123.997h4v116c0.666992 5.33301 3.33398 8 8.00098 8h544c5.33301 -0.666992 8 -3.33398 8 -8.00098v-184c0 -5.33301 -2.66699 -8 -8 -8h-352v-80h352c5.33301 -0.666992 8 -3.33398 8 -8.00098v-184
c0 -5.33301 -2.66699 -8 -8 -8h-352v-120h352c5.33301 -0.666992 8 -3.33398 8 -8.00098v-184c0 -5.33301 -2.66699 -8 -8 -8h-548c-4.66699 0 -18 40 -40 120h-208c-22 -80 -35.333 -120 -40 -120h-188l-8 4l240 796h196zM336 460.003
c0 -8.66699 -13.333 -55.334 -40 -140.001h88c-26.667 84.667 -40 131.334 -40 140.001h-8z" />
    <glyph glyph-name="Ccedilla" unicode="&#xc7;" 
d="M340 4c-151.333 19.333 -259.333 110 -324 272c-10.667 31.333 -16 59.333 -16 84v76c-0 103.333 53.333 200.666 160 291.999c72.667 48 154 72 244 72h72c15.333 0 36.666 -1.33301 63.999 -4c5.33301 2.66699 9.33301 4 12 4l4 -8v-184c0 -5.33301 -2.66699 -8 -8 -8
h-132c-102 0 -171.333 -46.667 -208 -140c-5.33301 -34 -8 -54 -8 -60c0 -82 45.333 -144.667 136 -188c24.667 -8 50 -12 76 -12c20 0 66.667 1.33301 140 4c2 -5.33301 4.66699 -20 8 -44c-2.66699 -29.333 -4 -56 -4 -80v-72c0 -5.33301 -2.66699 -8 -8 -8h-88v-8h20
c40 0 60 -28 60 -84v-144c-4 -53.333 -20 -80 -48 -80h-124c-14 0 -23.333 5.33301 -28 16v104c0.666992 5.33301 3.33398 8 8.00098 8h52c0 4.66699 4 11.334 12 20.001c0 14.667 -5.33301 24 -16 28h-48c-5.33301 0 -8 2.66699 -8 8v136z" />
    <glyph glyph-name="Egrave" unicode="&#xc8;" 
d="M8 800l543.999 0.00292969c5.33301 -0.666992 8 -3.33398 8 -8.00098v-184c0 -5.33301 -2.66699 -8 -8 -8h-352v-80h352c5.33301 -0.666992 8 -3.33398 8 -8.00098v-184c0 -5.33301 -2.66699 -8 -8 -8h-352v-120h352c5.33301 -0.666992 8 -3.33398 8 -8.00098v-184
c0 -5.33301 -2.66699 -8 -8 -8h-544c-5.33301 0 -8 2.66699 -8 8v784c0.666992 5.33301 3.33398 8 8.00098 8zM98.999 1100h112c10.667 -8 64 -100 160 -276v-4h-112c-10.667 8 -64 100 -160 276v4z" />
    <glyph glyph-name="Eacute" unicode="&#xc9;" 
d="M8 800l543.999 0.00292969c5.33301 -0.666992 8 -3.33398 8 -8.00098v-184c0 -5.33301 -2.66699 -8 -8 -8h-352v-80h352c5.33301 -0.666992 8 -3.33398 8 -8.00098v-184c0 -5.33301 -2.66699 -8 -8 -8h-352v-120h352c5.33301 -0.666992 8 -3.33398 8 -8.00098v-184
c0 -5.33301 -2.66699 -8 -8 -8h-544c-5.33301 0 -8 2.66699 -8 8v784c0.666992 5.33301 3.33398 8 8.00098 8zM460.999 1100c0 -8.66699 -52 -102 -156 -280h-116c0 8.66699 52 102 156 280h116z" />
    <glyph glyph-name="Ecircumflex" unicode="&#xca;" 
d="M8 800l543.999 0.00292969c5.33301 -0.666992 8 -3.33398 8 -8.00098v-184c0 -5.33301 -2.66699 -8 -8 -8h-352v-80h352c5.33301 -0.666992 8 -3.33398 8 -8.00098v-184c0 -5.33301 -2.66699 -8 -8 -8h-352v-120h352c5.33301 -0.666992 8 -3.33398 8 -8.00098v-184
c0 -5.33301 -2.66699 -8 -8 -8h-544c-5.33301 0 -8 2.66699 -8 8v784c0.666992 5.33301 3.33398 8 8.00098 8zM335.999 1100c10.667 -8 64 -100 160 -276v-4h-112c-6.66699 0 -40 57.333 -100 172h-8c-60 -114.667 -93.333 -172 -100 -172h-112c0 8.66699 52 102 156 280
h116z" />
    <glyph glyph-name="Edieresis" unicode="&#xcb;" 
d="M8 800l543.999 0.00292969c5.33301 -0.666992 8 -3.33398 8 -8.00098v-184c0 -5.33301 -2.66699 -8 -8 -8h-352v-80h352c5.33301 -0.666992 8 -3.33398 8 -8.00098v-184c0 -5.33301 -2.66699 -8 -8 -8h-352v-120h352c5.33301 -0.666992 8 -3.33398 8 -8.00098v-184
c0 -5.33301 -2.66699 -8 -8 -8h-544c-5.33301 0 -8 2.66699 -8 8v784c0.666992 5.33301 3.33398 8 8.00098 8zM179.999 950.003c40 -4.66699 60 -24.667 60 -60c-4.66699 -40 -24.667 -60 -60 -60c-40 4.66699 -60 24.667 -60 60c4.66699 40 24.667 60 60 60z
M379.999 950.003c40 -4.66699 60 -24.667 60 -60c-4.66699 -40 -24.667 -60 -60 -60c-40 4.66699 -60 24.667 -60 60c4.66699 40 24.667 60 60 60z" />
    <glyph glyph-name="Igrave" unicode="&#xcc;" horiz-adv-x="300" 
d="M8 800l183.999 0.000976562c5.33301 -0.666992 8 -3.33398 8 -8.00098v-784c0 -5.33301 -2.66699 -8 -8 -8h-184c-5.33301 0 -8 2.66699 -8 8v784c0.666992 5.33301 3.33398 8 8.00098 8zM-81.001 1100h112c10.667 -8 64 -100 160 -276v-4h-112
c-10.667 8 -64 100 -160 276v4z" />
    <glyph glyph-name="Iacute" unicode="&#xcd;" horiz-adv-x="300" 
d="M8 800l183.999 0.000976562c5.33301 -0.666992 8 -3.33398 8 -8.00098v-784c0 -5.33301 -2.66699 -8 -8 -8h-184c-5.33301 0 -8 2.66699 -8 8v784c0.666992 5.33301 3.33398 8 8.00098 8zM280.999 1100c0 -8.66699 -52 -102 -156 -280h-116c0 8.66699 52 102 156 280h116
z" />
    <glyph glyph-name="Icircumflex" unicode="&#xce;" horiz-adv-x="300" 
d="M8 800l183.999 0.000976562c5.33301 -0.666992 8 -3.33398 8 -8.00098v-784c0 -5.33301 -2.66699 -8 -8 -8h-184c-5.33301 0 -8 2.66699 -8 8v784c0.666992 5.33301 3.33398 8 8.00098 8zM155.999 1100c10.667 -8 64 -100 160 -276v-4h-112
c-6.66699 0 -40 57.333 -100 172h-8c-60 -114.667 -93.333 -172 -100 -172h-112c0 8.66699 52 102 156 280h116z" />
    <glyph glyph-name="Idieresis" unicode="&#xcf;" horiz-adv-x="300" 
d="M8 800l183.999 0.000976562c5.33301 -0.666992 8 -3.33398 8 -8.00098v-784c0 -5.33301 -2.66699 -8 -8 -8h-184c-5.33301 0 -8 2.66699 -8 8v784c0.666992 5.33301 3.33398 8 8.00098 8zM-0.000976562 950.001c40 -4.66699 60 -24.667 60 -60
c-4.66699 -40 -24.667 -60 -60 -60c-40 4.66699 -60 24.667 -60 60c4.66699 40 24.667 60 60 60zM199.999 950.001c40 -4.66699 60 -24.667 60 -60c-4.66699 -40 -24.667 -60 -60 -60c-40 4.66699 -60 24.667 -60 60c4.66699 40 24.667 60 60 60z" />
    <glyph glyph-name="Eth" unicode="&#xd0;" horiz-adv-x="1518" 
 />
    <glyph glyph-name="Ntilde" unicode="&#xd1;" horiz-adv-x="780" 
d="M8 800l187.998 0.000976562c12 -9.33301 105.333 -164 280 -464h4v456c0.666992 5.33301 3.33398 8 8.00098 8h184c5.33301 -0.666992 8 -3.33398 8 -8.00098v-784c0 -5.33301 -2.66699 -8 -8 -8h-188c-12 9.33301 -105.333 164 -280 464h-4v-456
c0 -5.33301 -2.66699 -8 -8 -8h-184c-5.33301 0 -8 2.66699 -8 8v784c0.666992 5.33301 3.33398 8 8.00098 8zM235.998 1170c84 0 138.666 -51.999 163.999 -155.999c0 -56 20 -84 60 -84s60 28 60 84v44c0.666992 5.33301 3.33398 8 8.00098 8h104
c5.33301 -0.666992 8 -3.33398 8 -8.00098v-64c0 -100 -53.333 -161.333 -160 -184h-32c-82 0 -136.667 49.333 -164 148c0 61.333 -21.333 92 -64 92c-40 0 -60 -28 -60 -84v-64c0 -5.33301 -2.66699 -8 -8 -8h-104c-5.33301 0 -8 2.66699 -8 8v92c0 96 52 154.667 156 176
h40z" />
    <glyph glyph-name="Ograve" unicode="&#xd2;" horiz-adv-x="900" 
d="M404 800c156 0 276.001 -77.332 360.001 -231.999c24 -54 36 -108.667 36 -164v-4c0 -178 -92 -304.667 -276 -380c-40.667 -13.333 -83.334 -20 -128.001 -20c-186.667 0 -316 100 -388 300c-5.33301 25.333 -8 45.333 -8 60v76c-0 103.333 53.333 200.666 160 291.999
c72.667 48 154 72 244 72zM200.001 400.001c0 -88 52.001 -153.334 156.001 -196.001c6 0 20.667 -1.33301 44 -4c85.333 0 150.666 53.333 195.999 160c0 6 1.33301 20.667 4 44c0 74 -40 132.667 -120 176c-28.667 13.333 -56.667 20 -84 20c-92 0 -156 -53.333 -192 -160
c-2.66699 -23.333 -4 -36.666 -4 -39.999zM219.002 1100h112c10.667 -8 64 -100 160 -276v-4h-112c-10.667 8 -64 100 -160 276v4z" />
    <glyph glyph-name="Oacute" unicode="&#xd3;" horiz-adv-x="900" 
d="M404 800c156 0 276.001 -77.332 360.001 -231.999c24 -54 36 -108.667 36 -164v-4c0 -178 -92 -304.667 -276 -380c-40.667 -13.333 -83.334 -20 -128.001 -20c-186.667 0 -316 100 -388 300c-5.33301 25.333 -8 45.333 -8 60v76c-0 103.333 53.333 200.666 160 291.999
c72.667 48 154 72 244 72zM200.001 400.001c0 -88 52.001 -153.334 156.001 -196.001c6 0 20.667 -1.33301 44 -4c85.333 0 150.666 53.333 195.999 160c0 6 1.33301 20.667 4 44c0 74 -40 132.667 -120 176c-28.667 13.333 -56.667 20 -84 20c-92 0 -156 -53.333 -192 -160
c-2.66699 -23.333 -4 -36.666 -4 -39.999zM581.002 1100c0 -8.66699 -52 -102 -156 -280h-116c0 8.66699 52 102 156 280h116z" />
    <glyph glyph-name="Ocircumflex" unicode="&#xd4;" horiz-adv-x="900" 
d="M404 800c156 0 276.001 -77.332 360.001 -231.999c24 -54 36 -108.667 36 -164v-4c0 -178 -92 -304.667 -276 -380c-40.667 -13.333 -83.334 -20 -128.001 -20c-186.667 0 -316 100 -388 300c-5.33301 25.333 -8 45.333 -8 60v76c-0 103.333 53.333 200.666 160 291.999
c72.667 48 154 72 244 72zM200.001 400.001c0 -88 52.001 -153.334 156.001 -196.001c6 0 20.667 -1.33301 44 -4c85.333 0 150.666 53.333 195.999 160c0 6 1.33301 20.667 4 44c0 74 -40 132.667 -120 176c-28.667 13.333 -56.667 20 -84 20c-92 0 -156 -53.333 -192 -160
c-2.66699 -23.333 -4 -36.666 -4 -39.999zM456.002 1100c10.667 -8 64 -100 160 -276v-4h-112c-6.66699 0 -40 57.333 -100 172h-8c-60 -114.667 -93.333 -172 -100 -172h-112c0 8.66699 52 102 156 280h116z" />
    <glyph glyph-name="Otilde" unicode="&#xd5;" horiz-adv-x="900" 
d="M404 800c156 0 276.001 -77.332 360.001 -231.999c24 -54 36 -108.667 36 -164v-4c0 -178 -92 -304.667 -276 -380c-40.667 -13.333 -83.334 -20 -128.001 -20c-186.667 0 -316 100 -388 300c-5.33301 25.333 -8 45.333 -8 60v76c-0 103.333 53.333 200.666 160 291.999
c72.667 48 154 72 244 72zM200.001 400.001c0 -88 52.001 -153.334 156.001 -196.001c6 0 20.667 -1.33301 44 -4c85.333 0 150.666 53.333 195.999 160c0 6 1.33301 20.667 4 44c0 74 -40 132.667 -120 176c-28.667 13.333 -56.667 20 -84 20c-92 0 -156 -53.333 -192 -160
c-2.66699 -23.333 -4 -36.666 -4 -39.999zM296.002 1170c84 0 138.666 -51.999 163.999 -155.999c0 -56 20 -84 60 -84s60 28 60 84v44c0.666992 5.33301 3.33398 8 8.00098 8h104c5.33301 -0.666992 8 -3.33398 8 -8.00098v-64c0 -100 -53.333 -161.333 -160 -184h-32
c-82 0 -136.667 49.333 -164 148c0 61.333 -21.333 92 -64 92c-40 0 -60 -28 -60 -84v-64c0 -5.33301 -2.66699 -8 -8 -8h-104c-5.33301 0 -8 2.66699 -8 8v92c0 96 52 154.667 156 176h40z" />
    <glyph glyph-name="Odieresis" unicode="&#xd6;" horiz-adv-x="900" 
d="M404 800c156 0 276.001 -77.332 360.001 -231.999c24 -54 36 -108.667 36 -164v-4c0 -178 -92 -304.667 -276 -380c-40.667 -13.333 -83.334 -20 -128.001 -20c-186.667 0 -316 100 -388 300c-5.33301 25.333 -8 45.333 -8 60v76c-0 103.333 53.333 200.666 160 291.999
c72.667 48 154 72 244 72zM200.001 400.001c0 -88 52.001 -153.334 156.001 -196.001c6 0 20.667 -1.33301 44 -4c85.333 0 150.666 53.333 195.999 160c0 6 1.33301 20.667 4 44c0 74 -40 132.667 -120 176c-28.667 13.333 -56.667 20 -84 20c-92 0 -156 -53.333 -192 -160
c-2.66699 -23.333 -4 -36.666 -4 -39.999zM300.002 950c40 -4.66699 60 -24.667 60 -60c-4.66699 -40 -24.667 -60 -60 -60c-40 4.66699 -60 24.667 -60 60c4.66699 40 24.667 60 60 60zM500.002 950c40 -4.66699 60 -24.667 60 -60c-4.66699 -40 -24.667 -60 -60 -60
c-40 4.66699 -60 24.667 -60 60c4.66699 40 24.667 60 60 60z" />
    <glyph glyph-name="multiply" unicode="&#xd7;" horiz-adv-x="1014" 
 />
    <glyph glyph-name="Oslash" unicode="&#xd8;" horiz-adv-x="900" 
d="M404 800c22 0 47.333 -2.66504 76 -7.99805c0.666992 5.33301 3.33398 8 8.00098 8h192v-4l-32 -84c101.333 -82 152 -184.667 152 -308v-4c0 -178 -92 -304.667 -276 -380c-40.667 -13.333 -83.334 -20 -128.001 -20c-24 0 -40 1.33301 -48 4
c-25.333 -2.66699 -49.333 -4 -72 -4h-148v4c18.667 46 28 71.333 28 76c-104 91.333 -156 184.666 -156 279.999v76c-0 103.333 53.333 200.666 160 291.999c72.667 48 154 72 244 72zM200 400.002c0 -34 14.667 -75.333 44 -124c6.66699 3.33301 56 111.333 148 324h-4
c-73.333 0 -132 -44 -176 -132c-8 -32 -12 -54.667 -12 -68zM556 516.002l-140 -311.998h8c56 0 109.333 41.333 160 124c10.667 33.333 16 58.666 16 75.999c0 43.333 -14.667 80.666 -44 111.999z" />
    <glyph glyph-name="Ugrave" unicode="&#xd9;" horiz-adv-x="780" 
d="M8 800l183.998 0.000976562c5.33301 -0.666992 8 -3.33398 8 -8.00098v-464c0 -50.667 37.333 -92 112 -124c2 0 10 -1.33301 24 -4c62 0 110 41.333 144 124v468c0.666992 5.33301 3.33398 8 8.00098 8h184c5.33301 -0.666992 8 -3.33398 8 -8.00098v-444
c0 -159.333 -80 -270 -240 -332c-28 -10.667 -64 -16 -108 -16c-148 0 -254.667 78.667 -320 236c-8 32.667 -12 55.334 -12 68.001v488c0.666992 5.33301 3.33398 8 8.00098 8zM158.998 1100h112c10.667 -8 64 -100 160 -276v-4h-112c-10.667 8 -64 100 -160 276v4z" />
    <glyph glyph-name="Uacute" unicode="&#xda;" horiz-adv-x="780" 
d="M8 800l183.998 0.000976562c5.33301 -0.666992 8 -3.33398 8 -8.00098v-464c0 -50.667 37.333 -92 112 -124c2 0 10 -1.33301 24 -4c62 0 110 41.333 144 124v468c0.666992 5.33301 3.33398 8 8.00098 8h184c5.33301 -0.666992 8 -3.33398 8 -8.00098v-444
c0 -159.333 -80 -270 -240 -332c-28 -10.667 -64 -16 -108 -16c-148 0 -254.667 78.667 -320 236c-8 32.667 -12 55.334 -12 68.001v488c0.666992 5.33301 3.33398 8 8.00098 8zM520.998 1100c0 -8.66699 -52 -102 -156 -280h-116c0 8.66699 52 102 156 280h116z" />
    <glyph glyph-name="Ucircumflex" unicode="&#xdb;" horiz-adv-x="780" 
d="M8 800l183.998 0.000976562c5.33301 -0.666992 8 -3.33398 8 -8.00098v-464c0 -50.667 37.333 -92 112 -124c2 0 10 -1.33301 24 -4c62 0 110 41.333 144 124v468c0.666992 5.33301 3.33398 8 8.00098 8h184c5.33301 -0.666992 8 -3.33398 8 -8.00098v-444
c0 -159.333 -80 -270 -240 -332c-28 -10.667 -64 -16 -108 -16c-148 0 -254.667 78.667 -320 236c-8 32.667 -12 55.334 -12 68.001v488c0.666992 5.33301 3.33398 8 8.00098 8zM395.998 1100c10.667 -8 64 -100 160 -276v-4h-112c-6.66699 0 -40 57.333 -100 172h-8
c-60 -114.667 -93.333 -172 -100 -172h-112c0 8.66699 52 102 156 280h116z" />
    <glyph glyph-name="Udieresis" unicode="&#xdc;" horiz-adv-x="780" 
d="M8 800l183.998 0.000976562c5.33301 -0.666992 8 -3.33398 8 -8.00098v-464c0 -50.667 37.333 -92 112 -124c2 0 10 -1.33301 24 -4c62 0 110 41.333 144 124v468c0.666992 5.33301 3.33398 8 8.00098 8h184c5.33301 -0.666992 8 -3.33398 8 -8.00098v-444
c0 -159.333 -80 -270 -240 -332c-28 -10.667 -64 -16 -108 -16c-148 0 -254.667 78.667 -320 236c-8 32.667 -12 55.334 -12 68.001v488c0.666992 5.33301 3.33398 8 8.00098 8zM239.998 950.001c40 -4.66699 60 -24.667 60 -60c-4.66699 -40 -24.667 -60 -60 -60
c-40 4.66699 -60 24.667 -60 60c4.66699 40 24.667 60 60 60zM439.998 950.001c40 -4.66699 60 -24.667 60 -60c-4.66699 -40 -24.667 -60 -60 -60c-40 4.66699 -60 24.667 -60 60c4.66699 40 24.667 60 60 60z" />
    <glyph glyph-name="Yacute" unicode="&#xdd;" horiz-adv-x="1233" 
 />
    <glyph glyph-name="Thorn" unicode="&#xde;" horiz-adv-x="1120" 
 />
    <glyph glyph-name="germandbls" unicode="&#xdf;" horiz-adv-x="1251" 
 />
    <glyph glyph-name="agrave" unicode="&#xe0;" horiz-adv-x="780" 
d="M436 800c6 0 44.667 -126.667 116 -380c8 -20 50.667 -158.667 128 -416l-8 -4h-188c-4.66699 0 -18 40 -40 120h-208c-22 -80 -35.333 -120 -40 -120h-188l-8 4l240 796h196zM336 460c0 -8.66699 -13.333 -55.334 -40 -140.001h88
c-26.667 84.667 -40 131.334 -40 140.001h-8zM129 1100h112c10.667 -8 64 -100 160 -276v-4h-112c-10.667 8 -64 100 -160 276v4z" />
    <glyph glyph-name="aacute" unicode="&#xe1;" horiz-adv-x="780" 
d="M436 800c6 0 44.667 -126.667 116 -380c8 -20 50.667 -158.667 128 -416l-8 -4h-188c-4.66699 0 -18 40 -40 120h-208c-22 -80 -35.333 -120 -40 -120h-188l-8 4l240 796h196zM336 460c0 -8.66699 -13.333 -55.334 -40 -140.001h88
c-26.667 84.667 -40 131.334 -40 140.001h-8zM561 1100c0 -8.66699 -52 -102 -156 -280h-116c0 8.66699 52 102 156 280h116z" />
    <glyph glyph-name="acircumflex" unicode="&#xe2;" horiz-adv-x="780" 
d="M436 800c6 0 44.667 -126.667 116 -380c8 -20 50.667 -158.667 128 -416l-8 -4h-188c-4.66699 0 -18 40 -40 120h-208c-22 -80 -35.333 -120 -40 -120h-188l-8 4l240 796h196zM336 460c0 -8.66699 -13.333 -55.334 -40 -140.001h88
c-26.667 84.667 -40 131.334 -40 140.001h-8zM396 1100c10.667 -8 64 -100 160 -276v-4h-112c-6.66699 0 -40 57.333 -100 172h-8c-60 -114.667 -93.333 -172 -100 -172h-112c0 8.66699 52 102 156 280h116z" />
    <glyph glyph-name="atilde" unicode="&#xe3;" horiz-adv-x="780" 
d="M436 800c6 0 44.667 -126.667 116 -380c8 -20 50.667 -158.667 128 -416l-8 -4h-188c-4.66699 0 -18 40 -40 120h-208c-22 -80 -35.333 -120 -40 -120h-188l-8 4l240 796h196zM336 460c0 -8.66699 -13.333 -55.334 -40 -140.001h88
c-26.667 84.667 -40 131.334 -40 140.001h-8zM236 1190c84 0 138.666 -51.999 163.999 -155.999c0 -56 20 -84 60 -84s60 28 60 84v44c0.666992 5.33301 3.33398 8 8.00098 8h104c5.33301 -0.666992 8 -3.33398 8 -8.00098v-64c0 -100 -53.333 -161.333 -160 -184h-32
c-82 0 -136.667 49.333 -164 148c0 61.333 -21.333 92 -64 92c-40 0 -60 -28 -60 -84v-64c0 -5.33301 -2.66699 -8 -8 -8h-104c-5.33301 0 -8 2.66699 -8 8v92c0 96 52 154.667 156 176h40z" />
    <glyph glyph-name="adieresis" unicode="&#xe4;" horiz-adv-x="780" 
d="M436 800c6 0 44.667 -126.667 116 -380c8 -20 50.667 -158.667 128 -416l-8 -4h-188c-4.66699 0 -18 40 -40 120h-208c-22 -80 -35.333 -120 -40 -120h-188l-8 4l240 796h196zM336 460c0 -8.66699 -13.333 -55.334 -40 -140.001h88
c-26.667 84.667 -40 131.334 -40 140.001h-8zM240 950c40 -4.66699 60 -24.667 60 -60c-4.66699 -40 -24.667 -60 -60 -60c-40 4.66699 -60 24.667 -60 60c4.66699 40 24.667 60 60 60zM440 950c40 -4.66699 60 -24.667 60 -60c-4.66699 -40 -24.667 -60 -60 -60
c-40 4.66699 -60 24.667 -60 60c4.66699 40 24.667 60 60 60z" />
    <glyph glyph-name="aring" unicode="&#xe5;" horiz-adv-x="780" 
d="M336 460c0 -8.66699 -13.333 -55.334 -40 -140.001h88c-26.667 84.667 -40 131.334 -40 140.001h-8zM336 992c-16 -32 -24 -50.667 -24 -56c16 -27.333 24 -43.333 24 -48h8c16 32 24 50.667 24 56c-16 27.333 -24 43.333 -24 48h-8zM413 800h23
c6 0 44.667 -126.667 116 -380c8 -20 50.667 -158.667 128 -416l-8 -4h-188c-4.66699 0 -18 40 -40 120h-208c-22 -80 -35.333 -120 -40 -120h-188l-8 4l240 796h27c-4 8 -9 18.667 -15 32l-16 -12h-112c0 8.66699 21.333 48.667 64 120c-42.667 71.333 -64 111.333 -64 120
h112l16 -12c15.333 34.667 26 52 32 52h112c6 0 16.667 -17.333 32 -52l16 12h112c0 -8.66699 -21.333 -48.667 -64 -120c42.667 -71.333 64 -111.333 64 -120h-112l-16 12c-6 -13.333 -11 -24 -15 -32z" />
    <glyph glyph-name="ae" unicode="&#xe6;" horiz-adv-x="1140" 
d="M436 800c5.33301 0 18.666 -41.3301 39.999 -123.997h4v116c0.666992 5.33301 3.33398 8 8.00098 8h544c5.33301 -0.666992 8 -3.33398 8 -8.00098v-184c0 -5.33301 -2.66699 -8 -8 -8h-352v-80h352c5.33301 -0.666992 8 -3.33398 8 -8.00098v-184
c0 -5.33301 -2.66699 -8 -8 -8h-352v-120h352c5.33301 -0.666992 8 -3.33398 8 -8.00098v-184c0 -5.33301 -2.66699 -8 -8 -8h-548c-4.66699 0 -18 40 -40 120h-208c-22 -80 -35.333 -120 -40 -120h-188l-8 4l240 796h196zM336 460.003
c0 -8.66699 -13.333 -55.334 -40 -140.001h88c-26.667 84.667 -40 131.334 -40 140.001h-8z" />
    <glyph glyph-name="ccedilla" unicode="&#xe7;" 
d="M340 4c-151.333 19.333 -259.333 110 -324 272c-10.667 31.333 -16 59.333 -16 84v76c-0 103.333 53.333 200.666 160 291.999c72.667 48 154 72 244 72h72c15.333 0 36.666 -1.33301 63.999 -4c5.33301 2.66699 9.33301 4 12 4l4 -8v-184c0 -5.33301 -2.66699 -8 -8 -8
h-132c-102 0 -171.333 -46.667 -208 -140c-5.33301 -34 -8 -54 -8 -60c0 -82 45.333 -144.667 136 -188c24.667 -8 50 -12 76 -12c20 0 66.667 1.33301 140 4c2 -5.33301 4.66699 -20 8 -44c-2.66699 -29.333 -4 -56 -4 -80v-72c0 -5.33301 -2.66699 -8 -8 -8h-88v-8h20
c40 0 60 -28 60 -84v-144c-4 -53.333 -20 -80 -48 -80h-124c-14 0 -23.333 5.33301 -28 16v104c0.666992 5.33301 3.33398 8 8.00098 8h52c0 4.66699 4 11.334 12 20.001c0 14.667 -5.33301 24 -16 28h-48c-5.33301 0 -8 2.66699 -8 8v136z" />
    <glyph glyph-name="egrave" unicode="&#xe8;" 
d="M8 800l543.999 0.00292969c5.33301 -0.666992 8 -3.33398 8 -8.00098v-184c0 -5.33301 -2.66699 -8 -8 -8h-352v-80h352c5.33301 -0.666992 8 -3.33398 8 -8.00098v-184c0 -5.33301 -2.66699 -8 -8 -8h-352v-120h352c5.33301 -0.666992 8 -3.33398 8 -8.00098v-184
c0 -5.33301 -2.66699 -8 -8 -8h-544c-5.33301 0 -8 2.66699 -8 8v784c0.666992 5.33301 3.33398 8 8.00098 8zM98.999 1100h112c10.667 -8 64 -100 160 -276v-4h-112c-10.667 8 -64 100 -160 276v4z" />
    <glyph glyph-name="eacute" unicode="&#xe9;" 
d="M8 800l543.999 0.00292969c5.33301 -0.666992 8 -3.33398 8 -8.00098v-184c0 -5.33301 -2.66699 -8 -8 -8h-352v-80h352c5.33301 -0.666992 8 -3.33398 8 -8.00098v-184c0 -5.33301 -2.66699 -8 -8 -8h-352v-120h352c5.33301 -0.666992 8 -3.33398 8 -8.00098v-184
c0 -5.33301 -2.66699 -8 -8 -8h-544c-5.33301 0 -8 2.66699 -8 8v784c0.666992 5.33301 3.33398 8 8.00098 8zM460.999 1100c0 -8.66699 -52 -102 -156 -280h-116c0 8.66699 52 102 156 280h116z" />
    <glyph glyph-name="ecircumflex" unicode="&#xea;" 
d="M8 800l543.999 0.00292969c5.33301 -0.666992 8 -3.33398 8 -8.00098v-184c0 -5.33301 -2.66699 -8 -8 -8h-352v-80h352c5.33301 -0.666992 8 -3.33398 8 -8.00098v-184c0 -5.33301 -2.66699 -8 -8 -8h-352v-120h352c5.33301 -0.666992 8 -3.33398 8 -8.00098v-184
c0 -5.33301 -2.66699 -8 -8 -8h-544c-5.33301 0 -8 2.66699 -8 8v784c0.666992 5.33301 3.33398 8 8.00098 8zM335.999 1100c10.667 -8 64 -100 160 -276v-4h-112c-6.66699 0 -40 57.333 -100 172h-8c-60 -114.667 -93.333 -172 -100 -172h-112c0 8.66699 52 102 156 280
h116z" />
    <glyph glyph-name="edieresis" unicode="&#xeb;" 
d="M8 800l543.999 0.00292969c5.33301 -0.666992 8 -3.33398 8 -8.00098v-184c0 -5.33301 -2.66699 -8 -8 -8h-352v-80h352c5.33301 -0.666992 8 -3.33398 8 -8.00098v-184c0 -5.33301 -2.66699 -8 -8 -8h-352v-120h352c5.33301 -0.666992 8 -3.33398 8 -8.00098v-184
c0 -5.33301 -2.66699 -8 -8 -8h-544c-5.33301 0 -8 2.66699 -8 8v784c0.666992 5.33301 3.33398 8 8.00098 8zM179.999 950.003c40 -4.66699 60 -24.667 60 -60c-4.66699 -40 -24.667 -60 -60 -60c-40 4.66699 -60 24.667 -60 60c4.66699 40 24.667 60 60 60z
M379.999 950.003c40 -4.66699 60 -24.667 60 -60c-4.66699 -40 -24.667 -60 -60 -60c-40 4.66699 -60 24.667 -60 60c4.66699 40 24.667 60 60 60z" />
    <glyph glyph-name="igrave" unicode="&#xec;" horiz-adv-x="300" 
d="M8 800l183.999 0.000976562c5.33301 -0.666992 8 -3.33398 8 -8.00098v-784c0 -5.33301 -2.66699 -8 -8 -8h-184c-5.33301 0 -8 2.66699 -8 8v784c0.666992 5.33301 3.33398 8 8.00098 8zM-81.001 1100h112c10.667 -8 64 -100 160 -276v-4h-112
c-10.667 8 -64 100 -160 276v4z" />
    <glyph glyph-name="iacute" unicode="&#xed;" horiz-adv-x="300" 
d="M8 800l183.999 0.000976562c5.33301 -0.666992 8 -3.33398 8 -8.00098v-784c0 -5.33301 -2.66699 -8 -8 -8h-184c-5.33301 0 -8 2.66699 -8 8v784c0.666992 5.33301 3.33398 8 8.00098 8zM280.999 1100c0 -8.66699 -52 -102 -156 -280h-116c0 8.66699 52 102 156 280h116
z" />
    <glyph glyph-name="icircumflex" unicode="&#xee;" horiz-adv-x="300" 
d="M8 800l183.999 0.000976562c5.33301 -0.666992 8 -3.33398 8 -8.00098v-784c0 -5.33301 -2.66699 -8 -8 -8h-184c-5.33301 0 -8 2.66699 -8 8v784c0.666992 5.33301 3.33398 8 8.00098 8zM155.999 1100c10.667 -8 64 -100 160 -276v-4h-112
c-6.66699 0 -40 57.333 -100 172h-8c-60 -114.667 -93.333 -172 -100 -172h-112c0 8.66699 52 102 156 280h116z" />
    <glyph glyph-name="idieresis" unicode="&#xef;" horiz-adv-x="300" 
d="M8 800l183.999 0.000976562c5.33301 -0.666992 8 -3.33398 8 -8.00098v-784c0 -5.33301 -2.66699 -8 -8 -8h-184c-5.33301 0 -8 2.66699 -8 8v784c0.666992 5.33301 3.33398 8 8.00098 8zM-0.000976562 950.001c40 -4.66699 60 -24.667 60 -60
c-4.66699 -40 -24.667 -60 -60 -60c-40 4.66699 -60 24.667 -60 60c4.66699 40 24.667 60 60 60zM199.999 950.001c40 -4.66699 60 -24.667 60 -60c-4.66699 -40 -24.667 -60 -60 -60c-40 4.66699 -60 24.667 -60 60c4.66699 40 24.667 60 60 60z" />
    <glyph glyph-name="eth" unicode="&#xf0;" horiz-adv-x="1139" 
 />
    <glyph glyph-name="ntilde" unicode="&#xf1;" horiz-adv-x="780" 
d="M8 800l187.998 0.000976562c12 -9.33301 105.333 -164 280 -464h4v456c0.666992 5.33301 3.33398 8 8.00098 8h184c5.33301 -0.666992 8 -3.33398 8 -8.00098v-784c0 -5.33301 -2.66699 -8 -8 -8h-188c-12 9.33301 -105.333 164 -280 464h-4v-456
c0 -5.33301 -2.66699 -8 -8 -8h-184c-5.33301 0 -8 2.66699 -8 8v784c0.666992 5.33301 3.33398 8 8.00098 8zM235.998 1170c84 0 138.666 -51.999 163.999 -155.999c0 -56 20 -84 60 -84s60 28 60 84v44c0.666992 5.33301 3.33398 8 8.00098 8h104
c5.33301 -0.666992 8 -3.33398 8 -8.00098v-64c0 -100 -53.333 -161.333 -160 -184h-32c-82 0 -136.667 49.333 -164 148c0 61.333 -21.333 92 -64 92c-40 0 -60 -28 -60 -84v-64c0 -5.33301 -2.66699 -8 -8 -8h-104c-5.33301 0 -8 2.66699 -8 8v92c0 96 52 154.667 156 176
h40z" />
    <glyph glyph-name="ograve" unicode="&#xf2;" horiz-adv-x="900" 
d="M404 800c156 0 276.001 -77.332 360.001 -231.999c24 -54 36 -108.667 36 -164v-4c0 -178 -92 -304.667 -276 -380c-40.667 -13.333 -83.334 -20 -128.001 -20c-186.667 0 -316 100 -388 300c-5.33301 25.333 -8 45.333 -8 60v76c-0 103.333 53.333 200.666 160 291.999
c72.667 48 154 72 244 72zM200.001 400.001c0 -88 52.001 -153.334 156.001 -196.001c6 0 20.667 -1.33301 44 -4c85.333 0 150.666 53.333 195.999 160c0 6 1.33301 20.667 4 44c0 74 -40 132.667 -120 176c-28.667 13.333 -56.667 20 -84 20c-92 0 -156 -53.333 -192 -160
c-2.66699 -23.333 -4 -36.666 -4 -39.999zM219.002 1100h112c10.667 -8 64 -100 160 -276v-4h-112c-10.667 8 -64 100 -160 276v4z" />
    <glyph glyph-name="oacute" unicode="&#xf3;" horiz-adv-x="900" 
d="M404 800c156 0 276.001 -77.332 360.001 -231.999c24 -54 36 -108.667 36 -164v-4c0 -178 -92 -304.667 -276 -380c-40.667 -13.333 -83.334 -20 -128.001 -20c-186.667 0 -316 100 -388 300c-5.33301 25.333 -8 45.333 -8 60v76c-0 103.333 53.333 200.666 160 291.999
c72.667 48 154 72 244 72zM200.001 400.001c0 -88 52.001 -153.334 156.001 -196.001c6 0 20.667 -1.33301 44 -4c85.333 0 150.666 53.333 195.999 160c0 6 1.33301 20.667 4 44c0 74 -40 132.667 -120 176c-28.667 13.333 -56.667 20 -84 20c-92 0 -156 -53.333 -192 -160
c-2.66699 -23.333 -4 -36.666 -4 -39.999zM581.002 1100c0 -8.66699 -52 -102 -156 -280h-116c0 8.66699 52 102 156 280h116z" />
    <glyph glyph-name="ocircumflex" unicode="&#xf4;" horiz-adv-x="900" 
d="M404 800c156 0 276.001 -77.332 360.001 -231.999c24 -54 36 -108.667 36 -164v-4c0 -178 -92 -304.667 -276 -380c-40.667 -13.333 -83.334 -20 -128.001 -20c-186.667 0 -316 100 -388 300c-5.33301 25.333 -8 45.333 -8 60v76c-0 103.333 53.333 200.666 160 291.999
c72.667 48 154 72 244 72zM200.001 400.001c0 -88 52.001 -153.334 156.001 -196.001c6 0 20.667 -1.33301 44 -4c85.333 0 150.666 53.333 195.999 160c0 6 1.33301 20.667 4 44c0 74 -40 132.667 -120 176c-28.667 13.333 -56.667 20 -84 20c-92 0 -156 -53.333 -192 -160
c-2.66699 -23.333 -4 -36.666 -4 -39.999zM456.002 1100c10.667 -8 64 -100 160 -276v-4h-112c-6.66699 0 -40 57.333 -100 172h-8c-60 -114.667 -93.333 -172 -100 -172h-112c0 8.66699 52 102 156 280h116z" />
    <glyph glyph-name="otilde" unicode="&#xf5;" horiz-adv-x="900" 
d="M404 800c156 0 276.001 -77.332 360.001 -231.999c24 -54 36 -108.667 36 -164v-4c0 -178 -92 -304.667 -276 -380c-40.667 -13.333 -83.334 -20 -128.001 -20c-186.667 0 -316 100 -388 300c-5.33301 25.333 -8 45.333 -8 60v76c-0 103.333 53.333 200.666 160 291.999
c72.667 48 154 72 244 72zM200.001 400.001c0 -88 52.001 -153.334 156.001 -196.001c6 0 20.667 -1.33301 44 -4c85.333 0 150.666 53.333 195.999 160c0 6 1.33301 20.667 4 44c0 74 -40 132.667 -120 176c-28.667 13.333 -56.667 20 -84 20c-92 0 -156 -53.333 -192 -160
c-2.66699 -23.333 -4 -36.666 -4 -39.999zM296.002 1170c84 0 138.666 -51.999 163.999 -155.999c0 -56 20 -84 60 -84s60 28 60 84v44c0.666992 5.33301 3.33398 8 8.00098 8h104c5.33301 -0.666992 8 -3.33398 8 -8.00098v-64c0 -100 -53.333 -161.333 -160 -184h-32
c-82 0 -136.667 49.333 -164 148c0 61.333 -21.333 92 -64 92c-40 0 -60 -28 -60 -84v-64c0 -5.33301 -2.66699 -8 -8 -8h-104c-5.33301 0 -8 2.66699 -8 8v92c0 96 52 154.667 156 176h40z" />
    <glyph glyph-name="odieresis" unicode="&#xf6;" horiz-adv-x="900" 
d="M404 800c156 0 276.001 -77.332 360.001 -231.999c24 -54 36 -108.667 36 -164v-4c0 -178 -92 -304.667 -276 -380c-40.667 -13.333 -83.334 -20 -128.001 -20c-186.667 0 -316 100 -388 300c-5.33301 25.333 -8 45.333 -8 60v76c-0 103.333 53.333 200.666 160 291.999
c72.667 48 154 72 244 72zM200.001 400.001c0 -88 52.001 -153.334 156.001 -196.001c6 0 20.667 -1.33301 44 -4c85.333 0 150.666 53.333 195.999 160c0 6 1.33301 20.667 4 44c0 74 -40 132.667 -120 176c-28.667 13.333 -56.667 20 -84 20c-92 0 -156 -53.333 -192 -160
c-2.66699 -23.333 -4 -36.666 -4 -39.999zM300.002 950c40 -4.66699 60 -24.667 60 -60c-4.66699 -40 -24.667 -60 -60 -60c-40 4.66699 -60 24.667 -60 60c4.66699 40 24.667 60 60 60zM500.002 950c40 -4.66699 60 -24.667 60 -60c-4.66699 -40 -24.667 -60 -60 -60
c-40 4.66699 -60 24.667 -60 60c4.66699 40 24.667 60 60 60z" />
    <glyph glyph-name="divide" unicode="&#xf7;" 
d="M8 500l543.999 0.000976562c5.33301 -0.666992 8 -3.33398 8 -8.00098v-184c0 -5.33301 -2.66699 -8 -8 -8h-544c-5.33301 0 -8 2.66699 -8 8v184c0.666992 5.33301 3.33398 8 8.00098 8zM283.999 250.001c56 0 88 -34.667 96 -104c0 -56 -34.667 -88 -104 -96
c-56 0 -88 34.667 -96 104c0 56 34.667 88 104 96zM283.999 750.001c56 0 88 -34.667 96 -104c0 -56 -34.667 -88 -104 -96c-56 0 -88 34.667 -96 104c0 56 34.667 88 104 96z" />
    <glyph glyph-name="oslash" unicode="&#xf8;" horiz-adv-x="900" 
d="M404 800c22 0 47.333 -2.66504 76 -7.99805c0.666992 5.33301 3.33398 8 8.00098 8h192v-4l-32 -84c101.333 -82 152 -184.667 152 -308v-4c0 -178 -92 -304.667 -276 -380c-40.667 -13.333 -83.334 -20 -128.001 -20c-24 0 -40 1.33301 -48 4
c-25.333 -2.66699 -49.333 -4 -72 -4h-148v4c18.667 46 28 71.333 28 76c-104 91.333 -156 184.666 -156 279.999v76c-0 103.333 53.333 200.666 160 291.999c72.667 48 154 72 244 72zM200 400.002c0 -34 14.667 -75.333 44 -124c6.66699 3.33301 56 111.333 148 324h-4
c-73.333 0 -132 -44 -176 -132c-8 -32 -12 -54.667 -12 -68zM556 516.002l-140 -311.998h8c56 0 109.333 41.333 160 124c10.667 33.333 16 58.666 16 75.999c0 43.333 -14.667 80.666 -44 111.999z" />
    <glyph glyph-name="ugrave" unicode="&#xf9;" horiz-adv-x="780" 
d="M8 800l183.998 0.000976562c5.33301 -0.666992 8 -3.33398 8 -8.00098v-464c0 -50.667 37.333 -92 112 -124c2 0 10 -1.33301 24 -4c62 0 110 41.333 144 124v468c0.666992 5.33301 3.33398 8 8.00098 8h184c5.33301 -0.666992 8 -3.33398 8 -8.00098v-444
c0 -159.333 -80 -270 -240 -332c-28 -10.667 -64 -16 -108 -16c-148 0 -254.667 78.667 -320 236c-8 32.667 -12 55.334 -12 68.001v488c0.666992 5.33301 3.33398 8 8.00098 8zM158.998 1100h112c10.667 -8 64 -100 160 -276v-4h-112c-10.667 8 -64 100 -160 276v4z" />
    <glyph glyph-name="uacute" unicode="&#xfa;" horiz-adv-x="780" 
d="M8 800l183.998 0.000976562c5.33301 -0.666992 8 -3.33398 8 -8.00098v-464c0 -50.667 37.333 -92 112 -124c2 0 10 -1.33301 24 -4c62 0 110 41.333 144 124v468c0.666992 5.33301 3.33398 8 8.00098 8h184c5.33301 -0.666992 8 -3.33398 8 -8.00098v-444
c0 -159.333 -80 -270 -240 -332c-28 -10.667 -64 -16 -108 -16c-148 0 -254.667 78.667 -320 236c-8 32.667 -12 55.334 -12 68.001v488c0.666992 5.33301 3.33398 8 8.00098 8zM520.998 1100c0 -8.66699 -52 -102 -156 -280h-116c0 8.66699 52 102 156 280h116z" />
    <glyph glyph-name="ucircumflex" unicode="&#xfb;" horiz-adv-x="780" 
d="M8 800l183.998 0.000976562c5.33301 -0.666992 8 -3.33398 8 -8.00098v-464c0 -50.667 37.333 -92 112 -124c2 0 10 -1.33301 24 -4c62 0 110 41.333 144 124v468c0.666992 5.33301 3.33398 8 8.00098 8h184c5.33301 -0.666992 8 -3.33398 8 -8.00098v-444
c0 -159.333 -80 -270 -240 -332c-28 -10.667 -64 -16 -108 -16c-148 0 -254.667 78.667 -320 236c-8 32.667 -12 55.334 -12 68.001v488c0.666992 5.33301 3.33398 8 8.00098 8zM395.998 1100c10.667 -8 64 -100 160 -276v-4h-112c-6.66699 0 -40 57.333 -100 172h-8
c-60 -114.667 -93.333 -172 -100 -172h-112c0 8.66699 52 102 156 280h116z" />
    <glyph glyph-name="udieresis" unicode="&#xfc;" horiz-adv-x="780" 
d="M8 800l183.998 0.000976562c5.33301 -0.666992 8 -3.33398 8 -8.00098v-464c0 -50.667 37.333 -92 112 -124c2 0 10 -1.33301 24 -4c62 0 110 41.333 144 124v468c0.666992 5.33301 3.33398 8 8.00098 8h184c5.33301 -0.666992 8 -3.33398 8 -8.00098v-444
c0 -159.333 -80 -270 -240 -332c-28 -10.667 -64 -16 -108 -16c-148 0 -254.667 78.667 -320 236c-8 32.667 -12 55.334 -12 68.001v488c0.666992 5.33301 3.33398 8 8.00098 8zM239.998 950.001c40 -4.66699 60 -24.667 60 -60c-4.66699 -40 -24.667 -60 -60 -60
c-40 4.66699 -60 24.667 -60 60c4.66699 40 24.667 60 60 60zM439.998 950.001c40 -4.66699 60 -24.667 60 -60c-4.66699 -40 -24.667 -60 -60 -60c-40 4.66699 -60 24.667 -60 60c4.66699 40 24.667 60 60 60z" />
    <glyph glyph-name="yacute" unicode="&#xfd;" horiz-adv-x="868" 
 />
    <glyph glyph-name="thorn" unicode="&#xfe;" horiz-adv-x="1010" 
 />
    <glyph glyph-name="ydieresis" unicode="&#xff;" horiz-adv-x="868" 
 />
    <glyph glyph-name="dotlessi" unicode="&#x131;" horiz-adv-x="514" 
 />
    <glyph glyph-name="OE" unicode="&#x152;" horiz-adv-x="1260" 
d="M404 800c64.667 0 129.999 -17.3291 195.999 -51.9961v44c0.666992 5.33301 3.33398 8 8.00098 8h544c5.33301 -0.666992 8 -3.33398 8 -8.00098v-184c0 -5.33301 -2.66699 -8 -8 -8h-352v-80h352c5.33301 -0.666992 8 -3.33398 8 -8.00098v-184
c0 -5.33301 -2.66699 -8 -8 -8h-352v-120h352c5.33301 -0.666992 8 -3.33398 8 -8.00098v-184c0 -5.33301 -2.66699 -8 -8 -8h-544c-5.33301 0 -8 2.66699 -8 8v44h-4c-61.333 -34.667 -128 -52 -200 -52c-186.667 0 -316 100 -388 300c-5.33301 25.333 -8 45.333 -8 60v76
c-0 103.333 53.333 200.666 160 291.999c72.667 48 154 72 244 72zM199.999 400.004c0 -88 52.001 -153.334 156.001 -196.001c6 0 20.667 -1.33301 44 -4c85.333 0 150.666 53.333 195.999 160c0 6 1.33301 20.667 4 44c0 74 -40 132.667 -120 176
c-28.667 13.333 -56.667 20 -84 20c-92 0 -156 -53.333 -192 -160c-2.66699 -23.333 -4 -36.666 -4 -39.999z" />
    <glyph glyph-name="oe" unicode="&#x153;" horiz-adv-x="1260" 
d="M404 800c64.667 0 129.999 -17.3291 195.999 -51.9961v44c0.666992 5.33301 3.33398 8 8.00098 8h544c5.33301 -0.666992 8 -3.33398 8 -8.00098v-184c0 -5.33301 -2.66699 -8 -8 -8h-352v-80h352c5.33301 -0.666992 8 -3.33398 8 -8.00098v-184
c0 -5.33301 -2.66699 -8 -8 -8h-352v-120h352c5.33301 -0.666992 8 -3.33398 8 -8.00098v-184c0 -5.33301 -2.66699 -8 -8 -8h-544c-5.33301 0 -8 2.66699 -8 8v44h-4c-61.333 -34.667 -128 -52 -200 -52c-186.667 0 -316 100 -388 300c-5.33301 25.333 -8 45.333 -8 60v76
c-0 103.333 53.333 200.666 160 291.999c72.667 48 154 72 244 72zM199.999 400.004c0 -88 52.001 -153.334 156.001 -196.001c6 0 20.667 -1.33301 44 -4c85.333 0 150.666 53.333 195.999 160c0 6 1.33301 20.667 4 44c0 74 -40 132.667 -120 176
c-28.667 13.333 -56.667 20 -84 20c-92 0 -156 -53.333 -192 -160c-2.66699 -23.333 -4 -36.666 -4 -39.999z" />
    <glyph glyph-name="circumflex" unicode="&#x2c6;" horiz-adv-x="532" 
d="M272 800c10.667 -8 64 -100 160 -276v-4h-112c-6.66699 0 -40 57.333 -100 172h-8c-60 -114.667 -93.333 -172 -100 -172h-112c0 8.66699 52 102 156 280h116z" />
    <glyph glyph-name="caron" unicode="&#x2c7;" horiz-adv-x="1024" 
 />
    <glyph glyph-name="uni02C9" unicode="&#x2c9;" horiz-adv-x="1024" 
 />
    <glyph glyph-name="breve" unicode="&#x2d8;" horiz-adv-x="1024" 
 />
    <glyph glyph-name="dotaccent" unicode="&#x2d9;" horiz-adv-x="1024" 
 />
    <glyph glyph-name="ring" unicode="&#x2da;" horiz-adv-x="532" 
d="M160 800h112c6 0 16.667 -17.333 32 -52l16 12h112c0 -8.66699 -21.333 -48.667 -64 -120c42.667 -71.333 64 -111.333 64 -120h-112l-16 12c-15.333 -34.667 -26 -52 -32 -52h-112c-6 0 -16.667 17.333 -32 52l-16 -12h-112c-0 8.66699 21.333 48.667 64 120
c-42.667 71.333 -64 111.333 -64 120h112l16 -12c15.333 34.667 26 52 32 52zM212 692c-16 -32 -24 -50.667 -24 -56c16 -27.333 24 -43.333 24 -48h8c16 32 24 50.667 24 56c-16 27.333 -24 43.333 -24 48h-8z" />
    <glyph glyph-name="ogonek" unicode="&#x2db;" horiz-adv-x="1024" 
 />
    <glyph glyph-name="tilde" unicode="&#x2dc;" horiz-adv-x="700" 
d="M196 850c84 0 138.666 -51.999 163.999 -155.999c0 -56 20 -84 60 -84s60 28 60 84v44c0.666992 5.33301 3.33398 8 8.00098 8h104c5.33301 -0.666992 8 -3.33398 8 -8.00098v-64c0 -100 -53.333 -161.333 -160 -184h-32c-82 0 -136.667 49.333 -164 148
c0 61.333 -21.333 92 -64 92c-40 0 -60 -28 -60 -84v-64c0 -5.33301 -2.66699 -8 -8 -8h-104c-5.33301 0 -8 2.66699 -8 8v92c0 96 52 154.667 156 176h40z" />
    <glyph glyph-name="hungarumlaut" unicode="&#x2dd;" horiz-adv-x="1024" 
 />
    <glyph glyph-name="endash" unicode="&#x2013;" horiz-adv-x="1108" 
 />
    <glyph glyph-name="emdash" unicode="&#x2014;" horiz-adv-x="2048" 
 />
    <glyph glyph-name="quoteleft" unicode="&#x2018;" horiz-adv-x="320" 
d="M160 776c28 0 47.998 -106.668 59.998 -320.001v-12c-4 -29.333 -10.667 -44 -20 -44h-4c-6 0 -18 5.33301 -36 16c-90.667 108.667 -144 199.334 -160 272.001v40c18.667 48 49.334 72 92.001 72c30.667 0 53.334 -8 68.001 -24z" />
    <glyph glyph-name="quoteright" unicode="&#x2019;" horiz-adv-x="320" 
d="M128 800c42.667 0 73.332 -23.999 91.999 -71.999v-40c-16 -72.667 -69.333 -163.334 -160 -272.001c-18 -10.667 -30 -16 -36 -16h-4c-9.33301 0 -16 14.667 -20 44v12c12 213.333 32 320 60 320c14.667 16 37.334 24 68.001 24z" />
    <glyph glyph-name="quotesinglbase" unicode="&#x201a;" horiz-adv-x="320" 
d="M128 200c42.667 0 73.332 -23.999 91.999 -71.999v-40c-16 -72.667 -69.333 -163.334 -160 -272.001c-18 -10.667 -30 -16 -36 -16h-4c-9.33301 0 -16 14.667 -20 44v12c12 213.333 32 320 60 320c14.667 16 37.334 24 68.001 24z" />
    <glyph glyph-name="quotedblleft" unicode="&#x201c;" horiz-adv-x="592" 
d="M432 776c28 0 48 -106.667 60 -320v-12c-4 -29.333 -10.667 -44 -20 -44h-4c-6 0 -18 5.33301 -36 16c-102.667 130.667 -157.334 224 -164.001 280c8 69.333 40 104 96 104c30.667 0 53.334 -8 68.001 -24zM160 776c28 0 47.998 -106.668 59.998 -320.001v-12
c-4 -29.333 -10.667 -44 -20 -44h-4c-6 0 -18 5.33301 -36 16c-90.667 108.667 -144 199.334 -160 272.001v40c18.667 48 49.334 72 92.001 72c30.667 0 53.334 -8 68.001 -24z" />
    <glyph glyph-name="quotedblright" unicode="&#x201d;" horiz-adv-x="592" 
d="M128 800c56 0 87.999 -34.667 95.999 -104c-6 -56 -60.667 -149.333 -164 -280c-18 -10.667 -30 -16 -36 -16h-4c-9.33301 0 -16 14.667 -20 44v12c12 213.333 32 320 60 320c14.667 16 37.334 24 68.001 24zM399.999 800c42.667 0 73.332 -23.999 91.999 -71.999v-40
c-16 -72.667 -69.333 -163.334 -160 -272.001c-18 -10.667 -30 -16 -36 -16h-4c-9.33301 0 -16 14.667 -20 44v12c12 213.333 32 320 60 320c14.667 16 37.334 24 68.001 24z" />
    <glyph glyph-name="quotedblbase" unicode="&#x201e;" horiz-adv-x="592" 
d="M128 200c56 0 87.999 -34.667 95.999 -104c-6 -56 -60.667 -149.333 -164 -280c-18 -10.667 -30 -16 -36 -16h-4c-9.33301 0 -16 14.667 -20 44v12c12 213.333 32 320 60 320c14.667 16 37.334 24 68.001 24zM399.999 200c42.667 0 73.332 -23.999 91.999 -71.999v-40
c-16 -72.667 -69.333 -163.334 -160 -272.001c-18 -10.667 -30 -16 -36 -16h-4c-9.33301 0 -16 14.667 -20 44v12c12 213.333 32 320 60 320c14.667 16 37.334 24 68.001 24z" />
    <glyph glyph-name="dagger" unicode="&#x2020;" horiz-adv-x="1014" 
 />
    <glyph glyph-name="daggerdbl" unicode="&#x2021;" horiz-adv-x="1014" 
 />
    <glyph glyph-name="bullet" unicode="&#x2022;" horiz-adv-x="1024" 
 />
    <glyph glyph-name="ellipsis" unicode="&#x2026;" horiz-adv-x="966" 
d="M233 200c56 0 88 -34.667 96 -104c0 -56 -34.667 -88 -104 -96c-56 0 -88 34.667 -96 104c0 56 34.667 88 104 96zM566 200c56 0 88 -34.667 96 -104c0 -56 -34.667 -88 -104 -96c-56 0 -88 34.667 -96 104c0 56 34.667 88 104 96zM899 200c56 0 88 -34.667 96 -104
c0 -56 -34.667 -88 -104 -96c-56 0 -88 34.667 -96 104c0 56 34.667 88 104 96z" />
    <glyph glyph-name="perthousand" unicode="&#x2030;" horiz-adv-x="941" 
d="M120 800c80 -10.667 120 -50.667 120 -120c-10.667 -80 -50.667 -120 -120 -120c-80 10.667 -120 50.667 -120 120c10.667 80 50.667 120 120 120zM364 800h192v-4c-216 -491.333 -336 -756.666 -360 -795.999h-192v4c216 491.333 336 756.666 360 795.999zM76 688v-8
c3.33301 -24 15.333 -36 36 -36h8c24 3.33301 36 15.333 36 36v8c-3.33301 24 -15.333 36 -36 36h-8c-24 -3.33301 -36 -15.333 -36 -36zM440 240c80 -10.667 120 -50.667 120 -120c-10.667 -80 -50.667 -120 -120 -120c-80 10.667 -120 50.667 -120 120
c10.667 80 50.667 120 120 120zM400 128v-8c3.33301 -24 15.333 -36 36 -36h8c24 3.33301 36 15.333 36 36v8c-3.33301 24 -15.333 36 -36 36h-8c-24 -3.33301 -36 -15.333 -36 -36zM721 240c80 -10.667 120 -50.667 120 -120c-10.667 -80 -50.667 -120 -120 -120
c-80 10.667 -120 50.667 -120 120c10.667 80 50.667 120 120 120zM681 128v-8c3.33301 -24 15.333 -36 36 -36h8c24 3.33301 36 15.333 36 36v8c-3.33301 24 -15.333 36 -36 36h-8c-24 -3.33301 -36 -15.333 -36 -36z" />
    <glyph glyph-name="guilsinglleft" unicode="&#x2039;" horiz-adv-x="631" 
 />
    <glyph glyph-name="guilsinglright" unicode="&#x203a;" horiz-adv-x="631" 
 />
    <glyph glyph-name="fraction" unicode="&#x2044;" horiz-adv-x="342" 
 />
    <glyph glyph-name="fraction" unicode="&#x2215;" horiz-adv-x="342" 
 />
    <glyph glyph-name="franc" unicode="&#x20a3;" horiz-adv-x="1014" 
 />
    <glyph glyph-name="lira" unicode="&#x20a4;" horiz-adv-x="1014" 
 />
    <glyph glyph-name="peseta" unicode="&#x20a7;" horiz-adv-x="2028" 
 />
    <glyph glyph-name="Euro" unicode="&#x20ac;" horiz-adv-x="740" 
d="M484 800l71.9971 0.000976562c15.333 0 36.666 -1.33301 63.999 -4c5.33301 2.66699 9.33301 4 12 4l4 -8v-184c0 -5.33301 -2.66699 -8 -8 -8h-132c-75.333 0 -132.666 -25.333 -171.999 -76v-4h168c5.33301 -0.666992 8 -3.33398 8 -8.00098v-64
c0 -5.33301 -2.66699 -8 -8 -8h-208c-2.66699 -23.333 -4 -36.666 -4 -39.999h212c5.33301 -0.666992 8 -3.33398 8 -8.00098v-64c0 -5.33301 -2.66699 -8 -8 -8h-192c40.667 -80 104.667 -120 192 -120c20 0 66.667 1.33301 140 4c2 -5.33301 4.66699 -20 8 -44
c-2.66699 -29.333 -4 -56 -4 -80v-72c0 -5.33301 -2.66699 -8 -8 -8h-144c-200.667 -0 -334 105.333 -400 316v4h-76c-5.33301 0 -8 2.66699 -8 8v64c0.666992 5.33301 3.33398 8 8.00098 8h72v40h-72c-5.33301 0 -8 2.66699 -8 8v64c0.666992 5.33301 3.33398 8 8.00098 8
h88c33.333 97.333 76 161.333 128 192c68.667 58.667 155.334 88 260.001 88z" />
    <glyph glyph-name="afii61352" unicode="&#x2116;" horiz-adv-x="2271" 
 />
    <glyph glyph-name="trademark" unicode="&#x2122;" horiz-adv-x="776" 
d="M3.59961 700.02l298.809 -0.000976562c2.39941 -0.266602 3.59961 -1.33301 3.59961 -3.19922v-73.6045c0 -2.13379 -1.2002 -3.2002 -3.59961 -3.2002h-104.402v-236.814c0 -2.13379 -1.2002 -3.2002 -3.60059 -3.2002h-82.8018
c-2.40039 0 -3.60059 1.06641 -3.60059 3.2002v236.814h-104.403c-2.39941 0 -3.59961 1.06641 -3.59961 3.2002v73.6045c0.299805 2.13379 1.5 3.2002 3.59961 3.2002zM319.6 700.019l84.6016 -0.000976562c4.7998 -4.7998 34.8008 -75.2041 90.0029 -211.213h3.59961
c55.2021 136.009 85.2031 206.413 90.0029 211.213h84.6025c2.39941 -0.266602 3.59961 -1.33301 3.59961 -3.19922v-313.619c0 -2.13379 -1.2002 -3.2002 -3.59961 -3.2002h-82.8027c-2.39941 0 -3.59961 1.06641 -3.59961 3.2002v100.806h-1.80078
c-25.2002 -64.5371 -40.2002 -99.2061 -45 -104.006h-86.4023c-4.5 4.53418 -18.9004 37.6025 -43.2012 99.2061h-1.7998v-96.0059c0 -2.13379 -1.2002 -3.2002 -3.60059 -3.2002h-84.6025c-2.39941 0 -3.59961 1.06641 -3.59961 3.2002v313.619
c0.299805 2.13379 1.5 3.2002 3.59961 3.2002z" />
    <glyph glyph-name="partialdiff" unicode="&#x2202;" horiz-adv-x="1014" 
 />
    <glyph glyph-name="Delta" unicode="&#x2206;" horiz-adv-x="1081" 
 />
    <glyph glyph-name="product" unicode="&#x220f;" horiz-adv-x="1515" 
 />
    <glyph glyph-name="summation" unicode="&#x2211;" horiz-adv-x="1206" 
 />
    <glyph glyph-name="minus" unicode="&#x2212;" 
d="M8 600l543.999 0.000976562c5.33301 -0.666992 8 -3.33398 8 -8.00098v-184c0 -5.33301 -2.66699 -8 -8 -8h-544c-5.33301 0 -8 2.66699 -8 8v184c0.666992 5.33301 3.33398 8 8.00098 8z" />
    <glyph glyph-name="radical" unicode="&#x221a;" horiz-adv-x="1014" 
 />
    <glyph glyph-name="infinity" unicode="&#x221e;" horiz-adv-x="1014" 
 />
    <glyph glyph-name="integral" unicode="&#x222b;" horiz-adv-x="665" 
 />
    <glyph glyph-name="approxequal" unicode="&#x2248;" horiz-adv-x="1014" 
 />
    <glyph glyph-name="lessequal" unicode="&#x2264;" horiz-adv-x="1014" 
 />
    <glyph glyph-name="greaterequal" unicode="&#x2265;" horiz-adv-x="1014" 
 />
    <glyph glyph-name="uniF001" unicode="&#xf001;" horiz-adv-x="1073" 
 />
    <glyph glyph-name="uniF001" unicode="&#xfb01;" horiz-adv-x="1073" 
 />
    <glyph glyph-name="uniF002" unicode="&#xf002;" horiz-adv-x="1081" 
 />
    <glyph glyph-name="uniF002" unicode="&#xfb02;" horiz-adv-x="1081" 
 />
    <glyph glyph-name=".null" horiz-adv-x="0" 
 />
    <glyph glyph-name="nonmarkingreturn" horiz-adv-x="508" 
 />
    </font>
</defs>
</svg>
